<?xml version="1.0" encoding="UTF-8"?>
<svg width="120px" height="36px" viewBox="0 0 120 36" version="1.1" xmlns="http://www.w3.org/2000/svg" xmlns:xlink="http://www.w3.org/1999/xlink">
    <!-- Generator: Sketch 44.1 (41455) - http://www.bohemiancoding.com/sketch -->
    <title>Page 1</title>
    <desc>Created with Sketch.</desc>
    <defs>
        <path d="M0.0398126981,17.6167363 C0.0773747758,7.89767043 7.97208535,0.0305153637 17.7054751,0.0305153637 C27.4617592,0.0305153637 35.3709048,7.9353112 35.3709048,17.686364 C35.3709048,18.9438448 35.2394375,20.1705005 34.9892306,21.353784 C24.0872256,17.5916424 11.6574374,17.428455 0.421021222,21.352235 C0.175781211,20.1915669 0.0446243692,18.988611 0.0398126981,17.7560691 L0.0398126981,17.6167363 Z M14.1162789,6.89616239 L10.8312269,15.9153886 C11.9585549,15.7503423 13.0855724,15.626422 14.2125123,15.5429308 L16.9923389,7.91021735 L17.0043681,7.885898 C17.1306357,7.51762248 17.2961727,7.27574563 17.4717987,7.15407142 C17.5455259,7.10279942 17.6174681,7.07778302 17.6800199,7.07956437 C17.7500995,7.08111337 17.8350798,7.116663 17.9275881,7.18551619 C18.149313,7.35056248 18.3549731,7.66764345 18.5054543,8.14984815 L18.5295126,8.21537099 L21.2010766,15.5504434 C22.328715,15.6361808 23.4565086,15.7619598 24.5838366,15.9284777 L21.4197748,7.24058325 C21.0650305,6.10779719 20.4594584,5.2715678 19.7433731,4.73809108 C19.1361712,4.28593704 18.4496544,4.05234735 17.7519621,4.03515342 C17.0470523,4.01749478 16.3533956,4.22266026 15.7395195,4.64677734 C15.0443882,5.12743305 14.4612447,5.88179762 14.1132522,6.89538788 L14.1162789,6.89616239 Z M11.9503285,21.7531945 C13.8455836,21.5229352 15.7402955,21.4080766 17.6355507,21.4081541 C19.5786898,21.4081541 21.5224497,21.5288214 23.4658215,21.7693042 L27.3636632,32.4712126 C24.6062652,34.2743298 21.31353,35.3287363 17.7758652,35.3425999 L17.6351627,35.3425999 C14.0971099,35.3287363 10.8046851,34.27402 8.04728711,32.4712126 L11.9503285,21.7531945 Z M1.30861933,24.2683885 C3.70754781,23.4249563 6.10678672,22.768721 8.50649127,22.2989858 L5.52775642,30.4771033 C3.70979843,28.7476412 2.26032131,26.6349557 1.30861933,24.2683885 Z M29.8828058,30.4771033 L26.911987,22.3206719 C29.3075007,22.7915688 31.7034025,23.444009 34.0993043,24.2758237 C33.1476799,26.6393703 31.6989012,28.7495 29.8828058,30.4771033 Z" id="path-1"></path>
        <path d="M2.10846288,0.13879069 C1.8266352,0.305076186 1.74271935,0.710372882 1.56385826,1.0059227 C1.39201588,1.28993244 1.43605627,1.36265814 1.76809464,1.36358754 C2.57393361,1.3661434 3.37992685,1.3644395 4.18576583,1.3644395 L7.02394182,1.3644395 C7.04075584,1.38999805 7.05764699,1.41547915 7.07438388,1.44088281 C7.00242296,1.49548517 6.9260657,1.54536307 6.85880962,1.6054644 C5.21350362,3.07508122 3.46260864,4.40280933 1.5831404,5.55673929 C1.42872906,5.65153829 1.35175478,5.7522235 1.3610102,5.93639998 C1.37304226,6.18044544 1.37149969,6.42580756 1.36170436,6.67008536 C1.35322022,6.8799753 1.4447718,6.95525686 1.64677144,6.94828635 C1.77202819,6.94394914 1.89759345,6.94526579 2.02308159,6.94658244 C2.16947155,6.94813144 2.31578439,6.9497579 2.46171159,6.94216778 C2.62776933,6.93372571 2.66070322,6.99429174 2.65931491,7.14903716 C2.65229621,7.90223999 2.59344713,8.650486 2.49194598,9.39695065 C2.20857572,11.4824512 1.50516344,13.3928368 0.171919514,15.0424478 C0.1040464,15.1264038 0.0640166876,15.2109794 0.065636387,15.3224302 C0.0704183564,15.6704137 0.0685672715,16.0184748 0.0664848009,16.3666132 C0.0660220297,16.4554486 0.0720380557,16.5426575 0.159193305,16.5857198 C0.254755565,16.6330418 0.313913155,16.5563661 0.376001629,16.5007569 C2.00904419,15.0384979 3.13473522,13.2580736 3.72183767,11.1375656 C4.07979122,9.84438024 4.23636215,8.52385498 4.25495013,7.18574854 C4.25780388,6.98530752 4.31858117,6.93380316 4.51132539,6.94139328 C4.9042953,6.95672841 5.29873065,6.95703821 5.69170056,6.94139328 C5.89269753,6.93333846 5.93804911,6.99630545 5.93426982,7.19364846 C5.91629887,8.13482282 5.84703744,9.07073057 5.68984947,9.99897076 C5.41149258,11.6443994 4.92326892,13.2256994 3.91944098,14.5692273 C3.45759529,15.1872796 3.25004239,15.7917781 3.34028278,16.5305752 C3.34151684,16.5397918 3.34066842,16.5494731 3.34043704,16.5588445 C3.33796892,16.6627052 3.32138629,16.7909627 3.42057359,16.8413053 C3.53973718,16.9018713 3.62480996,16.7872451 3.70764601,16.7147517 C5.22599844,15.3847775 6.26684808,13.7436861 6.8703789,11.8181202 C7.33762359,10.3274369 7.52720554,8.7942335 7.53545829,7.2378725 C7.53676948,6.9764782 7.61420653,6.92528365 7.84736611,6.94131583 C8.13659813,6.96098817 8.42922381,6.96122052 8.71830157,6.94100603 C8.94205146,6.9253611 8.99426748,7.00064265 8.99334194,7.21912956 C8.98508919,9.33576503 8.9880972,11.4525554 8.98886849,13.5692683 C8.98894562,13.822995 8.99843243,14.0763345 8.95385213,14.3286671 C8.87595231,14.769436 8.58903414,15.0673868 8.15310363,15.1643544 C7.91215408,15.2178724 7.66935344,15.2071069 7.42609002,15.2126058 C7.32366332,15.2150068 7.21552911,15.2043187 7.10754916,15.193708 C6.87107305,15.1705504 6.63529111,15.1472379 6.46190615,15.2598504 C6.21262671,15.4217213 6.09477431,15.7876733 5.91946114,16.0641704 C5.90943443,16.0799702 5.90249286,16.0978612 5.89169486,16.1131963 C5.76327584,16.2945846 5.81695731,16.4037119 6.03075762,16.4013884 C6.35724273,16.3979031 6.68388209,16.4077393 7.01052145,16.417498 C7.57379118,16.4343821 8.13690664,16.4512663 8.69894231,16.3999168 C9.67222735,16.3110815 10.3222667,15.7478639 10.5596683,14.8286079 C10.6377995,14.5266298 10.6562333,14.2179134 10.6559247,13.9067187 C10.6549992,11.2820101 10.6553077,8.65737906 10.6550763,6.03251563 C10.6550763,5.64363837 10.6546136,5.64294132 10.2694336,5.64294132 C8.25475905,5.64263152 6.2401616,5.64317367 4.22548703,5.64139232 C4.20581925,5.64139232 4.18592009,5.64255407 4.16555815,5.64363837 C4.08835248,5.64782068 4.00528505,5.65208044 3.91458188,5.59407027 C5.75309488,4.51991398 7.43341723,3.27436048 9.03576264,1.91789835 C9.73470146,1.32641147 9.74449679,1.33802899 9.7437255,0.428609194 C9.74341699,0.069008094 9.74341699,0.0677688914 9.36841803,0.0687757435 C7.2881842,0.0739649043 5.20818175,0.0775276117 3.12802504,0.0878284832 C3.02636963,0.0883706344 2.92024076,0.0784570137 2.81411189,0.068543393 C2.71068251,0.058939573 2.60702176,0.0492583028 2.50706317,0.0493357529 C2.36267855,0.0493357529 2.22592964,0.0693953448 2.10846288,0.13879069 Z" id="path-3"></path>
        <path d="M7.89973638,0.0563062675 L0.504883418,0.0563062675 C0.0468170234,0.0563062675 0.0466627663,0.0564611678 0.0466627663,0.502883899 C0.0465856378,5.79094858 0.0465856378,11.0791682 0.0465856378,16.3673103 C0.0465856378,16.4237715 0.0499021649,16.480465 0.0461228665,16.5365389 C0.0319312153,16.7449573 0.134435044,16.8216329 0.33373519,16.8182251 C0.594738167,16.8138879 0.855818272,16.8148173 1.11682125,16.8157467 C1.23066297,16.8160565 1.3445047,16.8165212 1.45834642,16.8164438 C1.88941783,16.8163663 1.88972634,16.8162114 1.88972634,16.3725769 C1.88972634,11.4890344 1.8915003,7.25870659 1.88972634,2.37524156 C1.88964921,2.20880116 1.80681316,1.86050778 2.06172298,1.86120483 C5.94190554,1.8711959 9.93338458,1.86670379 13.8134129,1.86120483 C13.9975958,1.86089503 13.9921968,2.19152977 13.9920426,2.37524156 C13.9873377,6.59999297 13.9900372,10.1194832 13.988726,14.3443121 C13.9886489,14.9946611 13.6491291,15.3369133 13.0087308,15.3543396 C12.4092878,15.3706042 11.8099991,15.3937618 11.2104789,15.4026685 C11.0639347,15.4048371 10.96629,15.4516945 10.8817571,15.568954 C10.668111,15.8658205 10.4449011,16.1557939 10.2277071,16.450182 C10.1801188,16.5145431 10.0929635,16.5711591 10.141863,16.6688238 C10.1923822,16.7695864 10.2916466,16.7650169 10.3873632,16.7642424 C11.4648489,16.7561101 12.5432601,16.7722972 13.6192032,16.7084008 C14.6966118,16.644427 15.4171466,16.0241286 15.6590217,14.9767701 C15.7248895,14.691676 15.7410865,14.4011605 15.7408551,14.1086312 C15.7400067,9.54503536 15.7403923,4.98143949 15.7401609,0.417843622 C15.7401609,0.0594817241 15.7369986,0.0565386179 15.3788908,0.0564611678 C14.1323394,0.0563062675 12.8857879,0.0563062675 11.6392365,0.0563062675 L7.89973638,0.0563062675 Z" id="path-5"></path>
        <path d="M3.6462517,0.267048157 C3.64293517,0.0796962163 3.69731079,0.0020137042 3.88573581,0.0020137042 C3.89090342,0.0020137042 3.89622529,0.00209115436 3.90162429,0.00216860452 C4.40743325,0.013398878 4.91378211,0.0130890773 5.41959107,0.00232350485 C5.6180428,-0.00185880388 5.68491325,0.0684659428 5.67642911,0.264647202 C5.6518251,0.837778398 5.64403512,1.41168409 5.62012528,1.98497019 C5.61341509,2.14265872 5.63192594,2.21337072 5.82266482,2.21275112 C8.07150164,2.20508355 10.3204927,2.20570315 12.5694067,2.21182171 C12.7394751,2.21228642 12.764619,2.15164294 12.7626137,2.00247393 C12.7549779,1.41927421 12.7643105,0.835997044 12.7566748,0.252797327 C12.7542066,0.0726482516 12.8105105,-0.000542151131 12.9977014,0.00286565598 C13.4941779,0.0119273249 13.9910399,0.0116949744 14.4875163,0.0030205563 C14.6722392,-0.000232350485 14.7372585,0.0676914412 14.7297771,0.250628723 C14.7068699,0.814388449 14.7062529,1.37946483 14.6717764,1.94245005 C14.6576619,2.17503289 14.7365644,2.21484227 14.9468168,2.21313837 C15.8649549,2.205161 16.7832473,2.21460992 17.7015397,2.21825008 C18.0557139,2.21972163 18.0642752,2.2286284 18.0656635,2.58273054 C18.0665891,2.81786923 18.0520889,3.05401477 18.0695971,3.28806916 C18.0881079,3.53885278 17.9817477,3.61692255 17.7451173,3.61568334 C17.3704269,3.61374709 16.9957364,3.61529609 16.621046,3.61692255 C16.0493692,3.61924605 15.4775382,3.62172446 14.90617,3.61134613 C14.6589731,3.60677657 14.5979644,3.68647279 14.5769854,3.91193021 C14.3962733,5.85499986 13.5264947,7.44683304 12.1030104,8.75124866 C11.6954632,9.12479079 11.2517427,9.45255987 10.7665271,9.79783269 C11.4596041,10.0171715 12.1290027,10.1843864 12.8021035,10.3361113 C14.4340662,10.704077 15.8371886,10.9787153 17.49175,11.2237676 C17.7031594,11.2550575 17.7876151,11.2841787 17.9362418,11.4470564 C18.2019496,11.7378818 18.4761416,12.0611588 18.7539586,12.3409087 C18.8060204,12.3932651 18.7989245,12.4067414 18.879601,12.5081236 C18.9603546,12.6096608 19.0155015,12.6633338 18.9236414,12.6479986 C17.3478282,12.3835838 15.7998584,12.1254424 14.2279016,11.8394964 C12.5291456,11.5303928 10.8328576,11.202159 9.18122706,10.6827782 C9.06784811,10.6470737 8.96310755,10.666049 8.85304513,10.700979 C6.56764938,11.4234341 4.22803227,11.9021536 1.86288561,12.2655497 C1.57635309,12.3096189 1.29036046,12.3563988 1.00513912,12.4067414 C0.915052991,12.4226187 0.830751497,12.4195981 0.779229633,12.3409087 C0.719532143,12.2496725 0.794501084,12.1846918 0.846639976,12.1197885 C0.858440643,12.1052279 0.875331793,12.0938427 0.883970189,12.0777331 C1.28634978,11.3249175 1.97325655,11.1474792 2.75757667,11.0340147 C4.28549303,10.8130494 5.75216933,10.3265075 7.24236984,9.80317675 C6.68172249,9.43017677 6.17074592,9.02426048 5.70959438,8.55421545 C4.59794074,7.42096468 4.00875583,6.0387891 3.76240728,4.48994077 C3.72700528,4.2675039 3.68944368,4.04406019 3.67772014,3.81976452 C3.66846472,3.6444948 3.59565537,3.61444414 3.4354594,3.61537354 C2.42361009,3.62110485 1.41168366,3.61560589 0.399602962,3.61250789 C0.0372530845,3.61142358 0.012726209,3.58640718 0.0111836382,3.23447365 C0.0100267101,3.00878388 0.0217502481,2.78224215 0.00809849663,2.55740434 C-0.00763572539,2.29910805 0.104277785,2.21337072 0.353171582,2.21476482 C1.32761355,2.21987653 2.30220977,2.21135701 3.27657461,2.20841391 C3.64956822,2.2073296 3.64956822,2.20802666 3.64956822,1.84734125 C3.64956822,1.3206027 3.65581564,0.793631806 3.6462517,0.267048157 Z M8.83638536,8.96679246 C8.91860439,9.02123992 8.98987116,9.04540437 9.0610608,9.04540437 C9.13309886,9.04540437 9.20505978,9.02069777 9.28835861,8.97771293 C11.4545136,7.86064925 12.3294598,5.91285514 12.7194988,3.61940095 L12.5758083,3.61940095 L5.74877568,3.61940095 C5.71129121,3.61940095 5.67372961,3.62195681 5.63647653,3.61909115 C5.54045149,3.61150103 5.50720909,3.64836731 5.51692729,3.74889762 C5.60747619,4.68860043 5.78093828,5.60491329 6.24995693,6.44044564 C6.86559693,7.53721737 7.81288965,8.28941334 8.83638536,8.96679246 Z" id="path-7"></path>
        <path d="M3.95013814,0.0312124151 C3.96425266,0.0302830132 3.97782729,0.0298183122 3.99078488,0.0298183122 C4.21607735,0.0298183122 4.26968168,0.168299201 4.26543961,0.391355666 C4.25371607,1.00251489 4.26937317,1.86104993 4.25602993,2.47220916 C4.25140222,2.68403535 4.29636815,2.76047866 4.52659684,2.7549797 C4.90390966,2.74576313 5.28145386,2.74700233 5.65899806,2.74808663 C5.97483943,2.74909349 6.29075792,2.75002289 6.60659929,2.74491118 C6.84978558,2.74096122 6.93601528,2.82514954 6.93570677,3.07182831 C6.93030777,6.2325694 6.93354717,9.3934654 6.9303849,12.5542065 C6.93023064,12.7979421 6.8868844,13.0416778 6.88418491,13.2855684 C6.88202531,13.4723007 6.80466538,13.5262835 6.62750113,13.5250443 C6.3163646,13.5229531 6.00515094,13.5245021 5.69401442,13.5260511 C5.30250995,13.5279099 4.91085123,13.5298462 4.51942389,13.5244247 C4.31557316,13.5216365 4.25286766,13.5686487 4.254873,13.7864386 C4.26690505,15.0657603 4.25510439,16.345237 4.26543961,17.6245588 C4.26759921,17.8902903 4.19247601,18.0033675 3.91427337,17.9826109 C3.63460529,17.9620091 3.35154355,17.9647973 3.07148982,17.9819138 C2.80778735,17.9982558 2.73297266,17.8875021 2.73474662,17.6354018 C2.74377066,16.3937208 2.73883443,15.1519624 2.73883443,13.9102039 C2.73883443,13.5324795 2.73883443,13.5324795 2.37656168,13.5324795 C1.73007027,13.5324795 1.08311608,13.52001 0.437164561,13.5383657 C0.159116177,13.5461107 0.0643252018,13.4708292 0.066639058,13.1774479 C0.0799051667,11.5030529 0.0731949838,9.8284255 0.0731949838,8.15403046 C0.0731949838,6.47955797 0.0729635982,4.80500802 0.0732721124,3.13045808 C0.0732721124,2.75846495 0.0826046656,2.74917094 0.449505127,2.74901603 C1.13348101,2.74847388 1.81768829,2.74049652 2.50150992,2.75397285 C2.70474362,2.7579228 2.74716431,2.69309702 2.74338502,2.50164022 C2.73119871,1.88103207 2.74677867,1.01188636 2.73474662,0.391355666 C2.73011891,0.15342877 2.79544678,0.0161096336 3.05112789,0.0312124151 C3.34992385,0.0485612513 3.65157357,0.050807306 3.95013814,0.0312124151 Z M2.08000245,3.96335712 C1.9852886,3.97187664 1.8904205,3.98039615 1.80257109,3.98039615 C1.79524388,3.98039615 1.78791667,3.9803187 1.78066659,3.9801638 C1.77735006,3.9801638 1.7739564,3.9803187 1.77063988,3.98039615 C1.76454672,3.98070595 1.75845357,3.98086085 1.7525918,3.98008635 C1.63527929,3.96405417 1.58992771,4.00479295 1.59062187,4.13328277 C1.59548096,5.1776982 1.59517245,6.22195873 1.59085325,7.26629671 C1.59023622,7.38982972 1.62525258,7.4291744 1.74888963,7.42491464 C2.00156272,7.41593042 2.25539275,7.41174811 2.50760307,7.42561169 C2.68438168,7.43544786 2.74947817,7.39145617 2.74392492,7.19837292 C2.72911624,6.70013603 2.73891156,6.20120209 2.73891156,5.70257795 C2.73891156,5.4390925 2.74731857,5.1753747 2.73667483,4.9122765 C2.72433427,4.60681306 2.8738865,4.18672338 2.67882843,4.02795055 C2.54801843,3.92145658 2.31401044,3.94244557 2.08000245,3.96335712 Z M4.31210238,7.36187021 C4.38329202,7.43939782 4.4929688,7.46162602 4.61938248,7.46162602 C4.70391536,7.46162602 4.79585258,7.4517124 4.88879247,7.44179877 C5.0132008,7.4285548 5.13946022,7.41531082 5.25199076,7.42568914 C5.44087855,7.44327033 5.48376202,7.37426223 5.48121678,7.19326121 C5.47119007,6.45043671 5.47851728,5.70737986 5.47643481,4.96440046 C5.47535501,4.64615774 5.466948,4.32791503 5.46193464,4.00990467 C5.26356004,3.97009528 5.06379712,3.97528444 4.86411133,3.98055105 C4.72936777,3.98411376 4.59470134,3.98759902 4.46065194,3.97729815 C4.30045597,3.96490612 4.25263627,4.01919868 4.25572141,4.18021757 C4.26543961,4.67860936 4.2591922,5.1770786 4.2591922,5.67554784 C4.2591922,5.92958437 4.25664696,6.18354345 4.25996348,6.43742508 C4.2640513,6.75551289 4.15105799,7.18636814 4.31210238,7.36187021 Z M2.14587022,8.6274833 C2.06064319,8.63669987 1.97449061,8.64591644 1.89273436,8.64591644 C1.86319412,8.64591644 1.83419379,8.64467723 1.80604188,8.64188903 C1.63304256,8.62461764 1.58684257,8.68270526 1.58892504,8.85720048 C1.59841185,9.71093361 1.58776811,10.5649765 1.59609799,11.4188646 C1.59895175,11.7144918 1.46297413,12.1203307 1.65463855,12.2756957 C1.77603888,12.3740574 1.9879881,12.3559341 2.20379375,12.3378107 C2.31285351,12.3286716 2.42299306,12.31961 2.52272026,12.3254187 C2.69471691,12.3356421 2.74701006,12.2836731 2.74330789,12.1077838 C2.73181573,11.5731453 2.73914295,11.038197 2.73914295,10.5033262 C2.73914295,10.1842315 2.74176532,9.86513688 2.73829453,9.54611966 C2.73536365,9.25699821 2.83802173,8.85991123 2.69101474,8.70617266 C2.57123412,8.5810132 2.36136736,8.6043257 2.14587022,8.6274833 Z M5.28045119,8.63948807 C5.15064386,8.64552919 5.02052801,8.64777524 4.89041216,8.64777524 C4.73947161,8.64777524 4.58845393,8.64467723 4.43759051,8.64080473 C4.31210238,8.63755182 4.25533577,8.66295547 4.25610706,8.80801962 C4.26173744,9.92725191 4.2608119,11.0463293 4.25695547,12.1655616 C4.25641557,12.2888622 4.29683093,12.3297559 4.41707432,12.328052 C4.6791571,12.3244119 4.9423968,12.31961 5.20355403,12.3385852 C5.38496036,12.3519841 5.40501378,12.2773222 5.42375601,12.1175425 C5.49540843,11.5076999 5.46957037,10.896773 5.47705183,10.2860011 C5.47705183,9.80627476 5.47134432,9.32662591 5.48044549,8.84713196 C5.48353063,8.69161203 5.44488923,8.63189796 5.28045119,8.63948807 Z" id="path-9"></path>
        <path d="M3.20708179,0.356657994 C3.25081368,0.156604227 3.33002469,0.0724933512 3.52724236,0.0724159011 C3.53834887,0.0724159011 3.54999528,0.0727257017 3.5619502,0.0732678528 C3.97343096,0.091546091 4.38653142,0.0865118305 4.7986292,0.0754364574 C5.03811332,0.0689306438 5.09827358,0.169460954 5.03911599,0.385469454 C4.91324221,0.845600864 4.74255675,1.10095405 4.52158349,1.56712657 L5.03911599,1.56712657 L10.4357999,1.56712657 C10.4357999,1.56712657 10.6235307,1.86058523 10.6472092,2.12507753 C10.7038216,2.7562189 10.5103061,3.28992796 10.1943104,3.82332723 C9.4123813,5.14338778 8.50010493,6.34347803 7.23157185,7.29371407 C7.98642886,7.78536769 8.77298571,8.1480668 9.59579296,8.43052754 C10.0897241,8.60006594 10.5926793,8.74358109 11.0933978,8.8924403 C11.2466522,8.93790355 11.3534752,9.0094675 11.4120158,9.17118343 C11.4978599,9.40856818 11.6166378,9.63363835 11.7089607,9.86885449 C11.8064512,10.1172372 11.7557777,10.1840766 11.4898385,10.1278478 C9.63127209,9.73494316 7.80209165,9.24824634 6.12169217,8.32480807 C5.92987349,8.2193984 5.79428152,8.23210022 5.61387786,8.32395612 C3.9454333,9.17342949 2.15975336,9.68134765 0.35378861,10.1291645 C0.307974258,10.1404722 0.26771316,10.1464359 0.232773932,10.1467457 L0.22652652,10.1467457 C0.0941739465,10.145429 0.0406467402,10.0605436 0.0537585919,9.87923281 C0.0604687748,9.78443381 0.0556868054,9.64262257 0.0492080081,9.49531236 L0.0492080081,8.90398038 C0.0505963218,8.89964317 0.0521388926,8.89577066 0.0537585919,8.8924403 C0.104432042,8.78796003 0.632916794,8.66922894 0.885975531,8.60533255 C1.12846766,8.54399202 3.04781136,8.00486145 4.1197438,7.49276098 C4.24507768,7.43289201 4.3686376,7.36922797 4.52158349,7.29301701 C3.99687804,6.9009643 3.52222901,6.4964421 3.09501403,6.03871165 C2.79436698,5.71659643 2.49896467,5.38874989 2.25007088,5.02465668 C2.13561213,4.85736433 2.00703885,4.80616978 1.80958979,4.82189216 C1.38970202,4.85535063 0.96788604,4.8659613 0.546378573,4.87990233 C0.47102399,4.88238074 0.36697759,4.92606263 0.329415991,4.81329519 C0.291005979,4.697817 0.381940527,4.65034005 0.459608966,4.59473084 C1.92659378,3.54264784 2.82290454,2.11508646 3.20708179,0.356657994 Z M5.67851158,6.29205113 C5.73095899,6.33666242 5.77214563,6.35648966 5.81194395,6.35648966 C5.85513593,6.35648966 5.89678535,6.33317716 5.94984978,6.29274818 C6.58646874,5.80760037 7.14140858,5.24143968 7.63171471,4.61014342 C8.00316575,4.13173377 8.34037173,3.63063122 8.62713564,3.09792901 C8.60237738,3.08081253 8.59566719,3.07213811 8.58895701,3.07213811 C7.06374015,3.069195 5.53852328,3.0673362 4.01338354,3.06315389 C3.93332412,3.06292154 3.87455217,3.08011548 3.82094784,3.14618046 C3.70911146,3.28388685 3.59334152,3.41965698 3.467622,3.54458409 C3.36272719,3.64883201 3.36064472,3.72837333 3.44887976,3.85244849 C4.09367435,4.75722127 4.83210299,5.57308128 5.67851158,6.29205113 Z" id="path-11"></path>
        <path d="M0.038332884,0.349455129 C0.037330213,0.0912362903 0.12302002,0.0103783217 0.376927172,0.0103783217 L0.379935185,0.0103783217 C2.51423612,0.0157223828 4.64861419,0.0154900323 6.78306939,0.0152576818 C7.51447933,0.0151802317 8.24581214,0.0151027815 8.97729921,0.0151802317 C9.31373389,0.015335132 9.3404975,0.0419005374 9.3388778,0.38818021 C9.32946812,2.29662964 9.36818664,4.20531142 9.29190652,6.1133736 C9.2626748,6.84403843 9.27270151,6.84450313 8.55409491,6.84450313 C7.24329539,6.84458058 5.9323416,6.84450313 4.62146495,6.84450313 L4.62146495,6.89879569 C3.19805775,6.89879569 1.77457343,6.89167028 0.351320497,6.90522406 C0.0926313757,6.90770246 0.0380243699,6.81832497 0.0388727838,6.58318628 C0.0453515811,4.50535335 0.046045738,2.42744296 0.038332884,0.349455129 Z M1.86296274,5.37659022 C1.86180581,5.5606118 1.91332768,5.60499074 2.08401313,5.60499074 C2.08763817,5.60499074 2.09134034,5.60499074 2.09504251,5.60491329 C2.71986081,5.59833003 3.34491049,5.59910453 3.96980592,5.59980158 C4.21561457,5.60003393 4.4613461,5.60042118 4.70715476,5.60018883 C5.58719139,5.60018883 6.46738228,5.59159186 7.34726466,5.60622995 C7.56654109,5.6098701 7.60680219,5.54031986 7.60471972,5.33918179 C7.59083658,4.07070304 7.58428066,2.80214685 7.58937114,1.5336681 C7.59014243,1.33214278 7.51517349,1.31022438 7.34672476,1.31068908 C5.59598404,1.31572334 3.8451662,1.31680765 2.09434836,1.30952733 C1.9101654,1.30875283 1.86226858,1.35777878 1.86342551,1.54164547 C1.87136975,2.81988293 1.87198678,4.09835275 1.86296274,5.37659022 Z" id="path-13"></path>
        <path d="M2.83084878,0.342639515 C2.37494198,2.16976628 1.63142286,3.87529628 0.539359876,5.40609873 C0.16790883,5.92656381 -0.00886978202,6.43843193 0.0427292108,7.06632039 C0.0642480733,7.32825684 0.122248735,7.42514699 0.399140191,7.42414014 C1.27925395,7.42073233 2.15821079,7.38502781 3.08213356,7.35466734 C2.45854932,8.43130204 1.78321183,9.41259559 0.996963499,10.3021881 C0.554785583,10.8025162 0.344610314,11.3102794 0.417265398,11.9720136 C0.4467285,12.2413078 0.524705453,12.328904 0.787482387,12.323405 C2.02354436,12.2973818 3.25991484,12.2918828 4.49589969,12.263536 C4.9064549,12.2541646 5.31808992,12.2329432 5.7269483,12.1735389 C5.92030955,12.1454245 6.00653926,12.0741704 5.99404443,11.8670687 C5.97815595,11.6046675 5.97969853,11.3400978 5.99350453,11.0774643 C6.00437966,10.8683488 5.93218735,10.7920604 5.72000673,10.8039103 C5.06549395,10.8406991 4.41044126,10.8717566 3.75515719,10.889028 C3.24826843,10.9024269 2.7409169,10.8917388 2.22430995,10.8917388 C2.42098772,10.6517982 2.6111867,10.4222359 2.79891756,10.1905825 C4.30724328,8.32821587 5.491552,6.27532189 6.38115257,4.04940425 C6.48026275,3.80117648 6.44779163,3.75137603 6.18162104,3.74905252 C6.03885612,3.74773587 5.89609119,3.74897507 5.75332626,3.75005937 C5.50250425,3.75215053 5.25168224,3.75416423 5.00140013,3.74301141 C4.7970095,3.73394974 4.70669198,3.80946365 4.63287997,3.99511168 C4.40434811,4.56893993 4.15260056,5.13355161 3.91350209,5.70319755 C3.86421695,5.82076689 3.8097642,5.91672764 3.66615086,5.93485098 C3.04727146,6.01245604 2.4287777,6.09432086 1.80727593,6.05087132 C1.79948595,6.02964998 1.79131033,6.0178001 1.79424121,6.01315309 C1.8298746,5.95808603 1.86573937,5.90301896 1.90422651,5.8498107 C3.09987312,4.19408115 3.96201594,2.37431215 4.55659985,0.422490631 C4.64776578,0.123068307 4.61637446,0.0800834671 4.30022458,0.0787668143 C4.17226833,0.0783021134 4.04438922,0.079076615 3.91643297,0.0798511166 C3.66954452,0.0812452195 3.42273319,0.0827167726 3.17623038,0.0751266567 C3.16728347,0.0748943062 3.15864507,0.0747394059 3.1500838,0.0747394059 C2.96644075,0.0747394059 2.8809052,0.141811246 2.83084878,0.342639515 Z" id="path-15"></path>
        <path d="M6.45535023,0.0457730455 C6.20607079,0.0470896982 6.17845877,0.118498747 6.29939632,0.356967795 C6.52761967,0.807263034 6.75815687,1.25639652 7.00643364,1.74255119 C6.91696454,1.74673349 6.8612006,1.75161285 6.80543667,1.75161285 C4.68779549,1.75207756 2.57000006,1.75192265 0.452281755,1.75192265 C0.377389943,1.75192265 0.302343874,1.75192265 0.227452062,1.75246481 C0.0815248661,1.75362656 0.0114921524,1.81767784 0.0109522526,1.97234581 L0.0109522526,1.97606342 C0.0148086796,2.926222 0.0148086796,3.87638059 0.0109522526,4.82646172 L0.0109522526,4.83079893 C0.0114921524,4.983763 0.078516853,5.05176424 0.225292463,5.05199659 C0.415491441,5.05230639 0.605767548,5.05230639 0.795966526,5.05222894 C1.06491374,5.05222894 1.33386096,5.05215149 1.6028853,5.05308089 C1.76570365,5.05362304 1.83450231,4.985312 1.83141717,4.81368244 C1.82293303,4.35293143 1.84175239,3.89132847 1.82293303,3.43111961 C1.81344622,3.20233183 1.86635639,3.13510509 2.10761447,3.13587959 C5.23725921,3.14532851 8.36690395,3.14215306 11.4967029,3.14215306 C12.3868434,3.14215306 13.277061,3.14834907 14.1672015,3.13727369 C14.366116,3.13479529 14.4194118,3.19125646 14.4132415,3.38751517 C14.3987414,3.84795638 14.4167123,4.30948189 14.4049116,4.77015545 C14.3996669,4.97686993 14.4737874,5.0580377 14.6777924,5.0547848 C15.0992999,5.04789173 15.5212701,5.04518098 15.9426233,5.05579165 C16.1575806,5.06113571 16.2312383,4.983763 16.2312383,4.7708525 L16.2312383,4.76891625 C16.2312383,4.76566334 16.2312383,4.76248789 16.2311612,4.75923498 C16.2205175,3.8844354 16.226842,3.00948093 16.2266877,2.1346039 C16.2266877,1.75238736 16.2263021,1.75207756 15.8347205,1.75207756 C13.6701852,1.75192265 11.505727,1.7493668 9.34111453,1.75656966 C9.15893692,1.75718927 9.05489052,1.70800841 8.96665547,1.54606013 C8.73341876,1.11838033 8.4808228,0.701388663 8.23763651,0.279207832 C8.17979011,0.178832423 8.12178945,0.0981293547 7.98419213,0.0950313483 C7.48786998,0.0839559751 6.99185635,0.0565386179 6.49545707,0.0461602963 C6.48627877,0.0459279458 6.47740899,0.0458504957 6.46869346,0.0457730455 L6.45535023,0.0457730455 Z" id="path-17"></path>
        <path d="M1.55599115,0.0428299393 C1.19117316,0.0539827626 0.825429628,0.0470122481 0.459994609,0.045540695 C0.287843709,0.0448436436 0.220587622,0.106106721 0.263625347,0.255043382 C0.301572589,0.386708657 0.327564907,0.520852337 0.357182266,0.654144065 C0.696547839,2.17720149 1.10471207,3.68283263 1.91062818,5.08607466 C1.96546657,5.18149326 1.95436006,5.25716207 1.90507492,5.34832091 C1.38731104,6.30591471 0.803447994,7.23376764 0.193361248,8.1502354 C0.13358663,8.24000014 0.0741205263,8.32651197 0.076511511,8.43920196 C0.083375951,8.76743574 0.0785939816,9.09590188 0.0792110099,9.42421311 C0.0792881384,9.51366805 0.0837615937,9.61776106 0.193052734,9.64905093 C0.308051386,9.68212215 0.337745874,9.57276252 0.389576252,9.51134454 C1.20960688,8.53849306 1.96808894,7.53125371 2.70435797,6.46337088 C3.40992985,7.54511729 4.22456148,8.53756366 5.05785822,9.51924446 C5.10675772,9.57702228 5.13514102,9.66880072 5.23162882,9.65284599 C5.34493065,9.63410305 5.33960878,9.52861593 5.34192263,9.45503827 C5.35017539,9.19093322 5.33382414,8.92605367 5.34901846,8.66225842 C5.36259308,8.42952069 5.33490394,8.02801905 5.34192263,7.90487329 C5.34901846,7.78064323 4.27037584,6.2544878 3.78091813,5.34832091 C3.73556655,5.26436493 3.47116991,4.95835934 3.53618927,4.84892227 C4.4329628,3.33903137 4.86549965,1.98086533 5.22383884,0.328156335 C5.26201747,0.151879767 5.21057273,0.0899196376 5.00849596,0.0927852936 C4.69936477,0.0972774029 4.38861389,0.110521381 4.08148804,0.0888353353 C3.81855685,0.0702472965 3.71767272,0.160631635 3.67964835,0.36928237 C3.58161798,0.905547289 3.49785639,1.09189238 3.27472352,1.68485081 C3.05159066,2.2777318 2.94731287,2.34031153 2.71353627,2.89942425 C2.54624447,2.54454761 2.37355367,2.28942678 2.27668022,1.95933419 C2.05401013,1.19993535 1.95590263,1.04797814 1.7928529,0.278355881 C1.76940582,0.168454101 1.77048562,0.0425975889 1.57118547,0.0425975889 C1.56624925,0.0425975889 1.56123589,0.042675039 1.55599115,0.0428299393 Z" id="path-19"></path>
        <path d="M1.29622223,0.0433720905 C0.959479029,0.0598689749 0.622658698,0.0738874541 0.285915495,0.0899970877 C0.141299484,0.0968901521 0.0916287047,0.159779683 0.121246064,0.282305839 C0.516221314,1.90945628 0.948218262,3.23145309 1.81522017,4.73538033 C1.88756674,4.86108194 1.88787526,5.25259251 1.81522017,5.38286368 C1.35962189,6.19709723 0.831985554,7.01481603 0.285915495,7.84399746 C0.121246064,8.09408404 0.0227529191,8.90421273 0.0105666099,9.48640559 C0.0094096818,9.54433831 0.0219816337,9.62597078 0.105280456,9.64726958 C0.209789627,9.67398988 0.24711984,9.59150546 0.293319835,9.53403744 C0.457449367,9.32987881 0.619804942,9.12471334 0.783240317,8.92009001 C1.41785394,8.1256837 2.02570396,7.31609716 2.61056967,6.50062441 C2.6841503,6.51843795 2.68962642,6.56227474 2.71122241,6.59650771 C3.36542668,7.63317812 4.15769104,8.59208857 4.9788786,9.53465704 C5.02754671,9.59049861 5.06464553,9.67701044 5.16722649,9.64626272 C5.25569293,9.61985222 5.26988458,9.53403744 5.27119576,9.46379014 C5.27659476,9.19945274 5.26024351,8.93441829 5.27798307,8.67085539 C5.29418007,8.42890108 5.21944251,8.2228062 5.0764462,8.01438782 C4.51811271,7.20123857 4.18993077,6.22869689 3.70263266,5.38286368 C3.58208075,5.17359334 3.4741008,4.95177608 3.6027512,4.73538033 C4.47877715,3.26220081 4.8721327,1.86817535 5.20694769,0.250938523 C5.23787623,0.101769512 5.1761734,0.0365564763 5.0040225,0.0441465921 C4.7326843,0.0558415665 4.46150036,0.070944348 4.19016216,0.0819422709 C3.77027439,0.099213657 3.7738223,0.0988264062 3.70263266,0.442472773 C3.48081098,1.51422811 3.20129715,2.1330549 2.61056967,3.01095248 C2.52464848,2.8261564 2.2325627,2.40521477 2.17193967,2.26626918 C1.77642452,1.35870818 1.75883921,1.3165753 1.55961619,0.36409321 C1.53377813,0.240637652 1.58136644,0.0425975889 1.32352573,0.042675039 C1.31481021,0.042675039 1.30563191,0.0429073895 1.29622223,0.0433720905 Z" id="path-21"></path>
        <path d="M6.18601737,0.0850402774 C6.11212823,0.0951087984 6.03870186,0.109514528 5.96550687,0.125159461 C4.23736482,0.494132031 2.49441409,0.775508468 0.741668034,0.993453222 C0.0723465699,1.0766347 0.0707268706,1.06385542 0.0707268706,1.73937573 C0.0707268706,1.88986139 0.0804450665,2.04104411 0.0683358858,2.19052292 C0.0521388926,2.39166099 0.113841724,2.47894732 0.333041033,2.47406796 C0.745832975,2.46508374 1.15577116,2.43232232 1.56470668,2.38314147 C2.97808716,2.21344817 4.33755479,1.78909873 5.72409455,1.49238716 C5.88768418,1.45737969 5.9812411,1.37752857 6.03553959,1.21550284 C6.13642372,0.913911907 6.24494357,0.613327829 6.3747509,0.323276974 C6.45990081,0.132672127 6.40930449,0.0772952612 6.28350784,0.0772952612 C6.25466177,0.0772952612 6.22195927,0.0802383674 6.18601737,0.0850402774 Z" id="path-23"></path>
        <path d="M4.58444325,0.0598689749 C3.34776425,0.0598689749 2.21829392,0.511093616 1.39594943,1.23765358 C0.556790925,1.97892908 0.0356333852,3.00491137 0.0356333852,4.13630333 L0.0356333852,6.2790395 C0.0356333852,7.41004421 0.556790925,8.4360265 1.39594943,9.1777667 C2.21829392,9.90432666 3.34776425,10.3555513 4.58444325,10.3555513 L7.84875442,10.3555513 C8.1943674,10.3555513 8.4748839,10.0816875 8.4748839,9.74485678 C8.4748839,9.40763878 8.1943674,9.13416226 7.84875442,9.13416226 L4.58444325,9.13416226 C3.66375988,9.13416226 2.83123442,8.80546377 2.23179141,8.27616937 C1.64923956,7.76104834 1.28727532,7.05392837 1.28727532,6.2790395 L1.28727532,4.13630333 C1.28727532,3.36102721 1.64923956,2.65382979 2.23179141,2.13925091 C2.83123442,1.60995651 3.66375988,1.28118057 4.58444325,1.28118057 L7.68254242,1.28118057 C8.02807827,1.28118057 8.30859477,1.0077815 8.30859477,0.670563499 C8.30859477,0.333268045 8.02807827,0.0598689749 7.68254242,0.0598689749 L4.58444325,0.0598689749 Z" id="path-25"></path>
        <path d="M0.0674103434,0.678540866 L0.0679502431,9.38726938 L0.0679502431,12.2064553 C0.0679502431,12.5437507 0.347926841,12.8170723 0.693077054,12.8170723 C1.03961558,12.8170723 1.31912941,12.5437507 1.31912941,12.2064553 L1.31959218,9.37162445 L1.31959218,6.50093421 C1.3299274,5.73417761 1.27778851,5.13223496 1.82239313,4.60572876 C2.36707487,4.07922256 3.44756858,3.89194807 4.29983894,3.89194807 C5.15303484,3.89194807 6.4268898,3.89628528 6.98506904,4.41845427 C7.53715512,4.93551155 7.47606932,5.75594111 7.47606932,6.53725834 L7.47606932,12.2064553 C7.47606932,12.5437507 7.75650869,12.8170723 8.10212167,12.8170723 C8.44773466,12.8170723 8.72771125,12.5437507 8.72771125,12.2064553 L8.72771125,6.53725834 C8.72771125,5.41198494 8.89253494,4.26177259 8.10212167,3.52196865 C7.31826433,2.78781857 5.58279506,2.81120851 4.3975608,2.81120851 C3.21286643,2.81120851 2.10398942,2.78781857 1.31959218,3.52196865 L1.31959218,3.67888267 L1.31959218,0.678540866 C1.31959218,0.341245412 1.03915281,0.0678463415 0.693539826,0.0678463415 C0.347926841,0.0678463415 0.0674103434,0.341245412 0.0674103434,0.678540866 Z" id="path-27"></path>
        <path d="M1.2693815,1.25670632 C2.02562683,0.518296481 3.07033289,0.0599464251 4.21993377,0.0599464251 C5.36922614,0.0599464251 6.41385507,0.518296481 7.17110307,1.25670632 C7.92773404,1.99503871 8.39783249,3.01482499 8.39783249,4.13638078 L8.39783249,5.20774886 L8.39744685,5.2233938 L8.39698408,5.23903873 L8.39598141,5.25460621 L8.39467022,5.27025114 L8.39281914,5.28535393 L8.39089092,5.30045671 L8.38811429,5.31563694 L8.38533767,5.33081717 L8.38155837,5.34591995 L8.37770194,5.36009333 L8.37399977,5.37480886 L8.36929493,5.38944694 L8.36520712,5.40362032 L8.35957673,5.4177937 L8.35433199,5.43150238 L8.34870161,5.44528851 L8.34222281,5.45899719 L8.33605253,5.47224117 L8.32911096,5.48587239 L8.32209226,5.49911637 L8.31499644,5.5119731 L8.31453367,5.5119731 L8.3070522,5.52421022 L8.29910796,5.5369895 L8.29070095,5.54930408 L8.28229394,5.56161865 L8.27334703,5.57346853 L8.26447725,5.5848537 L8.25468192,5.59616142 L8.24527224,5.60746915 L8.24473234,5.60746915 L8.23501414,5.61838962 L8.22514169,5.62931009 L8.22460179,5.62931009 L8.2143437,5.63968842 L8.20362283,5.64960204 L8.19228493,5.66005781 L8.18164119,5.66942928 L8.16991766,5.67895565 L8.15819412,5.68840457 L8.14647058,5.69738879 L8.1338215,5.7059083 L8.12163519,5.71388567 L8.10944888,5.72240519 L8.10898611,5.72240519 L8.09633703,5.7299953 L8.08322518,5.73758542 L8.07011333,5.74463338 L8.0565387,5.7517588 L8.04342685,5.75841951 L8.04296408,5.75841951 L8.02938946,5.76453808 L8.01535206,5.77073409 L8.00131467,5.77638795 L7.98727728,5.78157711 L7.98673738,5.78157711 L7.97269998,5.78630157 L7.97231434,5.78630157 L7.95819982,5.79102603 L7.95773704,5.79102603 L7.94315975,5.79528579 L7.94277411,5.79528579 L7.92827394,5.79908085 L7.91331101,5.80287591 L7.91277111,5.80287591 L7.89819381,5.80620626 L7.89780817,5.80620626 L7.88284523,5.80899447 L7.88230533,5.80899447 L7.86741953,5.81131797 L7.8668025,5.81131797 L7.85191669,5.81371893 L7.85145392,5.81371893 L7.83602821,5.81511303 L7.83548831,5.81511303 L7.82052537,5.81658458 L7.8195227,5.81658458 L7.80409699,5.81751399 L7.80363422,5.81751399 L7.78820852,5.81797869 L7.78728297,5.81797869 L7.77232004,5.81844339 L7.77139449,5.81844339 L1.29421689,5.81844339 L1.29421689,6.27911695 C1.29421689,7.06345474 1.6234015,7.77723542 2.15443149,8.29514465 C2.68492158,8.81266663 3.41586875,9.13431716 4.21993377,9.13431716 L7.63935043,9.13431716 C7.98480916,9.13431716 8.26540279,9.40771623 8.26540279,9.74454698 C8.26540279,10.0822297 7.98480916,10.3556288 7.63935043,10.3556288 L4.21993377,10.3556288 C3.07033289,10.3556288 2.02616673,9.896814 1.2693815,9.15848161 C0.51221063,8.42053647 0.0425749537,7.40067274 0.0425749537,6.27911695 L0.0425749537,5.20774886 L0.0425749537,4.13638078 C0.0425749537,3.01482499 0.51221063,1.99503871 1.2693815,1.25670632 Z M1.29421689,4.13638078 L1.29421689,4.59713179 L7.14619055,4.59713179 L7.14619055,4.13638078 C7.14619055,3.35165574 6.81608041,2.63787505 6.28551318,2.12043052 C5.75502309,1.60244384 5.02353602,1.28125802 4.21993377,1.28125802 C3.41586875,1.28125802 2.68492158,1.60244384 2.15443149,2.12043052 C1.6234015,2.63787505 1.29421689,3.35165574 1.29421689,4.13638078 Z" id="path-29"></path>
        <path d="M0.0675646004,0.678773216 L0.0675646004,2.52549487 L0.0675646004,3.74727117 L0.0675646004,8.68038176 C0.0675646004,9.80193755 0.537200276,10.8212591 1.2939855,11.5595915 C2.05061648,12.2980014 3.09532254,12.7563514 4.24500055,12.7563514 C4.59061353,12.7563514 4.87059013,12.4830298 4.87059013,12.1457343 C4.87059013,11.8084389 4.59061353,11.5350398 4.24500055,11.5350398 C3.44093552,11.5350398 2.70998836,11.213854 2.17888124,10.6958673 C1.64839114,10.1784228 1.31920654,9.46464209 1.31920654,8.68038176 L1.31920654,3.74727117 L4.23983294,3.74727117 C4.58536879,3.74727117 4.86596242,3.4734074 4.86596242,3.13657664 C4.86596242,2.79889394 4.58536879,2.52549487 4.23983294,2.52549487 L1.31920654,2.52549487 L1.31920654,0.678773216 C1.31920654,0.341555213 1.03876717,0.068078692 0.693077054,0.068078692 C0.34746407,0.068078692 0.0675646004,0.341555213 0.0675646004,0.678773216 Z" id="path-31"></path>
        <path d="M3.98476886,0.394143872 C3.61532315,0.661889081 3.29971317,1.09894034 3.10766311,1.7033614 L3.10303539,1.72001319 L0.0479739515,12.0440423 C-0.0442717816,12.3680938 0.15101768,12.7033755 0.483056042,12.7933726 C0.815017275,12.8826726 1.15870205,12.6925325 1.25056214,12.3685585 L4.30222992,2.05668904 C4.40997849,1.71854164 4.56169033,1.49292931 4.72790233,1.37226196 C4.8094272,1.31316749 4.89180048,1.28381388 4.9686205,1.28381388 C5.04358944,1.28435603 5.12735104,1.31502629 5.21165253,1.37566977 C5.3821066,1.49811848 5.53713497,1.72752585 5.64526918,2.06528601 L5.64573195,2.06482131 L8.69516301,12.3685585 C8.78694597,12.6925325 9.13063074,12.8826726 9.46259198,12.7933726 C9.79463034,12.7033755 9.9899198,12.3680938 9.89767407,12.0440423 L6.84307539,1.72187199 L6.83798491,1.70250945 C6.64554921,1.10219325 6.32569715,0.662741033 5.95015829,0.39313702 C5.64997402,0.17743832 5.31284517,0.0681561422 4.9686205,0.0672267402 L4.96630665,0.0672267402 C4.62385593,0.0673041904 4.28657283,0.175579516 3.98476886,0.394143872 Z" id="path-33"></path>
        <path d="M4.34380221,0.00952636987 C3.15903071,0.00952636987 1.85671533,-0.0267203057 1.07239521,0.707352326 C0.281904811,1.44723372 0.0136517515,2.4688788 0.0136517515,3.59376495 L0.0136517515,9.26334912 C0.0136517515,9.60064458 0.294168249,9.8739662 0.639318462,9.8739662 C0.984854319,9.8739662 1.26537082,9.60064458 1.26537082,9.26334912 L1.26537082,3.59376495 C1.26537082,2.81329967 1.50277246,2.10184248 2.05485854,1.58524991 C2.61303778,1.06308092 3.49153185,1.11923228 4.34380221,1.11923228 C5.19645821,1.11923228 6.1796157,1.06308092 6.73787207,1.58524991 C7.28995815,2.10184248 7.4222336,2.81329967 7.4222336,3.59376495 L7.4222336,9.26334912 C7.4222336,9.60064458 7.70267297,9.8739662 8.04828595,9.8739662 C8.39382181,9.8739662 8.67387553,9.60064458 8.67387553,9.26334912 L8.67387553,3.59376495 C8.67387553,2.4688788 8.39382181,1.44723372 7.60340854,0.707352326 C6.88950678,0.0392672319 5.7564114,0.00921656923 4.66535109,0.00921656923 C4.55767965,0.00921656923 4.45023959,0.00952636987 4.34380221,0.00952636987 Z" id="path-35"></path>
        <path d="M4.38637716,0.00681561422 C3.20160567,0.00681561422 1.89929028,-0.0294310614 1.11489304,0.70471902 C0.324479765,1.44444551 0.0562267052,2.46624549 0.0562267052,3.59105419 L0.0562267052,9.26056092 C0.0562267052,9.59785637 0.336743203,9.87125544 0.681816288,9.87125544 C1.02742927,9.87125544 1.30794577,9.59785637 1.30794577,9.26056092 L1.30794577,3.59105419 C1.30794577,2.81058891 1.54534741,2.09913173 2.09751063,1.58253915 C2.65568987,1.06037016 3.5341068,1.11652153 4.38637716,1.11652153 C5.23911029,1.11652153 6.22234491,1.06037016 6.78044702,1.58253915 C7.33253311,2.09913173 7.46488568,2.81058891 7.46488568,3.59105419 L7.46488568,9.26056092 C7.46488568,9.59785637 7.74532505,9.87125544 8.09093803,9.87125544 C8.43655102,9.87125544 8.71652761,9.59785637 8.71652761,9.26056092 L8.71652761,3.59105419 C8.71652761,2.46624549 8.43647389,1.44444551 7.64606062,0.70471902 C6.93208173,0.0365564763 5.79906349,0.00650581357 4.70792604,0.00650581357 C4.6002546,0.00650581357 4.49281454,0.00681561422 4.38637716,0.00681561422 Z" id="path-37"></path>
    </defs>
    <g id="Page-1" stroke="none" stroke-width="1" fill="none" fill-rule="evenodd">
        <g id="-新版logo" transform="translate(-111.000000, -324.000000)">
            <g id="Page-1" transform="translate(111.000000, 324.000000)">
                <g id="Group-3" transform="translate(0.000000, 0.009139)">
                    <mask id="mask-2" fill="white">
                        <use xlink:href="#path-1"></use>
                    </mask>
                    <g id="Clip-2"></g>
                    <polygon id="Fill-1" fill="#FEFEFE" mask="url(#mask-2)" points="-0.388037993 35.7695826 35.7986002 35.7695826 35.7986002 -0.396389927 -0.388037993 -0.396389927"></polygon>
                </g>
                <path d="M76.5167326,2.69022362 L73.6785566,2.69022362 C72.8727176,2.69022362 72.0668015,2.69192752 71.2609626,2.68944912 C70.9288471,2.68844226 70.8848838,2.61571656 71.0565719,2.33170682 C71.2355101,2.03607955 71.319426,1.63086031 71.6012537,1.46457481 C71.8833899,1.29797951 72.2766683,1.41531651 72.6208158,1.4136126 C74.7008954,1.40331173 76.7810521,1.39974903 78.861286,1.39455986 C79.2362078,1.39355301 79.2362078,1.39479221 79.2365934,1.75439331 C79.2373647,2.66381311 79.2275694,2.65219559 78.5285534,3.24375992 C76.926208,4.6001446 75.2459628,5.8456981 73.4074498,6.91985439 C73.5221399,6.99312224 73.6244895,6.96709899 73.7182778,6.96717644 C75.7329524,6.96895779 77.7475498,6.96841564 79.7622244,6.96872544 C80.1474815,6.96872544 80.1478671,6.96942249 80.1478671,7.35829976 C80.1480985,9.98308573 80.14779,12.6077943 80.1487927,15.2325028 C80.149024,15.5436975 80.1305903,15.8524139 80.0525362,16.1543921 C79.8151346,17.073648 79.1650181,17.6368656 78.1917331,17.7257009 C77.3039065,17.8067913 76.413149,17.7175687 75.5236255,17.7271725 C75.3097481,17.7294185 75.2560666,17.6203687 75.3844857,17.438903 C75.3952837,17.4237228 75.4023023,17.4057543 75.4122519,17.3899545 C75.5876422,17.1135349 75.7054946,16.7475828 75.9546969,16.5856346 C76.2074472,16.4215951 76.5921643,16.5457477 76.9189579,16.5384674 C77.1622214,16.532891 77.405022,16.5436566 77.6458944,16.4901385 C78.0818249,16.3930935 78.3687431,16.0952201 78.4467201,15.6544513 C78.4912232,15.4021961 78.4818135,15.1487792 78.4816593,14.8950524 C78.480888,12.7783395 78.47788,10.6616266 78.4861327,8.54491368 C78.4870583,8.32642678 78.4349194,8.25114522 78.2110924,8.26679015 C77.9220146,8.28700464 77.6293889,8.28677229 77.340234,8.2670225 C77.1070745,8.25099032 77.0295603,8.30226232 77.0282491,8.56365662 C77.0199963,10.1200951 76.8304144,11.653221 76.3632468,13.1439043 C75.759716,15.0694702 74.7187892,16.7104842 73.2005139,18.0405358 C73.1176008,18.1130292 73.032528,18.2276554 72.9133644,18.1670894 C72.8141771,18.1167468 72.8307597,17.9884893 72.833305,17.8846287 C72.8334592,17.8752572 72.8343848,17.8656534 72.8331507,17.8563594 C72.7428332,17.1175623 72.9504632,16.5130638 73.4122318,15.894934 C74.4160597,14.5514835 74.9042834,12.970261 75.1827174,11.3247549 C75.3398282,10.3965147 75.4091668,9.46068439 75.4271377,8.51943258 C75.4308399,8.32201212 75.3854883,8.25912258 75.1845685,8.2671774 C74.7915986,8.28282233 74.3971632,8.28251253 74.0041933,8.2671774 C73.811372,8.25958729 73.7505947,8.31109164 73.7477409,8.51153266 C73.7292301,9.8496391 73.5726591,11.1701644 73.2146285,12.4633497 C72.627526,14.5837802 71.501835,16.3643594 69.8687924,17.826541 C69.8067039,17.8821503 69.7475464,17.9588259 69.6519841,17.9115039 C69.5648288,17.8684416 69.55889,17.7811552 69.5592756,17.6923974 C69.5613581,17.3443363 69.5632091,16.9961979 69.5584272,16.6482143 C69.5568075,16.5367635 69.5968372,16.4521879 69.6647103,16.3683094 C70.9980314,14.718621 71.7013665,12.8082353 71.9848139,10.7227348 C72.0862379,9.97634757 72.145087,9.22802411 72.1521828,8.47482128 C72.153494,8.32015331 72.1205601,8.25950984 71.9545795,8.2679519 C71.6834727,8.28197038 71.4109776,8.2645441 71.1396394,8.27407047 C70.9376397,8.28104098 70.8460881,8.20575942 70.8544952,7.99579204 C70.8642905,7.75159168 70.8658331,7.50622956 70.853801,7.26226156 C70.8446227,7.07808507 70.9215199,6.97732241 71.0759312,6.88252341 C72.9553994,5.72859346 74.7062944,4.40086534 76.3516004,2.93117107 C76.4188565,2.87114719 76.4952138,2.82134674 76.5672518,2.76666693 C76.5504378,2.74126327 76.5336238,2.71570472 76.5167326,2.69022362" id="Fill-4" fill="#FEFEFE"></path>
                <g id="Group-8" transform="translate(69.492814, 1.325792)">
                    <mask id="mask-4" fill="white">
                        <use xlink:href="#path-3"></use>
                    </mask>
                    <g id="Clip-7"></g>
                    <polygon id="Fill-6" fill="#FEFEFE" mask="url(#mask-4)" points="-0.35957325 17.2852496 11.0810572 17.2852496 11.0810572 -0.377569538 -0.35957325 -0.377569538"></polygon>
                </g>
                <path d="M98.6777056,1.3047564 C99.0358134,1.30483385 99.0389757,1.30777696 99.0389757,1.66621631 C99.0392071,6.22981218 99.0388985,10.7933306 99.039747,15.3570039 C99.0399012,15.6494557 99.0237042,15.9399713 98.9578365,16.2250653 C98.7159614,17.2725013 97.9954265,17.8927997 96.918018,17.956696 C95.8420749,18.0206699 94.7636636,18.0044828 93.686255,18.0126151 C93.5904614,18.0133121 93.491197,18.0179591 93.4406778,17.9171965 C93.3917783,17.8194544 93.4789335,17.7628383 93.526599,17.6984772 C93.7437929,17.4041666 93.9669258,17.1141932 94.180649,16.8173267 C94.2651047,16.6999897 94.3627495,16.6531324 94.5092937,16.6509638 C95.108891,16.642057 95.7081026,16.6188994 96.3075456,16.6026349 C96.9479438,16.585286 97.2874637,16.2430338 97.2875408,15.5926848 C97.2889291,11.3678559 97.2862296,7.84836565 97.2908573,3.62353679 C97.2910116,3.43982501 97.2964106,3.10926772 97.1122276,3.10950007 C93.2321993,3.11499903 89.2407203,3.11956859 85.3605377,3.10950007 C85.1055508,3.10880302 85.188464,3.45717384 85.1885411,3.62353679 C85.1902379,8.50707928 85.1885411,12.7374071 85.1885411,17.6209496 C85.1885411,18.0645841 85.1883097,18.0646616 84.7570841,18.0648165 C84.3822394,18.0648939 84.0073175,18.0602469 83.6325499,18.0665978 C83.4332498,18.0700056 83.330746,17.99333 83.3449376,17.7849116 C83.3486398,17.7287602 83.3454004,17.6720667 83.3454004,17.6156055 C83.3454004,12.3275408 83.3454004,7.03932127 83.3455547,1.75117913 C83.3455547,1.3047564 83.3456318,1.3046015 83.8036982,1.3046015 L91.1985511,1.3046015 C93.6915769,1.3046015 96.1846027,1.30452405 98.6777056,1.3047564" id="Fill-9" fill="#FEFEFE"></path>
                <g id="Group-13" transform="translate(83.298822, 1.248342)">
                    <mask id="mask-6" fill="white">
                        <use xlink:href="#path-5"></use>
                    </mask>
                    <g id="Clip-12"></g>
                    <polygon id="Fill-11" fill="#FEFEFE" mask="url(#mask-6)" points="-0.380243699 17.2452079 16.1660647 17.2452079 16.1660647 -0.370599023 -0.380243699 -0.370599023"></polygon>
                </g>
                <path d="M55.9114346,9.20496719 L55.7678212,9.20496719 L48.9407114,9.20496719 C48.9033041,9.20496719 48.8657425,9.2076005 48.8284894,9.20465739 C48.7324644,9.19706728 48.6991448,9.2338561 48.7089402,9.33446386 C48.7994891,10.2741667 48.972874,11.1904795 49.4418927,12.0260119 C50.0575327,13.1227062 51.0049025,13.8749796 52.0283211,14.5523587 C52.1937618,14.6618732 52.3145451,14.6487841 52.4803715,14.5632792 C54.6465265,13.4462155 55.5214727,11.4983439 55.9114346,9.20496719 M48.9016073,14.1397817 C47.7899536,13.0065309 47.2007687,11.6243553 46.9544202,10.075507 C46.9190182,9.85307015 46.8814566,9.62962643 46.869733,9.40525331 C46.8604776,9.23006105 46.7876682,9.20001038 46.6274723,9.20093978 C45.615623,9.2066711 44.6036194,9.20109468 43.5916158,9.19807413 C43.229266,9.19698983 43.2047391,9.17197342 43.2031194,8.82003989 C43.2020396,8.59435012 43.213686,8.3678084 43.2001114,8.14289313 C43.1843771,7.88467429 43.2962907,7.79893696 43.5451845,7.80033106 C44.5196264,7.80536532 45.4941455,7.79692326 46.4685875,7.79398015 C46.841504,7.79289585 46.841504,7.79351545 46.841504,7.4329075 C46.841504,6.90616895 46.8478285,6.37919805 46.8382646,5.85253695 C46.8347938,5.6600733 46.8923317,5.58339764 47.0936372,5.58773485 C47.5994461,5.59896512 48.105795,5.59857787 48.6115268,5.58788975 C48.8100557,5.58370744 48.876849,5.65403219 48.868442,5.85021344 C48.8437608,6.42334464 48.836048,6.99725034 48.812061,7.57053643 C48.805428,7.72814751 48.8238617,7.79893696 49.0146006,7.79831736 C51.2635145,7.79057234 53.5125056,7.79126939 55.7614195,7.79738796 C55.931488,7.79785266 55.9566319,7.73720918 55.9546265,7.58804017 C55.9469908,7.00484045 55.9563234,6.42156329 55.9486876,5.83828612 C55.9462195,5.65821449 56.0025234,5.58502409 56.1897143,5.5884319 C56.6861136,5.59749357 57.1829757,5.59726122 57.6794521,5.5885868 C57.864252,5.58525644 57.9292714,5.65325768 57.9217899,5.83619497 C57.8988828,6.39995469 57.8981886,6.96495362 57.8637893,7.52793884 C57.8495976,7.76059913 57.9285772,7.80040851 58.1387525,7.79862716 C59.0569678,7.79072724 59.9752602,7.80009871 60.8935525,7.80381632 C61.2477268,7.80528787 61.2562881,7.81419464 61.2575993,8.16829678 C61.2585248,8.40335802 61.2441018,8.63958101 61.2616099,8.87355795 C61.2801208,9.12434157 61.1737605,9.20248879 60.9371302,9.20124959 C59.990763,9.19613787 59.0441644,9.21402886 58.0981829,9.19683493 C57.8509859,9.19234282 57.7899773,9.27203903 57.7689983,9.49749645 C57.588209,11.4405661 56.7185076,13.0323993 55.2950233,14.3368149 C54.8873989,14.7102796 54.4437556,15.0381261 53.9585399,15.3833989 C54.6515399,15.6026603 55.3209385,15.7698752 55.9941163,15.9216776 C57.626002,16.2896433 59.0292015,16.5642815 60.6836858,16.8093339 C60.8951722,16.8406237 60.979628,16.869745 61.1282547,17.0326227 C61.3938854,17.323448 61.6681545,17.6466476 61.9459715,17.926475 C61.9980332,17.9788313 61.9908603,17.9922302 62.0716139,18.0936899 C62.1523674,18.1951496 62.2075143,18.2488226 62.1155771,18.2334874 C60.5397639,17.96915 58.9918713,17.7110086 57.4198374,17.4249852 C55.7211584,17.115959 54.0248705,16.7877253 52.3731628,16.268267 C52.2597839,16.23264 52.1551204,16.2516152 52.0449809,16.2864678 C49.7596623,17.0090004 47.4200451,17.4876424 45.0548214,17.851116 C44.768366,17.8951851 44.4823733,17.9418876 44.197152,17.9922302 C44.1070659,18.0081849 44.0226872,18.0051644 43.9711654,17.926475 C43.9114679,17.8352387 43.986514,17.770258 44.0386528,17.7053548 C44.0504535,17.6907941 44.0673447,17.679409 44.0759059,17.6632219 C44.4782855,16.9104063 45.1652694,16.7330454 45.9495124,16.619581 C47.4775059,16.3986157 48.9441051,15.9120737 50.4343056,15.3886655 C49.8738125,15.015743 49.3627588,14.6098267 48.9016073,14.1397817" id="Fill-14" fill="#FEFEFE"></path>
                <g id="Group-18" transform="translate(43.191982, 5.585551)">
                    <mask id="mask-8" fill="white">
                        <use xlink:href="#path-7"></use>
                    </mask>
                    <g id="Clip-17"></g>
                    <polygon id="Fill-16" fill="#FEFEFE" mask="url(#mask-8)" points="-0.418422326 13.0773823 19.3964393 13.0773823 19.3964393 -0.424814136 -0.418422326 -0.424814136"></polygon>
                </g>
                <path d="M65.9843215,5.78916723 C65.9843215,5.52575923 65.9927285,5.26196398 65.9820848,4.99886578 C65.9696671,4.69347979 66.1192965,4.27331266 65.9242384,4.11453983 C65.7359676,3.96118851 65.3341279,4.07194224 65.0260765,4.06675308 C65.016744,4.06667563 65.0071801,4.06791484 64.9980018,4.06667563 C64.8806893,4.05064345 64.8353377,4.09138224 64.8360318,4.21987205 C64.8408138,5.26421003 64.8406595,6.30854801 64.8362632,7.35288599 C64.8356462,7.476419 64.8706625,7.51576368 64.9942225,7.51142647 C65.2469727,7.5025197 65.5008027,7.49833739 65.7529359,7.51220097 C65.9297916,7.52203714 65.9948881,7.47804545 65.9892577,7.2849622 C65.9745262,6.78672531 65.9843215,6.28779137 65.9843215,5.78916723 M65.9845529,10.5899155 C65.9845529,10.2708208 65.9870981,9.95172616 65.9837816,9.6327864 C65.9806965,9.34358749 66.0834317,8.94650051 65.9364247,8.79276194 C65.7521646,8.60014339 65.3547213,8.75891622 65.0513747,8.72840086 C64.8783754,8.71112947 64.8323297,8.76929454 64.834335,8.94378976 C64.8437447,9.79752289 64.8331781,10.6515658 64.841508,11.5054539 C64.8443617,11.8010037 64.7083841,12.2069974 64.8999714,12.3622075 C65.0829203,12.5103697 65.4712625,12.3944268 65.7681302,12.412008 C65.9401269,12.422154 65.99242,12.3702624 65.9887178,12.1944505 C65.9772257,11.659812 65.9845529,11.1247863 65.9845529,10.5899155 M67.5046793,5.76221457 C67.5046793,6.0160962 67.5020569,6.27005528 67.5053734,6.52401436 C67.5095384,6.84210217 67.3964679,7.27295742 67.5575123,7.44845949 C67.7399213,7.6470417 68.1746178,7.48246011 68.4974007,7.51235587 C68.6862885,7.52985961 68.7290948,7.46085151 68.7266267,7.27985049 C68.7166,6.53702599 68.7239272,5.79389169 68.7218448,5.05091229 C68.720765,4.73274702 68.712358,4.41458176 68.7072675,4.09649395 C68.375152,4.02973191 68.0390258,4.08944598 67.706139,4.06380998 C67.5458659,4.0514954 67.4980462,4.10586542 67.5012085,4.2668843 C67.5108496,4.76512119 67.5046793,5.26366788 67.5046793,5.76221457 M68.7224618,10.3725903 C68.7224618,9.89294149 68.7167543,9.41321519 68.7258554,8.93372124 C68.7288635,8.77820131 68.6902992,8.71848724 68.5258611,8.72607735 C68.2454989,8.73901153 67.9639026,8.73467432 67.6830776,8.72739401 C67.5575123,8.7241411 67.5007457,8.74954475 67.501517,8.89460891 C67.5071474,10.0138412 67.5062219,11.1329186 67.5022883,12.2521509 C67.5018255,12.3754515 67.5422409,12.4163452 67.6624843,12.4146413 C67.9246442,12.4110011 68.1878068,12.4061218 68.448964,12.425252 C68.6303703,12.4385734 68.6504237,12.3639114 68.669166,12.2041318 C68.7408184,11.5942892 68.7149803,10.9832849 68.7224618,10.3725903 M63.3186821,3.21712481 C63.3186821,2.84505424 63.3280146,2.83576022 63.6949151,2.83552787 C64.3789681,2.83514061 65.0630982,2.8270858 65.7469199,2.84056213 C65.9501536,2.84451208 65.9924971,2.7796863 65.988795,2.58815205 C65.9765315,1.96762135 65.9921886,1.09847564 65.9801566,0.477944947 C65.9755289,0.240018051 66.0408567,0.102698914 66.2965378,0.117724246 C66.5953338,0.135150532 66.8969835,0.137396587 67.195471,0.117724246 C67.4550856,0.10068521 67.515323,0.242031755 67.5108496,0.477944947 C67.499126,1.08910417 67.5147831,1.94763921 67.5014399,2.55879844 C67.4968122,2.77062463 67.5417781,2.84706794 67.7720068,2.84156898 C68.4650839,2.82460739 69.1587779,2.84265328 69.8520093,2.83150046 C70.0951955,2.8275505 70.1814252,2.91166137 70.1811167,3.15841759 C70.1757177,6.31915868 70.1789571,9.47997723 70.1757949,12.6407958 C70.1755635,12.8845314 70.1322944,13.1282671 70.1295949,13.3721576 C70.1274353,13.55889 70.0500753,13.6128727 69.8729111,13.6116335 C69.1703472,13.6067542 68.4673977,13.6207727 67.7648338,13.6110139 C67.5609831,13.6082257 67.4982776,13.655238 67.500283,13.8730278 C67.512315,15.1523496 67.5005143,16.4319037 67.5108496,17.711148 C67.5130092,17.9768796 67.437886,18.0898793 67.1596062,18.0692001 C66.8800152,18.0485984 66.5969535,18.0513866 66.3168998,18.0685805 C66.0531202,18.0848451 65.9783826,17.9740139 65.9801566,17.7219911 C65.9891806,16.4803101 65.9842444,15.2386291 65.9842444,13.9967932 C65.9842444,13.6190688 65.9842444,13.6190688 65.6219716,13.6190688 C64.9754802,13.6190688 64.328526,13.6066767 63.6824974,13.624955 C63.4045261,13.6327 63.3097352,13.5574184 63.312049,13.2640372 C63.3253151,11.5896422 63.3186049,9.91501478 63.3186049,8.24061974 C63.3186049,6.56614725 63.3183736,4.8915973 63.3186821,3.21712481" id="Fill-19" fill="#FEFEFE"></path>
                <g id="Group-23" transform="translate(63.245402, 0.086589)">
                    <mask id="mask-10" fill="white">
                        <use xlink:href="#path-9"></use>
                    </mask>
                    <g id="Clip-22"></g>
                    <polygon id="Fill-21" fill="#FEFEFE" mask="url(#mask-10)" points="-0.358493451 18.4119171 7.36076215 18.4119171 7.36076215 -0.397086978 -0.358493451 -0.397086978"></polygon>
                </g>
                <g id="Group-26" transform="translate(107.979955, 0.318940)">
                    <mask id="mask-12" fill="white">
                        <use xlink:href="#path-11"></use>
                    </mask>
                    <g id="Clip-25"></g>
                    <polygon id="Fill-24" fill="#FEFEFE" mask="url(#mask-12)" points="-0.390347538 10.573651 12.1800618 10.573651 12.1800618 -0.354411939 -0.390347538 -0.354411939"></polygon>
                </g>
                <path d="M113.84403,16.3748772 C114.724067,16.3748772 115.604258,16.3662802 116.48414,16.3809957 C116.703417,16.3845584 116.743678,16.3150082 116.741595,16.1137927 C116.727712,14.8454688 116.721156,13.5768352 116.726247,12.3084339 C116.727018,12.1068311 116.652049,12.0849127 116.4836,12.0853774 C114.732859,12.0904891 112.982042,12.091496 111.231224,12.0842931 C111.046964,12.0834412 110.999221,12.1324671 111.000301,12.3163338 C111.008322,13.5945713 111.008785,14.8730411 110.999915,16.1512786 C110.998681,16.3391727 111.05244,16.3815379 111.231918,16.3796016 C112.102468,16.3703851 112.973249,16.3754193 113.84403,16.3748772 M113.75834,17.673484 C112.334933,17.673484 110.911449,17.6663586 109.488273,17.6799124 C109.229507,17.6823908 109.174977,17.5930133 109.175825,17.3578746 C109.182227,15.2800417 109.182921,13.2021313 109.175208,11.1241435 C109.174206,10.8649178 109.26059,10.7845245 109.516811,10.7850667 C112.382599,10.7921921 115.24831,10.7894039 118.114098,10.789946 C118.450609,10.7900235 118.477373,10.8165889 118.475676,11.1628686 C118.466344,13.071318 118.505139,14.9800772 118.428782,16.8880619 C118.39955,17.6187268 118.409577,17.6191915 117.69097,17.6191915 C116.380171,17.6192689 115.069217,17.6191915 113.75834,17.6191915 L113.75834,17.673484" id="Fill-27" fill="#FEFEFE"></path>
                <g id="Group-31" transform="translate(109.136883, 10.774712)">
                    <mask id="mask-14" fill="white">
                        <use xlink:href="#path-13"></use>
                    </mask>
                    <g id="Clip-30"></g>
                    <polygon id="Fill-29" fill="#FEFEFE" mask="url(#mask-14)" points="-0.386799625 7.33212935 9.76563001 7.33212935 9.76563001 -0.416526969 -0.386799625 -0.416526969"></polygon>
                </g>
                <path d="M104.891759,7.67363809 C103.967836,7.70399855 103.088957,7.73970308 102.208843,7.74311088 C101.931874,7.74411774 101.873951,7.64722758 101.852432,7.38529114 C101.800833,6.75732523 101.977534,6.24553456 102.348986,5.72499202 C103.441203,4.19418958 104.184645,2.48873702 104.640552,0.66161026 C104.692922,0.451410522 104.784088,0.387746489 104.985856,0.394097402 C105.360315,0.405637476 105.735314,0.396188557 106.109927,0.39766011 C106.426077,0.399054212 106.457469,0.441961602 106.366225,0.741383927 C105.771719,2.69320545 104.909499,4.51305189 103.713929,6.168704 C103.675365,6.22191226 103.6395,6.27697932 103.603867,6.33212384 C103.601013,6.33677085 103.609189,6.34862072 103.616979,6.36984207 C104.23848,6.41329161 104.856897,6.33142679 105.475854,6.25374428 C105.619467,6.23569839 105.673843,6.13973764 105.723205,6.02216829 C105.962303,5.45252235 106.213974,4.88783323 106.442506,4.31400498 C106.516395,4.12835694 106.606712,4.05292049 106.811103,4.06198215 C107.203764,4.07933099 107.597737,4.06446056 107.991247,4.06794582 C108.257494,4.07034677 108.289966,4.12014723 108.190855,4.36829754 C107.301178,6.59429264 106.116869,8.64718662 104.608543,10.5094758 C104.420889,10.7412066 104.230613,10.9706915 104.034013,11.2107095 C104.550543,11.2107095 105.057971,11.2213976 105.56486,11.2079213 C106.220067,11.1906499 106.875197,11.1596699 107.529632,11.1228036 C107.74189,11.1109537 107.814005,11.1873196 107.80313,11.396435 C107.789401,11.6590685 107.787782,11.9236383 107.80367,12.1860394 C107.816165,12.3931411 107.729935,12.4643178 107.536651,12.4925097 C107.127793,12.5518365 106.716081,12.5730579 106.305525,12.5824293 C105.069618,12.6107761 103.83317,12.6163525 102.597185,12.6422983 C102.334408,12.6478747 102.256431,12.5602011 102.226891,12.2909069 C102.154313,11.6292502 102.364488,11.1214869 102.806589,10.6211589 C103.592837,9.73148888 104.268252,8.75027278 104.891759,7.67363809" id="Fill-32" fill="#FEFEFE"></path>
                <g id="Group-36" transform="translate(101.809672, 0.318940)">
                    <mask id="mask-16" fill="white">
                        <use xlink:href="#path-15"></use>
                    </mask>
                    <g id="Clip-35"></g>
                    <polygon id="Fill-34" fill="#FEFEFE" mask="url(#mask-16)" points="-0.391118823 12.7504652 6.85780695 12.7504652 6.85780695 -0.352165885 -0.391118823 -0.352165885"></polygon>
                </g>
                <g id="Group-39" transform="translate(44.117524, 0.241490)">
                    <mask id="mask-18" fill="white">
                        <use xlink:href="#path-17"></use>
                    </mask>
                    <g id="Clip-38"></g>
                    <polygon id="Fill-37" fill="#FEFEFE" mask="url(#mask-18)" points="-0.414103128 5.48292929 16.6563708 5.48292929 16.6563708 -0.381054795 -0.414103128 -0.381054795"></polygon>
                </g>
                <path d="M91.632592,14.1674701 C91.5808387,14.2288881 91.5511443,14.3382477 91.4361456,14.305254 C91.3268545,14.2738866 91.322381,14.1697936 91.3223039,14.0803387 C91.3216869,13.7520275 91.3264688,13.4235613 91.3195273,13.0953275 C91.3171363,12.9826375 91.3766795,12.8961257 91.4364541,12.806361 C92.0464637,11.8899707 92.6304039,10.9620403 93.1481678,10.0044465 C93.1974529,9.91328765 93.2084823,9.83761884 93.1536439,9.74227769 C92.3478049,8.33903566 91.9395636,6.83340452 91.6002751,5.31034709 C91.5705807,5.17697791 91.5445883,5.04283424 91.5067182,4.91124641 C91.4636805,4.7622323 91.5309366,4.70096922 91.7030875,4.70166627 C92.0684454,4.70313783 92.434266,4.71018579 92.799084,4.69903297 C93.0135785,4.69252715 93.0119588,4.82186892 93.0359458,4.93448146 C93.1989955,5.70410371 93.297103,5.85613838 93.5197731,6.61553722 C93.6165694,6.94555235 93.7892602,7.20075064 93.9566291,7.55562728 C94.1904057,6.99651456 94.2946064,6.93393483 94.5177393,6.34097639 C94.7408721,5.74809541 94.8247109,5.56167287 94.9227412,5.02540795 C94.9607656,4.81683466 95.0615726,4.72645033 95.3245809,4.74496091 C95.6316296,4.76672441 95.9424576,4.75348043 96.2515117,4.74891087 C96.4535885,4.74604522 96.5051103,4.8080828 96.4668546,4.98428191 C96.1085154,6.63706836 95.6760557,7.99515694 94.779205,9.50504784 C94.7141857,9.61448492 94.9785823,9.92049051 95.024011,10.0044465 C95.5134687,10.9106134 96.5921113,12.4367688 96.5849384,12.5609989 C96.5779968,12.6841446 96.6056088,13.0856463 96.5921113,13.318384 C96.576917,13.5821018 96.5932683,13.8469814 96.5849384,14.1110864 C96.5826245,14.1847415 96.5880235,14.2902286 96.4747217,14.3089716 C96.3782339,14.3249263 96.3497735,14.2331479 96.300874,14.1754475 C95.4676544,13.1936892 94.6530227,12.2013203 93.9473737,11.1195739 C93.2111047,12.1874567 92.4526998,13.1945412 91.632592,14.1674701" id="Fill-40" fill="#FEFEFE"></path>
                <g id="Group-44" transform="translate(91.243062, 4.656149)">
                    <mask id="mask-20" fill="white">
                        <use xlink:href="#path-19"></use>
                    </mask>
                    <g id="Clip-43"></g>
                    <polygon id="Fill-42" fill="#FEFEFE" mask="url(#mask-20)" points="-0.348698126 10.0820748 5.77785314 10.0820748 5.77785314 -0.384152801 -0.348698126 -0.384152801"></polygon>
                </g>
                <path d="M89.3153036,5.09859061 C89.3864932,4.75494424 89.3828682,4.75533149 89.8028331,4.73813755 C90.0741713,4.72706218 90.3454324,4.7119594 90.6166934,4.70026443 C90.7888443,4.69275176 90.8506243,4.7579648 90.8196186,4.90705636 C90.4848036,6.52437063 90.0914481,7.91831864 89.2154221,9.39157561 C89.0867717,9.60789391 89.1947517,9.82971118 89.3153036,10.039059 C89.8026788,10.8848147 90.1307836,11.8573564 90.6891171,12.6705831 C90.8321135,12.8790015 90.906851,13.0850189 90.890654,13.3270507 C90.8729144,13.5905361 90.8892657,13.855648 90.8839438,14.1199854 C90.8825555,14.1902327 90.8683639,14.2759701 90.7799746,14.302458 C90.6773165,14.3332057 90.6402176,14.2466939 90.5916267,14.1907749 C89.7704391,13.2482064 88.9780976,12.289296 88.3238934,11.252703 C88.3022974,11.2183926 88.2968984,11.1745558 88.2232406,11.1567422 C87.6383749,11.972215 87.0305249,12.7818015 86.3959113,13.5762853 C86.232553,13.7808312 86.0701203,13.9859966 85.9060679,14.1902327 C85.8597908,14.2476233 85.8224606,14.3301077 85.7178743,14.3033874 C85.6346526,14.2821661 85.6220806,14.2005336 85.6232375,14.1425234 C85.6354239,13.560408 85.7339941,12.7502019 85.8986636,12.5001927 C86.4446565,11.6710113 86.97237,10.8532925 87.4278911,10.039059 C87.5005462,9.90878779 87.5002377,9.51727722 87.4278911,9.39157561 C86.5609663,7.88757092 86.1289694,6.56557412 85.7339941,4.93842367 C85.7042996,4.81589752 85.7539704,4.75300799 85.8986636,4.74611492 C86.2353296,4.73008274 86.57215,4.71598681 86.9088932,4.69948992 C87.1973539,4.68523909 87.1456007,4.89257318 87.1722871,5.02021104 C87.3715101,5.97277058 87.3890955,6.01482602 87.7846106,6.92238701 C87.8452336,7.0613326 88.1373965,7.48235168 88.2232406,7.66714776 C88.8140452,6.78917273 89.0934819,6.17034594 89.3153036,5.09859061" id="Fill-45" fill="#FEFEFE"></path>
                <g id="Group-49" transform="translate(85.612679, 4.656149)">
                    <mask id="mask-22" fill="white">
                        <use xlink:href="#path-21"></use>
                    </mask>
                    <g id="Clip-48"></g>
                    <polygon id="Fill-47" fill="#FEFEFE" mask="url(#mask-22)" points="-0.414565899 10.0795964 5.70527518 10.0795964 5.70527518 -0.384230252 -0.414565899 -0.384230252"></polygon>
                </g>
                <path d="M101.726157,16.773792 C101.726157,16.0983491 101.727777,16.1111284 102.397021,16.0278695 C104.149921,15.8099247 105.892795,15.5285483 107.620937,15.1595757 C107.694055,15.1440082 107.767558,15.129525 107.841525,15.1194565 C108.034423,15.0935107 108.134845,15.1235614 108.030181,15.3577707 C107.900374,15.6478215 107.791854,15.9484056 107.69097,16.2499965 C107.636671,16.4120223 107.543114,16.4918734 107.379525,16.5268809 C105.992985,16.8235924 104.63344,17.2479419 103.220137,17.4176352 C102.811201,17.4667386 102.401186,17.4995 101.988471,17.5084842 C101.769272,17.5133636 101.707569,17.4260772 101.723766,17.2250166 C101.735875,17.0754604 101.726157,16.9242776 101.726157,16.773792" id="Fill-50" fill="#FEFEFE"></path>
                <g id="Group-54" transform="translate(101.655415, 15.034470)">
                    <mask id="mask-24" fill="white">
                        <use xlink:href="#path-23"></use>
                    </mask>
                    <g id="Clip-53"></g>
                    <polygon id="Fill-52" fill="#FEFEFE" mask="url(#mask-24)" points="-0.359187608 2.90112815 6.8419956 2.90112815 6.8419956 -0.349532579 -0.359187608 -0.349532579"></polygon>
                </g>
                <path d="M75.0928626,25.1628295 C75.4384756,25.1628295 75.718915,25.4362285 75.718915,25.773524 C75.718915,26.110742 75.4384756,26.3841411 75.0928626,26.3841411 L71.9947635,26.3841411 C71.0741572,26.3841411 70.2415547,26.712917 69.6421888,27.2422114 C69.0596369,27.7568677 68.6976727,28.4640652 68.6976727,29.2393413 L68.6976727,31.3820774 C68.6976727,32.1568889 69.0596369,32.8640088 69.6421888,33.3791299 C70.2415547,33.9085017 71.0741572,34.2372002 71.9947635,34.2372002 L75.2590747,34.2372002 C75.6046876,34.2372002 75.8852041,34.5105993 75.8852041,34.8478947 C75.8852041,35.184648 75.6046876,35.4585892 75.2590747,35.4585892 L71.9947635,35.4585892 C70.7580845,35.4585892 69.6286142,35.0072872 68.8062697,34.2807272 C67.9671112,33.5390644 67.4459536,32.5130821 67.4459536,31.3820774 L67.4459536,29.2393413 C67.4459536,28.1078719 67.9671112,27.0818896 68.8062697,26.3406141 C69.6286142,25.6140541 70.7580845,25.1628295 71.9947635,25.1628295 L75.0928626,25.1628295 Z" id="Fill-55" fill="#FEFEFE"></path>
                <g id="Group-59" transform="translate(67.410343, 25.102991)">
                    <mask id="mask-26" fill="white">
                        <use xlink:href="#path-25"></use>
                    </mask>
                    <g id="Clip-58"></g>
                    <polygon id="Fill-57" fill="#FEFEFE" mask="url(#mask-26)" points="-0.389499124 10.7824566 8.89993928 10.7824566 8.89993928 -0.366958866 -0.389499124 -0.366958866"></polygon>
                </g>
                <g id="Group-64" transform="translate(67.410343, 22.702036)" fill="#FEFEFE">
                    <path d="M7.68251928,2.460793 C8.02813226,2.460793 8.30857163,2.73419207 8.30857163,3.07148753 C8.30857163,3.40870553 8.02813226,3.6821046 7.68251928,3.6821046 L4.58442011,3.6821046 C3.66381387,3.6821046 2.83121128,4.01088054 2.2318454,4.54017494 C1.64929355,5.05483127 1.28732931,5.76202869 1.28732931,6.53722736 L1.28732931,8.68004098 C1.28732931,9.45485239 1.64929355,10.1619724 2.2318454,10.6770934 C2.83121128,11.2064652 3.66381387,11.5351637 4.58442011,11.5351637 L7.84873128,11.5351637 C8.19434426,11.5351637 8.47486076,11.8085628 8.47486076,12.1458583 C8.47486076,12.4826116 8.19434426,12.7564753 7.84873128,12.7564753 L4.58442011,12.7564753 C3.34774111,12.7564753 2.21827078,12.3052507 1.39592629,11.5786907 C0.556767787,10.837028 0.0356102466,9.81104569 0.0356102466,8.68004098 L0.0356102466,6.53722736 C0.0356102466,5.4058354 0.556767787,4.37985311 1.39592629,3.63857761 C2.21827078,2.91201764 3.34774111,2.460793 4.58442011,2.460793 L7.68251928,2.460793 Z" id="Fill-60"></path>
                    <path d="M12.2714128,12.2064398 C12.2714128,12.5437352 11.9918219,12.8171343 11.6453605,12.8171343 C11.3002103,12.8171343 11.0201566,12.5437352 11.0201566,12.2064398 L11.0201566,9.38725389 L11.0196938,0.678525376 C11.0196938,0.341229922 11.3002103,0.0678308515 11.6458233,0.0678308515 C11.9913591,0.0678308515 12.2718756,0.341229922 12.2718756,0.678525376 L12.2718756,3.67886718 L12.2718756,3.52195316 C13.0562729,2.78788053 14.1651499,2.81119302 15.3498442,2.81119302 C16.5350785,2.81119302 18.2704706,2.78788053 19.054328,3.52195316 C19.8448184,4.2617571 19.6799947,5.41196945 19.6799947,6.5373203 L19.6799947,12.2064398 C19.6799947,12.5437352 19.399941,12.8171343 19.054328,12.8171343 C18.7087921,12.8171343 18.4282756,12.5437352 18.4282756,12.2064398 L18.4282756,6.5373203 C18.4282756,5.75592562 18.4894386,4.93549606 17.9372753,4.41851623 C17.3791732,3.89626979 16.1053183,3.89201003 15.2521224,3.89201003 C14.399852,3.89201003 13.3192812,4.07920707 12.7746766,4.60571327 C12.2299948,5.13221947 12.2822108,5.73416212 12.2718756,6.50091872 L12.2718756,9.37160896 L12.2714128,12.2064398 Z" id="Fill-62"></path>
                </g>
                <g id="Group-67" transform="translate(78.362596, 22.702036)">
                    <mask id="mask-28" fill="white">
                        <use xlink:href="#path-27"></use>
                    </mask>
                    <g id="Clip-66"></g>
                    <polygon id="Fill-65" fill="#FEFEFE" mask="url(#mask-28)" points="-0.357645037 13.2439776 9.16711254 13.2439776 9.16711254 -0.359058949 -0.357645037 -0.359058949"></polygon>
                </g>
                <g id="Group-72" transform="translate(78.362596, 22.702036)" fill="#FEFEFE">
                    <path d="M1.31916026,12.2064398 C1.31916026,12.5437352 1.0395693,12.8171343 0.693107906,12.8171343 C0.347957692,12.8171343 0.067903966,12.5437352 0.067903966,12.2064398 L0.067903966,9.38725389 L0.0674411948,0.678525376 C0.0674411948,0.341229922 0.347957692,0.0678308515 0.693570677,0.0678308515 C1.03910653,0.0678308515 1.31962303,0.341229922 1.31962303,0.678525376 L1.31962303,3.67886718 L1.31962303,3.52195316 C2.10402028,2.78788053 3.21282016,2.81119302 4.39759165,2.81119302 C5.58282591,2.81119302 7.31821805,2.78788053 8.10207539,3.52195316 C8.89256579,4.2617571 8.7277421,5.41196945 8.7277421,6.5373203 L8.7277421,12.2064398 C8.7277421,12.5437352 8.44768838,12.8171343 8.10207539,12.8171343 C7.75653954,12.8171343 7.47602304,12.5437352 7.47602304,12.2064398 L7.47602304,6.5373203 C7.47602304,5.75592562 7.53718597,4.93549606 6.98509989,4.41851623 C6.42692065,3.89626979 5.15306569,3.89201003 4.29979266,3.89201003 C3.44759943,3.89201003 2.36702859,4.07920707 1.82242398,4.60571327 C1.27774223,5.13221947 1.32995826,5.73416212 1.31962303,6.50091872 L1.31962303,9.37160896 L1.31916026,12.2064398 Z" id="Fill-68"></path>
                    <path d="M29.5135209,6.9980868 L29.5135209,6.53733579 C29.5135209,5.75261075 29.1834108,5.03883006 28.6527664,4.52138553 C28.1222764,4.00339885 27.3908664,3.68221303 26.5872642,3.68221303 C25.7831991,3.68221303 25.052252,4.00339885 24.5216848,4.52138553 C23.9906548,5.03883006 23.6614702,5.75261075 23.6614702,6.53733579 L23.6614702,6.9980868 L29.5135209,6.9980868 Z M30.7651629,7.60878132 L30.7647772,7.62434881 L30.7642373,7.63999374 L30.7633118,7.65556122 L30.7619235,7.67120615 L30.7600724,7.68630893 L30.7582213,7.70148917 L30.7553676,7.71659195 L30.7525909,7.73177218 L30.7488116,7.74687496 L30.7450323,7.76104834 L30.741253,7.77576387 L30.7366253,7.79040195 L30.7324604,7.80457533 L30.72683,7.81874871 L30.7216624,7.83245739 L30.716032,7.84624352 L30.7094761,7.8599522 L30.7033829,7.87319617 L30.6963642,7.88690485 L30.6893455,7.90014883 L30.6822497,7.91292811 L30.6818641,7.91292811 L30.6743826,7.92516523 L30.6663612,7.93794451 L30.6579542,7.95025909 L30.6495472,7.96257366 L30.6406003,7.97442354 L30.6318076,7.98573126 L30.6219352,7.99711643 L30.6126026,8.00842416 L30.6120627,8.00842416 L30.6022674,8.01934463 L30.592395,8.03018765 L30.5919322,8.03018765 L30.581597,8.04064342 L30.5708761,8.05055704 L30.5596153,8.06093537 L30.5488945,8.07046174 L30.5371709,8.07991066 L30.5254474,8.08935958 L30.513801,8.09834379 L30.5010748,8.10686331 L30.4889656,8.11491813 L30.4767021,8.1233602 L30.4762394,8.1233602 L30.4635903,8.13095031 L30.4504784,8.13854043 L30.4374437,8.14566584 L30.423792,8.15271381 L30.4107572,8.15937452 L30.4102173,8.15937452 L30.3967199,8.16549308 L30.3826053,8.17161165 L30.3685679,8.17734296 L30.3545305,8.18253212 L30.3539906,8.18253212 L30.3399532,8.18725658 L30.3395676,8.18725658 L30.3254531,8.19198104 L30.3249903,8.19198104 L30.3104901,8.1962408 L30.3100274,8.1962408 L30.2955272,8.20003586 L30.2805643,8.20383091 L30.2800244,8.20383091 L30.2655242,8.20716127 L30.2650614,8.20716127 L30.2500985,8.20994948 L30.2496357,8.20994948 L30.2346728,8.21235043 L30.2341329,8.21235043 L30.21917,8.21467394 L30.2187843,8.21467394 L30.2032815,8.21606804 L30.2027416,8.21606804 L30.1877786,8.21753959 L30.1868531,8.21753959 L30.1714274,8.218469 L30.1709646,8.218469 L30.1554618,8.2189337 L30.1545362,8.2189337 L30.1395733,8.2193984 L30.1386478,8.2193984 L23.6614702,8.2193984 L23.6614702,8.68014941 C23.6614702,9.46440974 23.9906548,10.1781904 24.5216848,10.6961771 C25.052252,11.2136216 25.7831991,11.5352722 26.5872642,11.5352722 L30.0066037,11.5352722 C30.3521396,11.5352722 30.6327332,11.8086712 30.6327332,12.145502 C30.6327332,12.4831847 30.3521396,12.7565838 30.0066037,12.7565838 L26.5872642,12.7565838 C25.4375862,12.7565838 24.39342,12.297769 23.6366348,11.5594366 C22.8794639,10.8214915 22.4098282,9.8017052 22.4098282,8.68014941 L22.4098282,7.60878132 L22.4098282,6.53733579 C22.4098282,5.41585745 22.8794639,4.39599372 23.6366348,3.65766133 C24.3928801,2.91925149 25.4375862,2.46090143 26.5872642,2.46090143 C27.7364794,2.46090143 28.7811855,2.91925149 29.5383563,3.65766133 C30.2949873,4.39599372 30.7651629,5.41585745 30.7651629,6.53733579 L30.7651629,7.60878132 Z" id="Fill-70"></path>
                </g>
                <g id="Group-75" transform="translate(100.729872, 25.102991)">
                    <mask id="mask-30" fill="white">
                        <use xlink:href="#path-29"></use>
                    </mask>
                    <g id="Clip-74"></g>
                    <polygon id="Fill-73" fill="#FEFEFE" mask="url(#mask-30)" points="-0.382557555 10.782534 8.82304213 10.782534 8.82304213 -0.366881415 -0.382557555 -0.366881415"></polygon>
                </g>
                <g id="Group-80" transform="translate(100.729872, 22.702036)" fill="#FEFEFE">
                    <path d="M7.14624454,6.9980868 L7.14624454,6.53733579 C7.14624454,5.75261075 6.8161344,5.03883006 6.28556717,4.52138553 C5.75499995,4.00339885 5.02359001,3.68221303 4.21998776,3.68221303 C3.41599987,3.68221303 2.68497557,4.00339885 2.15448548,4.52138553 C1.62345549,5.03883006 1.29419375,5.75261075 1.29419375,6.53733579 L1.29419375,6.9980868 L7.14624454,6.9980868 Z M8.39796361,7.60878132 L8.39750084,7.62434881 L8.39703807,7.63999374 L8.3960354,7.65556122 L8.39464708,7.67120615 L8.392796,7.68630893 L8.39094491,7.70148917 L8.38809116,7.71659195 L8.38531453,7.73177218 L8.38153523,7.74687496 L8.37783306,7.76104834 L8.37405376,7.77576387 L8.36934892,7.79040195 L8.36518398,7.80457533 L8.3595536,7.81874871 L8.35438598,7.83245739 L8.3487556,7.84624352 L8.34219967,7.8599522 L8.33610652,7.87319617 L8.32908782,7.88690485 L8.32206913,7.90014883 L8.31505043,7.91292811 L8.31458766,7.91292811 L8.30710619,7.92516523 L8.29916195,7.93794451 L8.29075494,7.95025909 L8.2822708,7.96257366 L8.27340102,7.97442354 L8.26445411,7.98573126 L8.25465878,7.99711643 L8.24532623,8.00842416 L8.24486346,8.00842416 L8.23499101,8.01934463 L8.22511855,8.03018765 L8.22465578,8.03018765 L8.21439769,8.04064342 L8.20359969,8.05055704 L8.19233892,8.06093537 L8.18161806,8.07046174 L8.16989452,8.07991066 L8.15817098,8.08935958 L8.14652457,8.09834379 L8.13379836,8.10686331 L8.12168918,8.11491813 L8.10950287,8.1233602 L8.1090401,8.1233602 L8.09639102,8.13095031 L8.08327917,8.13854043 L8.07016732,8.14566584 L8.05659269,8.15271381 L8.04348084,8.15937452 L8.04301807,8.15937452 L8.02944345,8.16549308 L8.01532893,8.1716891 L8.00129153,8.17734296 L7.98725414,8.18253212 L7.98679137,8.18253212 L7.97275397,8.18725658 L7.9722912,8.18725658 L7.95825381,8.19198104 L7.95779103,8.19198104 L7.94321374,8.1962408 L7.94275097,8.1962408 L7.9282508,8.20003586 L7.91328787,8.20383091 L7.9128251,8.20383091 L7.89832493,8.20716127 L7.89786216,8.20716127 L7.88282209,8.20994948 L7.88235932,8.20994948 L7.86739639,8.21235043 L7.86693362,8.21235043 L7.85197068,8.21467394 L7.85150791,8.21467394 L7.83600507,8.21614549 L7.8355423,8.21614549 L7.82057936,8.21753959 L7.81957669,8.21753959 L7.80415098,8.218469 L7.80368821,8.218469 L7.78826251,8.2189337 L7.78733696,8.2189337 L7.7722969,8.2193984 L7.77137136,8.2193984 L1.29419375,8.2193984 L1.29419375,8.68014941 C1.29419375,9.46440974 1.62345549,10.1781904 2.15448548,10.6961771 C2.68497557,11.2136216 3.41599987,11.5352722 4.21998776,11.5352722 L7.6393273,11.5352722 C7.98494028,11.5352722 8.26545678,11.8086712 8.26545678,12.145502 C8.26545678,12.4831847 7.98494028,12.7565838 7.6393273,12.7565838 L4.21998776,12.7565838 C3.07038688,12.7565838 2.02614359,12.297769 1.26943549,11.5594366 C0.512187491,10.8214915 0.0425518151,9.8017052 0.0425518151,8.68014941 L0.0425518151,7.60878132 L0.0425518151,6.53733579 C0.0425518151,5.41585745 0.512187491,4.39599372 1.26943549,3.65766133 C2.02568082,2.91925149 3.07038688,2.46090143 4.21998776,2.46090143 C5.36912587,2.46090143 6.41383193,2.91925149 7.17107993,3.65766133 C7.92778803,4.39599372 8.39796361,5.41585745 8.39796361,6.53733579 L8.39796361,7.60878132 Z" id="Fill-76"></path>
                    <path d="M16.2085163,12.1457034 C16.2085163,12.4829988 15.9284625,12.7563979 15.5828496,12.7563979 C14.4332487,12.7563979 13.3885426,12.2980478 12.6318345,11.559638 C11.8751264,10.8212281 11.4054136,9.80190657 11.4054136,8.68035078 L11.4054136,3.74724019 L11.4054136,2.52546389 L11.4054136,0.678819686 C11.4054136,0.341524232 11.6853902,0.0681251621 12.0310032,0.0681251621 C12.3766162,0.0681251621 12.6571327,0.341524232 12.6571327,0.678819686 L12.6571327,2.52546389 L15.5777591,2.52546389 C15.9232949,2.52546389 16.2038114,2.79886296 16.2038114,3.13662311 C16.2038114,3.47337642 15.9232949,3.74724019 15.5777591,3.74724019 L12.6571327,3.74724019 L12.6571327,8.68035078 C12.6571327,9.46461111 12.9863173,10.1783918 13.5168074,10.6959138 C14.0478374,11.213823 14.7788617,11.5350088 15.5828496,11.5350088 C15.9284625,11.5350088 16.2085163,11.8084079 16.2085163,12.1457034" id="Fill-78"></path>
                </g>
                <g id="Group-83" transform="translate(112.067768, 22.702036)">
                    <mask id="mask-32" fill="white">
                        <use xlink:href="#path-31"></use>
                    </mask>
                    <g id="Clip-82"></g>
                    <polygon id="Fill-81" fill="#FEFEFE" mask="url(#mask-32)" points="-0.357567908 13.1832567 5.29572264 13.1832567 5.29572264 -0.358749148 -0.357567908 -0.358749148"></polygon>
                </g>
                <g id="Group-88" transform="translate(44.503167, 22.702036)" fill="#FEFEFE">
                    <path d="M72.4352214,12.1457034 C72.4352214,12.4829988 72.1551677,12.7563979 71.8096318,12.7563979 C70.660031,12.7563979 69.6152478,12.2980478 68.8585397,11.559638 C68.1018316,10.8212281 67.6321188,9.80190657 67.6321188,8.68035078 L67.6321188,3.74724019 L67.6321188,2.52546389 L67.6321188,0.678819686 C67.6321188,0.341524232 67.9121725,0.0681251621 68.2577855,0.0681251621 C68.6033213,0.0681251621 68.8838378,0.341524232 68.8838378,0.678819686 L68.8838378,2.52546389 L71.8044642,2.52546389 C72.1500772,2.52546389 72.4305166,2.79886296 72.4305166,3.13662311 C72.4305166,3.47337642 72.1500772,3.74724019 71.8044642,3.74724019 L68.8838378,3.74724019 L68.8838378,8.68035078 C68.8838378,9.46461111 69.2130224,10.1783918 69.7435897,10.6959138 C70.2746197,11.213823 71.0055668,11.5350088 71.8096318,11.5350088 C72.1551677,11.5350088 72.4352214,11.8084079 72.4352214,12.1457034" id="Fill-84"></path>
                    <path d="M1.25053129,12.3685507 C1.15874832,12.6926022 0.815063552,12.8827423 0.48302519,12.7932874 C0.150986829,12.7034452 -0.0442255044,12.368086 0.0480202286,12.0440345 L3.10300454,1.71992799 L3.10770938,1.70343111 C3.29968232,1.09885515 3.6152923,0.661803886 3.984738,0.394058677 C4.28731326,0.17510707 4.62536765,0.0667542943 4.96858965,0.0672189952 C5.31281432,0.0681483972 5.64994317,0.177430575 5.95012744,0.393129275 C6.3256663,0.662733288 6.64551835,1.1021855 6.83795406,1.70242426 L6.84312167,1.72186425 L9.89764321,12.0440345 C9.98988895,12.368086 9.79467661,12.7034452 9.46263825,12.7932874 C9.13067702,12.8827423 8.78691512,12.6926022 8.69513216,12.3685507 L5.64577823,2.06481356 L5.64523833,2.06527826 C5.53710412,1.72751811 5.38207575,1.49811073 5.21162168,1.37558457 C5.12739731,1.315096 5.04355859,1.28434828 4.96858965,1.28380613 C4.89184676,1.28380613 4.80939635,1.31315974 4.72794861,1.37225422 C4.56165948,1.49292157 4.40994764,1.71853389 4.3022762,2.05675875 L1.25053129,12.3685507 Z" id="Fill-86"></path>
                </g>
                <g id="Group-91" transform="translate(44.503167, 22.702036)">
                    <mask id="mask-34" fill="white">
                        <use xlink:href="#path-33"></use>
                    </mask>
                    <g id="Clip-90"></g>
                    <polygon id="Fill-89" fill="#FEFEFE" mask="url(#mask-34)" points="-0.399988605 13.2422737 10.3455595 13.2422737 10.3455595 -0.3596011 -0.399988605 -0.3596011"></polygon>
                </g>
                <g id="Group-96" transform="translate(44.503167, 22.702036)" fill="#FEFEFE">
                    <path d="M1.25052357,12.3685507 C1.15874061,12.6926022 0.815055839,12.8827423 0.483017478,12.7932874 C0.150979116,12.7034452 -0.0442332173,12.368086 0.0480125157,12.0440345 L3.10299683,1.71992799 L3.10770167,1.70343111 C3.29967461,1.09885515 3.61528459,0.661803886 3.98480742,0.394058677 C4.28730555,0.17510707 4.62535994,0.0667542943 4.96858194,0.0672189952 C5.31280661,0.0681483972 5.64993546,0.177430575 5.95011973,0.393129275 C6.32565859,0.662733288 6.64551064,1.1021855 6.83794635,1.70242426 L6.84311396,1.72186425 L9.8976355,12.0440345 C9.98988123,12.368086 9.7946689,12.7034452 9.46263054,12.7932874 C9.13059218,12.8827423 8.78690741,12.6926022 8.69512445,12.3685507 L5.64577051,2.06481356 L5.64523061,2.06527826 C5.5370964,1.72751811 5.38206804,1.49811073 5.21161397,1.37558457 C5.1273896,1.315096 5.04355088,1.28434828 4.96858194,1.28388358 C4.89183904,1.28388358 4.80938863,1.31315974 4.7279409,1.37225422 C4.56165177,1.49292157 4.40993993,1.71853389 4.30226849,2.05675875 L1.25052357,12.3685507 Z" id="Fill-92"></path>
                    <path d="M12.9888779,12.2064398 C12.9888779,12.5437352 12.7083614,12.8171343 12.3628256,12.8171343 C12.0176754,12.8171343 11.7371589,12.5437352 11.7371589,12.2064398 L11.7371589,6.5368556 C11.7371589,5.41196945 12.0054119,4.39024692 12.7959023,3.65052043 C13.5802225,2.91637034 14.882615,2.95261702 16.0673093,2.95261702 C17.2520808,2.95261702 18.5425955,2.91637034 19.3269157,3.65052043 C20.1173289,4.39024692 20.3974598,5.41196945 20.3974598,6.5368556 L20.3974598,12.2064398 C20.3974598,12.5437352 20.1174061,12.8171343 19.7717931,12.8171343 C19.4262572,12.8171343 19.1457407,12.5437352 19.1457407,12.2064398 L19.1457407,6.5368556 C19.1457407,5.75639032 19.0134653,5.04493313 18.4613792,4.52841801 C17.9032,4.00617157 16.9200425,4.06232293 16.0673093,4.06232293 C15.215039,4.06232293 14.336622,4.00617157 13.7784428,4.52841801 C13.2263567,5.04493313 12.9888779,5.75639032 12.9888779,6.5368556 L12.9888779,12.2064398 Z" id="Fill-94"></path>
                </g>
                <g id="Group-99" transform="translate(56.226705, 25.645143)">
                    <mask id="mask-36" fill="white">
                        <use xlink:href="#path-35"></use>
                    </mask>
                    <g id="Clip-98"></g>
                    <polygon id="Fill-97" fill="#FEFEFE" mask="url(#mask-36)" points="-0.411480757 10.3008715 9.09893091 10.3008715 9.09893091 -0.417611271 -0.411480757 -0.417611271"></polygon>
                </g>
                <g id="Group-104" transform="translate(56.226705, 25.645143)" fill="#FEFEFE">
                    <path d="M1.26533996,9.26333363 C1.26533996,9.60062909 0.984823467,9.87402816 0.639287611,9.87402816 C0.294137398,9.87402816 0.0136209,9.60062909 0.0136209,9.26333363 L0.0136209,3.59374946 C0.0136209,2.46886331 0.28187396,1.44714078 1.07236436,0.707414286 C1.85668448,-0.0267357958 3.15899986,0.00951087984 4.34377135,0.00951087984 C5.52854285,0.00951087984 6.81898044,-0.0267357958 7.60337768,0.707414286 C8.39379095,1.44714078 8.67392181,2.46886331 8.67392181,3.59374946 L8.67392181,9.26333363 C8.67392181,9.60062909 8.39386808,9.87402816 8.0482551,9.87402816 C7.70271924,9.87402816 7.42220274,9.60062909 7.42220274,9.26333363 L7.42220274,3.59374946 C7.42220274,2.81328418 7.2899273,2.10182699 6.73784122,1.58531187 C6.17966198,1.06306543 5.19650449,1.11921679 4.34377135,1.11921679 C3.491501,1.11921679 2.61308406,1.06306543 2.05490482,1.58531187 C1.50274161,2.10182699 1.26533996,2.81328418 1.26533996,3.59374946 L1.26533996,9.26333363 Z" id="Fill-100"></path>
                    <path d="M34.5503462,9.26062288 C34.5503462,9.59791833 34.2698297,9.8713174 33.9242939,9.8713174 C33.5791437,9.8713174 33.2987043,9.59791833 33.2987043,9.26062288 L33.2987043,3.5910387 C33.2987043,2.46615255 33.5669573,1.44443002 34.3573706,0.70470353 C35.1417679,-0.0294465514 36.4440832,0.00680012419 37.6287776,0.00680012419 C38.8135491,0.00680012419 40.1040638,-0.0294465514 40.8884611,0.70470353 C41.6788743,1.44443002 41.9589281,2.46615255 41.9589281,3.5910387 L41.9589281,9.26062288 C41.9589281,9.59791833 41.6789515,9.8713174 41.3333385,9.8713174 C40.9877255,9.8713174 40.7072861,9.59791833 40.7072861,9.26062288 L40.7072861,3.5910387 C40.7072861,2.81057342 40.5749336,2.09911624 40.0228475,1.58260111 C39.4646682,1.06035467 38.4815107,1.11650604 37.6287776,1.11650604 C36.7765844,1.11650604 35.8980903,1.06035467 35.3399111,1.58260111 C34.787825,2.09911624 34.5503462,2.81057342 34.5503462,3.5910387 L34.5503462,9.26062288 Z" id="Fill-102"></path>
                </g>
                <g id="Group-107" transform="translate(89.469106, 25.645143)">
                    <mask id="mask-38" fill="white">
                        <use xlink:href="#path-37"></use>
                    </mask>
                    <g id="Clip-106"></g>
                    <polygon id="Fill-105" fill="#FEFEFE" mask="url(#mask-38)" points="-0.368828675 10.2981607 9.14158299 10.2981607 9.14158299 -0.420322027 -0.368828675 -0.420322027"></polygon>
                </g>
                <path d="M90.7770822,34.9057655 C90.7770822,35.2430609 90.4965657,35.51646 90.1510299,35.51646 C89.8058797,35.51646 89.5253632,35.2430609 89.5253632,34.9057655 L89.5253632,29.2361813 C89.5253632,28.1112952 89.7936162,27.0895726 90.5841066,26.3498461 C91.3684267,25.615696 92.6707421,25.6519427 93.8555136,25.6519427 C95.0402851,25.6519427 96.3307998,25.615696 97.11512,26.3498461 C97.9055332,27.0895726 98.1856641,28.1112952 98.1856641,29.2361813 L98.1856641,34.9057655 C98.1856641,35.2430609 97.9056104,35.51646 97.5599974,35.51646 C97.2144615,35.51646 96.933945,35.2430609 96.933945,34.9057655 L96.933945,29.2361813 C96.933945,28.455716 96.8016696,27.7442588 96.2495835,27.2277437 C95.6914043,26.7054973 94.7082468,26.7616486 93.8555136,26.7616486 C93.0032433,26.7616486 92.1248263,26.7054973 91.5666471,27.2277437 C91.014561,27.7442588 90.7770822,28.455716 90.7770822,29.2361813 L90.7770822,34.9057655 Z" id="Fill-108" fill="#FEFEFE"></path>
            </g>
        </g>
    </g>
</svg>