<?xml version="1.0" encoding="UTF-8"?>
<svg width="120px" height="36px" viewBox="0 0 120 36" version="1.1" xmlns="http://www.w3.org/2000/svg" xmlns:xlink="http://www.w3.org/1999/xlink">
    <!-- Generator: Sketch 44.1 (41455) - http://www.bohemiancoding.com/sketch -->
    <title>Page 1</title>
    <desc>Created with Sketch.</desc>
    <defs>
        <polygon id="path-1" points="1.98231836e-15 21.2481847 1.98231836e-15 0.0108120906 35.199306 0.0108120906 35.199306 21.2481847"></polygon>
    </defs>
    <g id="Page-1" stroke="none" stroke-width="1" fill="none" fill-rule="evenodd">
        <g id="-新版logo" transform="translate(-113.000000, -51.000000)">
            <g id="Page-1" transform="translate(113.000000, 51.000000)">
                <path d="M83.4966523,9.75054423 C83.4967416,7.11744082 83.4965629,4.48433741 83.496831,1.851234 C83.4969203,1.39806953 83.5045153,1.39012397 83.9622666,1.39012397 C88.9132718,1.38976687 93.8643663,1.38985615 98.8153716,1.39012397 C99.228,1.39012397 99.2294296,1.39119528 99.2294296,1.79561511 C99.2298764,5.11721427 99.2298764,8.43872414 99.229787,11.760234 C99.2296977,13.0093824 99.2278213,14.2585308 99.2293403,15.5075899 C99.229787,15.8870125 99.183592,16.2584895 99.0480447,16.6138969 C98.6983202,17.5302247 97.9986031,17.9538389 97.0479851,18.0013337 C95.9836217,18.0545421 94.9179181,18.0580239 93.8523931,18.0563276 C93.7649173,18.0562384 93.6794073,18.0481142 93.6314252,17.9604453 C93.5824602,17.8709016 93.6516188,17.8162647 93.6972777,17.7552893 C93.9055577,17.476927 94.1176798,17.2013323 94.3205987,16.9191312 C94.4289829,16.7682549 94.5626538,16.6964771 94.7508295,16.6937988 C95.3117826,16.6856747 95.8726463,16.6669268 96.4335994,16.6521963 C97.1503827,16.6334483 97.4747312,16.3131264 97.4753567,15.5990977 C97.4788414,11.6104291 97.478484,7.62176038 97.4791988,3.6330917 C97.4791988,3.59050709 97.4773224,3.54792249 97.4747312,3.50542716 C97.4575756,3.22545794 97.419869,3.18885482 97.1444855,3.18894409 C93.9692658,3.18983685 90.7940462,3.19117599 87.6189159,3.19180092 C86.9511869,3.19197947 86.2834579,3.18903337 85.615729,3.18947975 C85.3827878,3.18956902 85.3307848,3.24420587 85.3309635,3.47944787 C85.334627,8.16357582 85.3388265,12.8477038 85.3423112,17.5317424 C85.342758,18.1658692 85.366347,18.1015012 84.7606284,18.1043581 C84.4552226,18.1056972 84.1497275,18.10659 83.8443217,18.104983 C83.5503529,18.1034653 83.497099,18.0493641 83.497099,17.7562713 C83.4967416,15.1586997 83.4967416,12.5610388 83.4965629,9.96346725 C83.4965629,9.89249291 83.4965629,9.82151857 83.4966523,9.75054423" id="Fill-6" fill="#515050"></path>
                <path d="M73.5530127,6.98375908 C73.6546061,7.05089456 73.7337722,7.03393214 73.8093641,7.03393214 C75.840965,7.03473562 77.8725659,7.03437852 79.9041668,7.03500345 C80.2736381,7.035182 80.2931169,7.05410849 80.2932063,7.41594372 C80.2937424,10.0491364 80.2935637,12.6823291 80.2935637,15.3154325 C80.2935637,15.8626938 80.2091258,16.3905822 79.9090812,16.8616911 C79.5606969,17.4087738 79.0420968,17.6868682 78.4106448,17.757664 C77.4818287,17.861849 76.5512256,17.7631991 75.6213373,17.7622171 C75.4516575,17.7620385 75.4121638,17.6775835 75.4948146,17.5221542 C75.6045391,17.3157483 75.7226627,17.113717 75.8375696,16.9100786 C75.9898258,16.6401083 76.2206225,16.5239604 76.5289769,16.5530643 C76.8690514,16.5851144 77.2097513,16.5902924 77.5507193,16.5687769 C78.1561698,16.5304775 78.5207267,16.193461 78.5971229,15.5965623 C78.6141891,15.4632734 78.6244646,15.3281097 78.6246433,15.1938387 C78.6273239,13.0290767 78.6280387,10.8643146 78.6287535,8.69964189 C78.6289322,8.35146588 78.5987312,8.32664718 78.2490961,8.33539622 C78.0149933,8.34128843 77.7804438,8.34039567 77.546341,8.33432491 C77.2083217,8.32557587 77.171866,8.34896615 77.1625733,8.68044757 C77.1456858,9.28350628 77.1261176,9.88602933 77.0573165,10.4861419 C76.7674579,13.0113108 75.9465793,15.3115044 74.2043902,17.2222765 C73.9122978,17.5426877 73.6000119,17.842744 73.2734296,18.1277126 C73.2113299,18.1819031 73.1501236,18.2557343 73.0505853,18.207436 C72.9560506,18.1616375 72.9690067,18.0717366 72.9584631,17.9869245 C72.8580313,17.178442 73.1226031,16.4894106 73.6021564,15.8476061 C74.4777185,14.6757707 74.9269814,13.3216338 75.2169293,11.9072357 C75.4370037,10.8339608 75.5326106,9.74658038 75.5592375,8.65268277 C75.5663857,8.36039347 75.5353805,8.33289649 75.2493641,8.3339678 C74.8942785,8.33539622 74.5391929,8.33477129 74.1841072,8.33378925 C73.9169442,8.33298577 73.8726255,8.3680712 73.8693194,8.63750586 C73.8570782,9.62623646 73.7562889,10.6050574 73.564003,11.5751294 C73.0706001,14.0644986 71.8926701,16.164982 69.9950975,17.8575638 C69.9344274,17.911665 69.8794758,17.9958521 69.7780611,17.9506785 C69.6743232,17.9044336 69.6766463,17.8073014 69.6780759,17.7134725 C69.678344,17.6992776 69.6795949,17.6849042 69.6778079,17.6708879 C69.5869367,16.9491815 69.7975398,16.3588892 70.2470707,15.7577946 C71.2759613,14.3819637 71.7964378,12.7762473 72.0630648,11.0885757 C72.1915532,10.2748259 72.2600864,9.45500528 72.2759911,8.63125655 C72.2814415,8.34950181 72.2595503,8.33200373 71.9730871,8.3365568 C71.7458645,8.34012784 71.5185525,8.34227046 71.2912405,8.33986001 C71.0382844,8.33727101 70.9745763,8.27227816 70.9735041,8.02435898 C70.9726999,7.83286217 70.9870856,7.64020478 70.9716277,7.44995784 C70.9514341,7.20052097 71.0479345,7.03625331 71.2605034,6.90742819 C72.1531318,6.36659478 73.0122532,5.7756776 73.8518064,5.15583502 C74.8063559,4.45100179 75.709796,3.6837647 76.6102874,2.91268875 C76.6422755,2.88528104 76.6885599,2.86456904 76.6738168,2.81386032 C76.6585376,2.76163392 76.6075175,2.77082934 76.5664155,2.76957948 C76.5167357,2.76806179 76.4669665,2.76904382 76.4171973,2.76904382 C74.8189546,2.76895455 73.2206225,2.76877599 71.6222904,2.76868672 C71.5654624,2.76868672 71.5086344,2.76886527 71.4518064,2.76850817 C71.0369442,2.76618699 71.01407,2.7243166 71.20993,2.35158971 C71.2922234,2.19499978 71.3629903,2.03233909 71.4411735,1.87342799 C71.5847625,1.58176362 71.8217245,1.44374308 72.1452688,1.4555275 C74.4388503,1.53935757 76.7330573,1.46499074 79.0269069,1.48079258 C79.3656411,1.48311375 79.3452688,1.49025582 79.3794013,1.82405842 C79.4440923,2.45764948 79.2010544,2.89867243 78.7058645,3.3025566 C77.1141445,4.60089602 75.4811437,5.83629593 73.7096471,6.88162745 C73.662201,6.90966009 73.6172569,6.94171013 73.5530127,6.98375908" id="Fill-8" fill="#515050"></path>
                <path d="M52.4028206,9.26759731 C51.2672435,9.26759731 50.1317558,9.27054342 48.9962681,9.26465121 C48.8100581,9.26375845 48.7331258,9.31009264 48.7779806,9.50926718 C48.8135428,9.6673748 48.8171169,9.83244594 48.8399911,9.99367821 C48.9783976,10.9691067 49.2854118,11.8764177 49.8918451,12.6707054 C50.4997975,13.4670464 51.2794847,14.062963 52.1051884,14.6090637 C52.2624483,14.7130701 52.4123812,14.6861088 52.566067,14.6056712 C53.2389784,14.2534778 53.8360298,13.8043307 54.3309516,13.2253765 C55.2737066,12.1224621 55.7102815,10.8037677 55.9648459,9.40615351 C55.9984423,9.22188805 55.8748682,9.269115 55.7881072,9.26893645 C54.6596783,9.26697238 53.5312494,9.26759731 52.4028206,9.26759731 M54.0760298,15.4453111 C55.2548533,15.8133956 56.4559255,16.0602435 57.6564617,16.308609 C58.6986657,16.5242103 59.7475711,16.7022265 60.7998719,16.8610483 C60.9146001,16.8783678 61.032545,16.8986335 61.1123366,16.9809458 C61.5057543,17.3868834 61.8964021,17.7958563 62.2841013,18.2830348 C61.854764,18.2135782 61.4801996,18.1564416 61.1068861,18.0920737 C59.1008399,17.7464867 57.0911303,17.4205404 55.0990231,16.9983546 C54.2455309,16.8174817 53.3999017,16.60563 52.5659777,16.3498545 C52.3878987,16.2952176 52.2224185,16.2966461 52.0458585,16.35164 C49.6838332,17.0876305 47.265516,17.5685598 44.8225376,17.9369122 C44.6261415,17.9665518 44.4301921,17.9997624 44.2341534,18.0316339 C44.1529322,18.0448467 44.0730514,18.0422577 44.0248012,17.9655697 C43.9721727,17.8820075 44.0411526,17.8254959 44.0779657,17.7571998 C44.4980998,16.9771963 45.2378466,16.7715939 46.0331705,16.6578564 C47.5579657,16.4398446 49.0104751,15.9567727 50.462627,15.4481679 C50.4099092,15.3405012 50.3036694,15.3044337 50.2197677,15.2452438 C49.1528131,14.4929158 48.2625972,13.5848013 47.6960149,12.3916289 C47.268822,11.4919957 47.0410633,10.5379934 46.9304453,9.55265526 C46.8997975,9.27973884 46.8798719,9.26081235 46.5998421,9.26000886 C45.6479732,9.25733059 44.6961042,9.25741986 43.7441459,9.25590217 C43.6518451,9.25572362 43.5595443,9.25081345 43.4672435,9.25018851 C43.3268712,9.24929575 43.2564617,9.17564314 43.254764,9.03976522 C43.2509218,8.73462019 43.2485093,8.42947516 43.2510112,8.12433013 C43.2524408,7.95881261 43.352962,7.88078548 43.5100432,7.87641096 C43.7159106,7.8706973 43.9220462,7.87239354 44.128003,7.87150078 C44.9449501,7.86801902 45.7618972,7.86641206 46.578755,7.86051985 C46.8712941,7.85837723 46.8931854,7.83498694 46.8942576,7.54278692 C46.8960447,7.03177166 46.8925599,6.52075641 46.8920238,6.00974115 C46.8917558,5.70370337 46.9323217,5.66272573 47.2297751,5.66290428 C47.6773403,5.66299356 48.1249054,5.66326138 48.5723812,5.66290428 C48.9050395,5.66263645 48.9317558,5.68540181 48.9233567,6.0092055 C48.9097751,6.53423707 48.8899389,7.05900081 48.8758213,7.58403238 C48.8689412,7.83954001 48.8964617,7.86873323 49.149239,7.86882251 C51.3513239,7.86944744 53.5534981,7.86909033 55.7556724,7.86784047 C56.0059479,7.86775119 56.0365063,7.83561187 56.0365957,7.58421094 C56.036685,7.03766387 56.0324855,6.49111681 56.0340938,5.94456975 C56.0347193,5.69638274 56.0710856,5.66388632 56.322344,5.66343994 C56.791175,5.6624579 57.2600953,5.66799301 57.7288369,5.66085094 C57.9298794,5.65781555 58.013513,5.73727111 58.0052033,5.93903464 C57.9830439,6.47790398 57.9684795,7.01713042 57.95186,7.55626758 C57.943729,7.82079207 57.9859926,7.86775119 58.2530663,7.86882251 C59.1765212,7.87239354 60.0999762,7.87230427 61.0235205,7.87525037 C61.3221355,7.87614313 61.3450097,7.90078328 61.3491199,8.20592831 C61.3523366,8.43992044 61.3498347,8.67409113 61.3551958,8.90799399 C61.3612718,9.17501821 61.2969382,9.25679493 61.0253075,9.25831262 C60.1942427,9.26295497 59.3630886,9.26331207 58.5320238,9.25715203 C57.8576828,9.25215258 57.8972658,9.22813737 57.8132748,9.86217481 C57.5258287,12.0290795 56.3764914,13.6740772 54.6641459,14.9681314 C54.4720387,15.1133833 54.2791273,15.2574746 54.0869308,15.4025479 C54.0828206,15.4057619 54.083446,15.4152251 54.0760298,15.4453111" id="Fill-10" fill="#515050"></path>
                <path d="M64.9408905,5.83642092 C64.9408905,6.34011555 64.9453582,6.84381018 64.9383887,7.34732626 C64.9360655,7.51775395 64.9870856,7.59408485 65.1699002,7.58274681 C65.3820223,7.56962325 65.5956634,7.57980071 65.8085897,7.58033636 C66.0669963,7.58105057 66.0950529,7.55042893 66.0980908,7.28394037 C66.1086344,6.36243453 66.0586865,5.4404823 66.1323127,4.51951211 C66.154204,4.245078 66.0408161,4.1213416 65.764003,4.10973573 C65.5665346,4.10143307 65.3670112,4.1409823 65.1695428,4.13259036 C64.9864602,4.12482336 64.9357975,4.19731539 64.9383887,4.36810019 C64.9456262,4.8574214 64.9408905,5.34692116 64.9408905,5.83642092 L64.9408905,5.83642092 Z M68.8379866,5.83642092 L68.8269963,5.83642092 C68.8269963,5.34727826 68.8176143,4.85786778 68.8318213,4.36908222 C68.8371824,4.18276342 68.757659,4.13776836 68.5999523,4.13857185 C68.3445838,4.13982171 68.0889471,4.14366057 67.8338466,4.13366167 C67.6617543,4.1268767 67.6064453,4.21151026 67.6068027,4.36443987 C67.6092152,5.32129898 67.6227074,6.2780688 67.5884855,7.2349279 C67.5786567,7.50909419 67.7056262,7.61952848 67.9836009,7.61640382 C68.1816947,7.6142612 68.3801459,7.57774736 68.5773462,7.58506798 C68.7752614,7.59229933 68.8427223,7.51516495 68.8402204,7.32509656 C68.8336977,6.82899038 68.8379866,6.33261638 68.8379866,5.83642092 L68.8379866,5.83642092 Z M65.4720894,8.78815002 C65.3799672,8.78815002 65.287041,8.79609557 65.1959017,8.78645378 C64.995306,8.76547394 64.9307044,8.8604635 64.9374058,9.04803216 C64.9461623,9.29586206 64.9441072,9.54422762 64.9409799,9.79223607 C64.9312405,10.5500099 64.9741296,11.3082301 64.9075622,12.0659147 C64.8793269,12.3867723 64.9927148,12.4901538 65.3125063,12.489886 C65.4543083,12.4897967 65.5959315,12.476941 65.7377334,12.4733699 C66.098627,12.464353 66.0970186,12.4651565 66.0975547,12.0957329 C66.098895,11.2026167 66.0889769,10.3092328 66.1086344,9.41647381 C66.1225733,8.77984736 66.1005927,8.73976248 65.4720894,8.78815002 L65.4720894,8.78815002 Z M67.6065346,10.6174132 C67.6065346,11.1419091 67.6056411,11.6664943 67.606892,12.1910795 C67.6075175,12.4514973 67.6303023,12.4728343 67.881382,12.4743519 C68.0800119,12.4756018 68.2786418,12.4772088 68.4772718,12.4797978 C68.7430052,12.4832795 68.7650752,12.4616748 68.787592,12.1992929 C68.8785525,11.1378024 68.8107342,10.0738123 68.8379866,9.01142905 C68.8420968,8.84805415 68.7730276,8.77957953 68.6102278,8.78359695 C68.3620968,8.78966771 68.1133403,8.79466716 67.8655666,8.78395405 C67.671583,8.77556212 67.6004587,8.84966111 67.6036754,9.04374692 C67.6121638,9.56815356 67.6065346,10.092828 67.6065346,10.6174132 L67.6065346,10.6174132 Z M63.4168995,8.26392193 C63.4168995,6.60303308 63.4165421,4.94214423 63.4171675,3.28125537 C63.4173462,2.94263188 63.4437945,2.91334939 63.7777036,2.91290301 C64.445522,2.91201025 65.1132509,2.91629549 65.7809799,2.91754536 C66.0660134,2.91799173 66.0978228,2.88522748 66.0971973,2.59963387 C66.0956783,1.925333 66.0929084,1.25103212 66.092551,0.576731245 C66.0924617,0.260069626 66.1510767,0.20552205 66.4663112,0.207664672 C66.7290961,0.20945019 66.9918809,0.209003811 67.2546657,0.20748612 C67.5483663,0.205789878 67.6201162,0.269889975 67.6202949,0.567089447 C67.6205629,1.19166365 67.6146657,1.81623785 67.6110916,2.44081205 C67.6108235,2.49759152 67.6071601,2.55437099 67.6076962,2.61106119 C67.6100194,2.87058623 67.6582695,2.91968798 67.9220372,2.91870594 C68.5755592,2.91629549 69.2290812,2.91093894 69.8826925,2.90808211 C70.2343827,2.90656442 70.2934445,2.96334389 70.2932658,3.31232339 C70.2920149,6.42823087 70.2906746,9.54422762 70.2858496,12.6602244 C70.2854922,12.9009122 70.2459985,13.1416893 70.2475175,13.3822879 C70.2489471,13.6015495 70.1403842,13.6682386 69.9450603,13.6672565 C69.4904363,13.6649354 69.035723,13.667078 68.581099,13.667078 C68.367994,13.667078 68.1547997,13.6656496 67.9416947,13.6661852 C67.6379866,13.6669887 67.6060879,13.6989495 67.6061772,14.0120401 C67.6062666,14.3953908 67.6086791,14.7786522 67.6104661,15.1619137 C67.6142189,15.9994109 67.6194013,16.8369974 67.6215458,17.6744946 C67.6225287,18.0633804 67.568828,18.1113216 67.1767506,18.1061436 C66.9424691,18.1031082 66.7080089,18.1045366 66.4736381,18.1062329 C66.1469665,18.108554 66.0921936,18.0573097 66.0921936,17.7233285 C66.0921042,16.6515713 66.0941593,15.5798141 66.0951422,14.508057 C66.0953209,14.3163816 66.0906746,14.124617 66.0952316,13.9331202 C66.0996992,13.7451944 66.0204438,13.6678815 65.8267282,13.6701134 C65.1519404,13.6779696 64.4769739,13.6743986 63.8020968,13.6747557 C63.4837349,13.674845 63.4140402,13.6077095 63.4138615,13.2892624 C63.412968,11.6141786 63.4134147,9.93909493 63.4134147,8.26392193 L63.4168995,8.26392193 Z" id="Fill-12" fill="#515050"></path>
                <path d="M114.458368,3.46136058 L114.458368,3.45555764 C113.876149,3.45555764 113.292143,3.48448303 112.712515,3.44600512 C112.282463,3.41743683 111.968658,3.5260856 111.714451,3.882475 C111.597668,4.04611772 111.582299,4.14896356 111.698547,4.30751756 C112.317936,5.1519783 113.016938,5.92153656 113.806722,6.61065724 C113.96559,6.74930271 114.077013,6.75698044 114.244816,6.62485211 C115.285948,5.80503151 116.096015,4.79291063 116.76285,3.65714262 C116.849611,3.50930173 116.847378,3.45591475 116.652143,3.45805737 C115.920974,3.46627075 115.189626,3.46136058 114.458368,3.46136058 M112.740304,1.96411445 L116.460661,1.96411445 C117.135538,1.96411445 117.810505,1.96884607 118.485293,1.96036486 C118.630043,1.95857934 118.70081,2.00777036 118.756119,2.13623838 C118.984146,2.6655552 118.901227,3.18665863 118.683565,3.68338974 C118.337236,4.47392784 117.834094,5.17188683 117.306648,5.85038367 C116.803416,6.49763395 116.229864,7.07667744 115.579827,7.57858655 C115.541495,7.60822615 115.507184,7.64304375 115.461704,7.68375356 C116.284369,8.22065883 117.162344,8.6071342 118.083386,8.89995916 C118.481808,9.02655238 118.882195,9.14778906 119.28428,9.26188366 C119.479068,9.31705616 119.601302,9.4299009 119.672069,9.6184516 C119.756596,9.8436947 119.862925,10.0607244 119.947899,10.285789 C120.024027,10.4872847 119.965859,10.5574555 119.755166,10.5128176 C117.913081,10.1225926 116.096015,9.65425124 114.42495,8.74935071 C114.206931,8.63132797 114.010267,8.61141945 113.78215,8.72658536 C112.125561,9.56318982 110.352456,10.0613493 108.561302,10.504872 C108.334615,10.5609373 108.25938,10.4977299 108.257415,10.2664161 C108.255092,9.98957152 108.268137,9.71192347 108.250535,9.43623949 C108.239187,9.25956248 108.326663,9.19715863 108.469716,9.15716303 C108.974734,9.0161071 109.481987,8.88192542 109.98352,8.72917436 C110.9118,8.44643758 111.835255,8.14888101 112.696879,7.69589509 C112.690445,7.62081405 112.630669,7.60001277 112.587422,7.56724851 C111.778695,6.95428018 111.062984,6.24917912 110.467005,5.4265017 C110.346469,5.26009142 110.192783,5.19518784 109.990669,5.20804357 C109.579649,5.23420141 109.168092,5.25196731 108.756715,5.2727686 C108.6746,5.27687529 108.57801,5.31196072 108.536998,5.20152643 C108.493126,5.08323586 108.592485,5.03734805 108.664146,4.98556802 C109.144146,4.6389097 109.579738,4.2447566 109.961272,3.79123503 C110.693245,2.92106283 111.147869,1.91697677 111.405471,0.816740575 C111.476238,0.514452376 111.535032,0.475081704 111.84428,0.477938533 C112.213573,0.481331017 112.582865,0.480348983 112.952247,0.479634775 C113.260244,0.479009844 113.32145,0.556947705 113.233349,0.85387935 C113.129879,1.20250174 112.954392,1.51952046 112.792217,1.84225284 C112.776938,1.8727852 112.765233,1.90519235 112.740304,1.96411445" id="Fill-14" fill="#515050"></path>
                <path d="M105.186103,29.5261829 C106.066043,29.5261829 106.945984,29.5237724 107.825924,29.5288611 C107.95745,29.5295753 108.009722,29.5048459 108.008471,29.3575407 C108.005522,29.0222204 107.979699,28.6927923 107.872745,28.3731846 C107.436706,27.0702028 106.071315,26.2720763 104.705031,26.5216024 C103.297555,26.778717 102.336214,27.9659079 102.38509,29.3738782 C102.390273,29.5221654 102.454695,29.5280576 102.567547,29.5277005 C103.440429,29.524933 104.313221,29.5261829 105.186103,29.5261829 M105.656899,31.003699 C104.634174,31.0037883 103.611449,31.0070915 102.588813,31.0002172 C102.434234,30.9991459 102.385179,31.0311067 102.384911,31.1963564 C102.382499,32.8489426 103.598136,34.0505069 105.299223,34.0588096 C106.392894,34.0640769 107.486654,34.0567563 108.580325,34.0614879 C109.049066,34.0635412 109.365373,34.3532415 109.375559,34.7698029 C109.385299,35.167527 109.090526,35.5143639 108.689334,35.5174885 C107.411151,35.5273982 106.130019,35.5711434 104.855142,35.5040079 C102.896095,35.4008049 101.298925,33.9344483 100.941337,32.0059103 C100.906579,31.8185201 100.885582,31.6252378 100.887279,31.4349016 C100.895232,30.5342863 100.809364,29.6284038 100.922663,28.7340378 C101.131657,27.0850226 102.057078,25.939345 103.579729,25.3202166 C105.457108,24.5569077 107.515336,25.1666621 108.72436,26.7923762 C109.256899,27.508369 109.510481,28.3242614 109.515931,29.2162169 C109.517897,29.5426096 109.519774,29.8690916 109.515931,30.1954843 C109.509945,30.7023036 109.209722,31.0019135 108.703631,31.0029848 C107.688054,31.005306 106.672477,31.003699 105.656899,31.003699" id="Fill-16" fill="#515050"></path>
                <path d="M79.9691616,25.9181509 C80.5666597,25.5197126 81.1950737,25.3985652 81.8487744,25.3753534 C82.9564736,25.3359828 84.0640834,25.3156278 85.1665108,25.4673076 C85.4762949,25.5099815 85.7795562,25.5837234 86.0711124,25.6975502 C86.8578585,26.0049271 87.2584244,26.6063788 87.366898,27.4215571 C87.3948652,27.6319804 87.4120208,27.8455283 87.4119315,28.0576479 C87.4118421,30.2859743 87.4078213,32.5143008 87.403443,34.7427166 C87.4025495,35.2253421 87.1578138,35.5271839 86.7325867,35.579946 C86.3366672,35.6289584 85.9797051,35.3702369 85.9099211,34.9784942 C85.8938377,34.8884148 85.8897275,34.7952108 85.8897275,34.7034352 C85.8892807,32.7517747 85.8908891,30.8002035 85.8901742,28.8485431 C85.8899955,28.5014384 85.8933909,28.1546015 85.8010007,27.8134783 C85.680554,27.3687057 85.4150886,27.0671317 84.9777096,26.9140236 C84.6737334,26.8075174 84.3599285,26.7484168 84.0411199,26.7287761 C83.1046195,26.670836 82.1679404,26.6228949 81.2544929,26.9176839 C80.3791988,27.2001528 79.9978436,27.6631377 79.9880149,28.5811617 C79.9666597,30.5893338 79.9735398,32.5978631 79.9687148,34.6061244 C79.9685361,34.6983464 79.9702338,34.7908363 79.9644259,34.8827904 C79.9387818,35.2867639 79.6291765,35.5827135 79.2278958,35.5898556 C78.8340313,35.5968191 78.5048578,35.3006909 78.4667044,34.9033239 C78.4613433,34.8469908 78.4624155,34.7899435 78.4624155,34.733164 C78.4621474,30.9790231 78.4623261,27.224793 78.461522,23.4705628 C78.461522,23.3274535 78.4703678,23.1874689 78.5313954,23.0550728 C78.6705168,22.7527846 79.0139866,22.5703046 79.3376203,22.6275305 C79.6910975,22.6900236 79.9539717,22.9556194 79.960137,23.307545 C79.9737185,24.0879057 79.9673745,24.8686234 79.9691616,25.6491626 C79.9693403,25.7247793 79.9691616,25.800396 79.9691616,25.9181509" id="Fill-18" fill="#515050"></path>
                <path d="M49.5644408,22.6136481 C50.3586925,22.6516796 50.915178,23.0991304 51.2968905,23.7970894 C51.5715592,24.2993556 51.6803008,24.861526 51.8421176,25.4032521 C52.7543142,28.4562201 53.6604348,31.5109736 54.567449,34.5654593 C54.6900402,34.978271 54.5651258,35.3176087 54.2321102,35.4963391 C53.9209859,35.6633743 53.5343589,35.5928463 53.3003455,35.3292146 C53.1979479,35.2138701 53.1515741,35.0726356 53.1092211,34.9301513 C52.2534058,32.0526105 51.398484,29.1748018 50.5433835,26.2969932 C50.4001519,25.8151712 50.2595115,25.3325456 50.1129739,24.8517056 C50.0403306,24.6134283 49.9502636,24.3813109 49.7611943,24.205973 C49.5950886,24.0518828 49.4605242,24.0533113 49.2980819,24.2120438 C49.1198243,24.3863104 49.0330633,24.6109285 48.9638153,24.8434922 C47.9703083,28.1824109 46.9754609,31.5208832 45.9861534,34.8609625 C45.8882234,35.1914619 45.752408,35.4729488 45.3863321,35.563296 C44.8335101,35.6996203 44.2998094,35.2101205 44.4966523,34.5719764 C44.8638898,33.3812144 45.2100402,32.1838461 45.565662,30.9895131 C46.2142695,28.8110918 46.8642174,26.6330277 47.5117528,24.4543386 C47.6426538,24.0140299 47.8325272,23.6063068 48.1449025,23.2637552 C48.5163395,22.8564785 48.9735547,22.6299856 49.5644408,22.6136481" id="Fill-20" fill="#515050"></path>
                <path d="M114.100289,12.1407368 L114.100289,12.1398441 C113.248226,12.1398441 112.396164,12.1395762 111.544191,12.1399334 C111.247273,12.1401119 111.231011,12.1560923 111.230832,12.4540952 C111.230118,13.6743183 111.229939,14.894452 111.230207,16.114675 C111.230296,16.4064286 111.254511,16.4304439 111.546246,16.4306224 C113.250192,16.4313366 114.954228,16.431783 116.658264,16.4316044 C116.946692,16.4316044 116.990118,16.3883056 116.988777,16.0978018 C116.982969,14.8775788 116.976447,13.6574451 116.969031,12.4373114 C116.967333,12.1645735 116.941867,12.1411832 116.656387,12.1410047 C115.804325,12.1402905 114.952262,12.1407368 114.100289,12.1407368 L114.100289,12.1407368 Z M114.086082,10.8544497 C115.513573,10.8544497 116.941153,10.8538247 118.368643,10.854896 C118.692098,10.8550746 118.722657,10.8822145 118.722031,11.2070002 C118.718368,13.186604 118.750267,15.1665649 118.662523,17.145276 C118.658144,17.2437473 118.64501,17.3424865 118.627497,17.4396186 C118.606052,17.5587127 118.526797,17.624509 118.408137,17.6373648 C118.295375,17.6495956 118.181808,17.6638797 118.068777,17.662362 C115.50848,17.6274551 112.949254,17.7451208 110.389045,17.719945 C110.161823,17.7177131 109.934511,17.7231589 109.707288,17.7198557 C109.469343,17.7162846 109.405278,17.6531666 109.404206,17.4133715 C109.401793,16.8528081 109.404474,16.2921555 109.404295,15.7315921 C109.404027,14.2627357 109.403491,12.7938793 109.402955,11.3250229 C109.402776,10.8685553 109.42145,10.8502537 109.888852,10.8502537 L114.086082,10.8502537 L114.086082,10.8544497 Z" id="Fill-22" fill="#515050"></path>
                <path d="M98.5716456,31.7459835 C98.5716456,32.7609612 98.5753984,33.7760282 98.5702159,34.7910059 C98.567178,35.379959 98.0791363,35.7461688 97.5570514,35.5625282 C97.2352048,35.4492371 97.0587342,35.177392 97.0573045,34.7771681 C97.0548027,34.0673354 97.0573939,33.357592 97.056411,32.6477594 C97.054624,31.4127165 97.0570365,30.1776737 97.0469397,28.9426309 C97.0429188,28.4534883 96.9378407,27.9862182 96.6487863,27.5753705 C96.4170067,27.2458532 96.1051675,27.0288235 95.7096054,26.9672231 C94.7214594,26.81349 93.7249144,26.822239 92.7370365,26.9366014 C91.8967684,27.0338229 91.4803872,27.6342033 91.2491437,28.388049 C91.1503202,28.7102458 91.1371854,29.0446733 91.1369173,29.3785652 C91.1353984,31.1744392 91.136828,32.9702239 91.1357558,34.7660086 C91.1354877,35.1968541 90.9603574,35.4612001 90.6115264,35.5698488 C90.1407297,35.7164399 89.6720774,35.4002246 89.6330305,34.9086715 C89.6285629,34.8521599 89.6299926,34.7951126 89.6299926,34.7383331 C89.6298138,32.9213007 89.6289203,31.104179 89.63035,29.2870574 C89.6308861,28.6305224 89.7025465,27.9856826 89.9599702,27.3721786 C90.3768876,26.3784485 91.0962621,25.7453931 92.1779598,25.6121042 C93.4856292,25.4509612 94.8005361,25.4346237 96.1070439,25.6319234 C97.2715711,25.807797 97.9479672,26.556911 98.3270886,27.6204548 C98.5227699,28.1692338 98.5669993,28.742028 98.570484,29.3184825 C98.5752197,30.12759 98.5716456,30.9367867 98.5716456,31.7459835" id="Fill-24" fill="#515050"></path>
                <g id="Group-28" transform="translate(56.202532, 25.432829)" fill="#515050">
                    <path d="M8.95124051,6.31483262 C8.95124051,7.32981033 8.95508265,8.34487732 8.94972152,9.35985503 C8.94668354,9.94791539 8.45631869,10.3140359 7.93503797,10.129324 C7.61372748,10.015408 7.43815041,9.74356285 7.43689948,9.34271406 C7.43448697,8.56895983 7.43698883,7.79529487 7.4359166,7.02162992 C7.43430827,5.85041938 7.43681013,4.67920884 7.42644527,3.50817686 C7.42206701,3.01894492 7.31689948,2.55176414 7.02739836,2.14118427 C6.79526136,1.81184547 6.48315413,1.59544069 6.08759196,1.53410815 C5.09935666,1.38099998 4.10370514,1.39474847 3.11475503,1.50277231 C2.35052569,1.58624527 1.93119583,2.11493715 1.67806106,2.79450531 C1.53983321,3.1657145 1.51651229,3.55593946 1.51624423,3.94741429 C1.515172,5.73614623 1.51535071,7.52487817 1.51633358,9.31361011 C1.51651229,9.50028602 1.50400298,9.6815161 1.39409978,9.84283765 C1.21986299,10.0985238 0.888634401,10.2281524 0.59127029,10.1536963 C0.27558898,10.0745979 0.0555145197,9.8323031 0.0164676098,9.51653424 C0.00860461653,9.45341617 0.00967684289,9.38895897 0.00967684289,9.3251267 C0.0094087863,7.49389943 0.00797915115,5.66258289 0.0102129561,3.83126634 C0.0110171258,3.18187344 0.0853581534,2.54435424 0.340190618,1.93781377 C0.757554728,0.94408372 1.47755473,0.311742517 2.55916307,0.178989253 C3.86683246,0.0183819079 5.18165004,0.00231224582 6.48833656,0.199165606 C7.64428593,0.373342888 8.31952048,1.11665404 8.70150112,2.1688598 C8.90254356,2.72272749 8.94739836,3.30346722 8.95025763,3.88733161 C8.95418913,4.69643909 8.95124051,5.50563585 8.95124051,6.31483262" id="Fill-26"></path>
                </g>
                <path d="M105.058168,7.80207984 C104.239077,7.80207984 103.429993,7.80207984 102.620998,7.80207984 C102.542815,7.80207984 102.464631,7.8007407 102.386538,7.80324043 C102.187997,7.80975757 102.089263,7.71726774 102.065942,7.51755755 C101.996962,6.92583688 102.144929,6.3897351 102.482234,5.90773451 C103.159434,4.9401623 103.739509,3.92072079 104.178496,2.82253794 C104.441817,2.1640389 104.65385,1.48929164 104.838719,0.805259695 C104.917171,0.514755915 104.972033,0.475385242 105.268682,0.476010174 C105.623857,0.476724381 105.979032,0.475385242 106.334118,0.480116865 C106.624691,0.483866453 106.66892,0.539663891 106.585376,0.809009283 C106.193656,2.07047776 105.696947,3.28820104 105.057007,4.44575236 C104.723902,5.04827542 104.353894,5.62749746 103.955741,6.18904287 C103.907669,6.25689256 103.862368,6.32679559 103.800447,6.41866049 C104.1365,6.48026086 104.445212,6.44187222 104.751065,6.42598111 C105.041281,6.41080421 105.32971,6.3652735 105.6193,6.33706232 C105.798183,6.31956424 105.890752,6.21252243 105.9558,6.05566468 C106.178377,5.51938434 106.407118,4.98578229 106.633805,4.45119819 C106.751214,4.1744429 106.81662,4.13391164 107.11586,4.1366792 C107.463797,4.13998241 107.811824,4.13891109 108.159851,4.14123227 C108.479285,4.14337489 108.510558,4.19176243 108.389933,4.4889619 C107.526076,6.61703154 106.395592,8.59029677 104.960506,10.3867957 C104.73927,10.6637296 104.516247,10.9393243 104.294475,11.215901 C104.290544,11.2207219 104.291616,11.2295602 104.288757,11.2455406 C104.352375,11.3025879 104.433507,11.2725019 104.505257,11.2737518 C105.556932,11.2913391 106.606821,11.23822 107.656798,11.1902788 C107.987848,11.1751019 108.024661,11.2113479 108.01662,11.5434543 C108.011616,11.7490567 108.012599,11.9549269 108.017602,12.1605293 C108.02484,12.4571038 107.977215,12.5282567 107.678243,12.5563786 C107.275532,12.5942316 106.871482,12.6290492 106.467342,12.6378875 C105.267342,12.6639561 104.066984,12.6776153 102.866716,12.6942206 C102.529859,12.698863 102.457573,12.6314597 102.426657,12.2940861 C102.37376,11.7176316 102.556128,11.2153653 102.930782,10.7845198 C103.691794,9.90943747 104.36828,8.97418314 104.960417,7.97768554 C104.999196,7.91260341 105.034222,7.8452001 105.058168,7.80207984" id="Fill-29" fill="#515050"></path>
                <path d="M52.3335458,3.45286151 C50.3449233,3.45286151 48.3563008,3.45286151 46.3676783,3.45286151 C46.0149159,3.45286151 45.985519,3.48571504 45.9889144,3.84612185 C45.9929352,4.26473655 45.988825,4.68344052 45.9965093,5.10205522 C45.999994,5.2936413 45.9172539,5.37077568 45.7286314,5.36845451 C45.295452,5.36318723 44.8621832,5.36506202 44.4290037,5.36693682 C44.2633448,5.3677403 44.1853403,5.30346165 44.1863232,5.12580261 C44.1914162,4.18911986 44.193382,3.25234784 44.185519,2.31575437 C44.1835532,2.07783409 44.3238362,2.07765554 44.4918183,2.07774481 C46.5869486,2.07872685 48.6820789,2.07810192 50.7772986,2.07783409 C51.1992197,2.07774481 51.1992197,2.07774481 51.0069337,1.7025182 C50.8324289,1.3621092 50.6556009,1.02303933 50.4843127,0.681023352 C50.3583261,0.429443864 50.3870975,0.379895739 50.6606046,0.38489519 C51.1505227,0.39382278 51.6401727,0.413463478 52.1300015,0.420516274 C52.2799345,0.422658896 52.3624066,0.498543411 52.4304036,0.617012531 C52.6527118,1.00420211 52.888691,1.38398179 53.0984006,1.77777779 C53.2174177,2.00123537 53.3767327,2.0863153 53.626204,2.08542254 C55.6930097,2.07828047 57.759726,2.07953033 59.8265316,2.07836975 C59.9188325,2.07828047 60.0111333,2.07783409 60.1035235,2.07872685 C60.4184006,2.08176223 60.4317141,2.09435013 60.4318928,2.40136995 C60.4323395,3.1961933 60.4320715,3.99092736 60.4320715,4.7857507 C60.4320715,4.89930965 60.4315354,5.01277932 60.4320715,5.12633826 C60.4328757,5.28408878 60.3498675,5.36524057 60.1970752,5.36631188 C59.7495994,5.36934726 59.302213,5.36863306 58.8547372,5.36666899 C58.6570901,5.3658655 58.6055339,5.23873662 58.6067848,5.06848748 C58.6100015,4.63567791 58.6118779,4.20286835 58.6145585,3.76996951 C58.6164348,3.48116197 58.5898972,3.45375427 58.2994133,3.45375427 C56.3107908,3.45357572 54.3221683,3.45366499 52.3335458,3.45366499 L52.3335458,3.45286151 Z" id="Fill-31" fill="#515050"></path>
                <path d="M73.4536888,35.5239343 C72.8194669,35.4954552 72.0186031,35.6038362 71.2324825,35.4391221 C69.482341,35.0722875 68.2063023,34.1329264 67.6214922,32.3872255 C67.5036366,32.0354784 67.4643217,31.6680188 67.4647684,31.2968096 C67.4654832,30.6437564 67.46593,29.9907032 67.4647684,29.3377393 C67.4617305,27.6813142 68.2591988,26.4943911 69.644962,25.667607 C70.4303678,25.1989978 71.2969054,25.002323 72.2089233,25.0015195 C73.2106508,25.0006268 74.2123783,24.9979485 75.2140164,25.0027694 C75.7340462,25.0052691 76.0768012,25.3896019 75.9979032,25.8653531 C75.9499211,26.1548749 75.7169799,26.3980624 75.4246195,26.4506459 C75.3135547,26.4705545 75.1986478,26.4748397 75.0854386,26.4754646 C74.0127655,26.4815354 72.9378585,26.4426111 71.8682234,26.5012654 C70.7304125,26.5637585 69.8197349,27.0799518 69.2488637,28.1046605 C69.0989308,28.3737381 69.0087744,28.6661167 68.9919762,28.9747435 C68.9484617,29.776084 68.9491765,30.5792992 68.9822368,31.379747 C69.0298615,32.5309597 69.6914252,33.2697178 70.6924378,33.7453798 C71.1891467,33.9814252 71.7215071,34.0581132 72.2661981,34.0591846 C73.2963395,34.0613272 74.326481,34.0579347 75.3565331,34.0608808 C75.7894445,34.0621307 76.0959226,34.2881772 76.1623112,34.6418884 C76.2488935,35.1029984 75.9241876,35.5131319 75.4458853,35.5214345 C74.8350737,35.5318798 74.223994,35.5239343 73.4536888,35.5239343" id="Fill-33" fill="#515050"></path>
                <g id="Group-2">
                    <g id="Group-3" transform="translate(0.000000, 0.078474)">
                        <mask id="mask-2" fill="white">
                            <use xlink:href="#path-1"></use>
                        </mask>
                        <g id="Clip-2"></g>
                        <path d="M24.4394252,15.8622474 C24.4155681,15.7872556 24.4042204,15.7466351 24.3899241,15.7070859 C23.3280625,12.7802647 22.267452,9.85299725 21.203178,6.92706889 C20.9125153,6.12804958 20.475315,5.42366272 19.8236694,4.86408138 C18.7165957,3.91356087 17.2193209,3.72974179 15.9753596,4.40663166 C14.9968637,4.93916241 14.4000804,5.78915826 14.0273031,6.81449198 C13.1906984,9.11522121 12.3557022,11.4166646 11.5201698,13.7178403 C11.2644438,14.4221378 11.0088965,15.1265247 10.7476307,15.8461777 C10.7939151,15.8461777 10.821793,15.8496595 10.848688,15.8457313 C11.8884795,15.6939623 12.9317558,15.5740648 13.9803038,15.5038939 C14.0964617,15.4961269 14.136134,15.4360442 14.169373,15.3423045 C14.2994698,14.9753806 14.4332301,14.6097958 14.5664542,14.2440324 C15.348554,12.095965 16.1305644,9.94780826 16.913379,7.80000864 C16.988971,7.59262072 17.0819866,7.39371402 17.2358511,7.23033912 C17.4586955,6.99366871 17.6355235,6.98536605 17.8757915,7.201503 C18.1211526,7.42228231 18.2495517,7.71323247 18.3591869,8.01507429 C19.2458287,10.4565916 20.1336322,12.8976626 21.0159851,15.3407869 C21.0635205,15.4723795 21.1347342,15.5030012 21.2631333,15.5135357 C21.7935279,15.5570131 22.3234758,15.6087038 22.8524408,15.6672688 C23.372828,15.7248518 23.8917856,15.794487 24.4394252,15.8622474 M35.199306,17.6338384 C35.1943917,18.8004958 35.0776083,19.955726 34.8579806,21.1015822 C34.8283157,21.2566544 34.7799762,21.2725455 34.637102,21.2234438 C31.9566255,20.3031878 29.2166404,19.6138886 26.4220611,19.1462614 C22.9099836,18.5585581 19.3737811,18.317781 15.8130961,18.4342861 C13.5178168,18.5094564 11.2367446,18.726129 8.97121966,19.0968025 C6.1255309,19.5624656 3.33586597,20.2560501 0.610981385,21.2020175 C0.421376024,21.2679032 0.358025316,21.2584399 0.319335815,21.0372142 C-0.710626955,15.1425944 0.742329114,9.94887957 4.80088459,5.54454229 C7.43087714,2.69039175 10.7170722,0.943976589 14.54358,0.276907061 C23.1463202,-1.22274952 31.4868116,3.74241897 34.2765659,11.992762 C34.8952405,13.8223823 35.1917111,15.7044969 35.199306,17.6338384" id="Fill-1" fill="#C9181E" mask="url(#mask-2)"></path>
                    </g>
                    <path d="M17.3537692,21.4190294 C19.4421087,21.4165297 21.3255637,21.5374092 23.2033894,21.7580993 C23.3350946,21.7736333 23.3603812,21.8448754 23.3949605,21.9400436 C24.1463232,24.008834 24.8993835,26.0770888 25.6513716,28.1457007 C26.1519226,29.5226029 26.6488995,30.900755 27.1553477,32.2754253 C27.2076188,32.4174632 27.1842978,32.4796885 27.0585793,32.5592334 C24.9012599,33.924619 22.5646106,34.8071113 20.0312971,35.1434136 C15.7687506,35.7092442 11.8100015,34.853624 8.15808786,32.5800347 C7.99430529,32.4781709 7.98805063,32.3900555 8.04746984,32.2275734 C9.29795383,28.8041104 10.5449531,25.3793083 11.7850722,21.9520065 C11.840828,21.7980949 11.9192792,21.7487253 12.0672465,21.7325664 C13.1613641,21.6126688 14.2575369,21.5172329 15.3571943,21.4674169 C16.088006,21.4343849 16.819175,21.408852 17.3537692,21.4190294" id="Fill-4" fill="#C9181E"></path>
                    <path d="M5.46010722,30.4583036 C5.00878928,30.0356715 4.6070618,29.607415 4.22508116,29.1605891 C3.01382278,27.7440484 2.04890841,26.1762743 1.32980194,24.4565526 C1.27261653,24.319782 1.26600447,24.2597886 1.42889352,24.203634 C3.68199851,23.4272908 5.97406106,22.7952174 8.31088905,22.3264297 C8.33724795,22.3211624 8.36548325,22.3258047 8.41677141,22.3258047 C7.43219955,25.0339892 6.45218466,27.7295857 5.46010722,30.4583036" id="Fill-35" fill="#C9191E"></path>
                    <path d="M26.7737781,22.3338574 C27.5210305,22.4719672 28.2176203,22.6299856 28.9117081,22.7980921 C30.5374713,23.1917095 32.1389308,23.6686214 33.7245748,24.2007058 C33.9151631,24.2646273 33.9120357,24.328281 33.84386,24.4902275 C32.9192435,26.6882895 31.6047833,28.620577 29.9037856,30.2914648 C29.863309,30.3312819 29.8226538,30.3710096 29.7808369,30.4093983 C29.7710975,30.4182366 29.7560864,30.4213612 29.7207029,30.4375202 C28.7427431,27.7481729 27.7654981,25.0610576 26.7737781,22.3338574" id="Fill-37" fill="#C9191E"></path>
                </g>
                <path d="M112.306365,27.4650166 C112.306365,26.1166826 112.304131,24.768438 112.307437,23.4201934 C112.308777,22.8488276 112.795926,22.4858318 113.312649,22.662241 C113.611532,22.764194 113.803372,23.0204159 113.80909,23.3580573 C113.81731,23.8405043 113.822314,24.3233976 113.80766,24.8054875 C113.801406,25.0120719 113.843401,25.0837605 114.070445,25.079386 C114.901153,25.0634949 115.732307,25.0705476 116.563282,25.0743865 C116.94839,25.076172 117.225382,25.2602589 117.330281,25.5677251 C117.493528,26.0457976 117.148003,26.5303872 116.622791,26.5359223 C115.763491,26.5449391 114.904012,26.5444035 114.044712,26.5344939 C113.860825,26.5324405 113.806499,26.5735074 113.80766,26.7657184 C113.816417,28.2487697 113.809894,29.7319102 113.8132,31.2150508 C113.816596,32.7577383 114.880512,33.9103795 116.419783,34.0467038 C116.55399,34.0585775 116.691681,34.0573276 116.821242,34.0890206 C117.175792,34.1759753 117.414273,34.5237942 117.372188,34.8708096 C117.32778,35.2368408 117.026931,35.5210953 116.648882,35.5223451 C115.433424,35.5263626 114.384518,35.1014985 113.527005,34.2430215 C112.700497,33.4155232 112.302255,32.4040272 112.305561,31.2330845 C112.309135,29.9770619 112.306365,28.7210392 112.306365,27.4650166" id="Fill-39" fill="#515050"></path>
                <path d="M94.1363902,7.60155724 C94.5477677,6.80351997 94.9250127,6.0213738 95.0946925,5.15700454 C95.1500908,4.87516052 95.2318481,4.81400653 95.5141117,4.81659553 C95.8193388,4.81945236 96.1245659,4.81686335 96.429793,4.82159498 C96.6494207,4.82507674 96.6909695,4.88265969 96.644685,5.09888592 C96.3153328,6.63809172 95.8271124,8.11864326 95.0108801,9.47572622 C94.9218853,9.62365639 94.9827342,9.72980543 95.0555562,9.84532845 C95.5656679,10.6546145 96.072831,11.4657753 96.5889293,12.2711332 C96.7156307,12.4687008 96.7900611,12.6678753 96.7830022,12.906242 C96.770761,13.3172682 96.7779985,13.7289194 96.7731735,14.1403027 C96.7721906,14.2224366 96.7799643,14.3223363 96.6718481,14.3505475 C96.5746329,14.3759018 96.5402323,14.2876973 96.491446,14.2299357 C95.667172,13.2547751 94.8544244,12.2706868 94.1338883,11.1839313 C94.0794728,11.2549056 94.0323842,11.3114173 93.9905674,11.3716785 C93.2982666,12.3687118 92.5519077,13.324321 91.7787431,14.2595753 C91.7319226,14.3161763 91.6901057,14.3786694 91.6058466,14.3472443 C91.5315056,14.3195688 91.5020194,14.2564507 91.5020194,14.1780665 C91.5023768,13.8233733 91.500411,13.4686801 91.5027342,13.113987 C91.5035383,12.9931967 91.5836873,12.9040101 91.6459657,12.810806 C92.2247893,11.9440263 92.7763604,11.0607306 93.2838809,10.1501164 C93.3566136,10.0196843 93.3949456,9.90273285 93.3103291,9.75480269 C92.5203663,8.37272247 92.1061296,6.85878175 91.7623917,5.32055799 C91.7454147,5.24458419 91.7303142,5.16807475 91.7120864,5.09236878 C91.6452509,4.8140958 91.6716992,4.77651065 91.9492271,4.7744573 C92.2758094,4.77213613 92.6025704,4.77856399 92.9289739,4.76981496 C93.1036575,4.76508333 93.1791601,4.83677188 93.21642,5.00630682 C93.4620491,6.12377326 93.7440447,6.91181164 94.1363902,7.60155724" id="Fill-41" fill="#515050"></path>
                <path d="M88.3908116,7.71871401 C88.926478,6.97843824 89.2720923,6.18075807 89.4563366,5.31112152 C89.559449,4.82447859 89.5600745,4.82635338 90.0590171,4.80974807 C90.2931199,4.80198106 90.5268652,4.78135833 90.7610573,4.77519829 C90.9721966,4.76957391 91.0237528,4.8303708 90.9826508,5.02865257 C90.6665227,6.55455626 90.2287863,8.03751825 89.4199702,9.38665566 C89.3055101,9.57752753 89.2998809,9.76277502 89.4062993,9.94954021 C89.9392852,10.8849731 90.3014296,11.9099497 90.9088459,12.806369 C91.0191065,12.969119 91.0653016,13.1544558 91.0636039,13.3505949 C91.0613701,13.6201189 91.058064,13.8895535 91.0525242,14.1590775 C91.0509159,14.2379974 91.0427848,14.3200419 90.9486076,14.3483424 C90.8615786,14.3745895 90.8212807,14.3066505 90.775443,14.2537099 C89.9760089,13.3309542 89.1855994,12.4006993 88.5321668,11.3655453 C88.4234252,11.1932428 88.372137,11.2277033 88.2727774,11.3660809 C87.5772599,12.3343673 86.8437677,13.2738176 86.0953537,14.2016621 C86.0366493,14.2745112 85.98965,14.3940516 85.8636634,14.3409325 C85.7547431,14.2950447 85.7903946,14.1838069 85.790484,14.0954237 C85.7906627,13.7609962 85.8360536,13.4305861 85.8886821,13.1013366 C85.932822,12.8250277 86.0373641,12.5759479 86.196411,12.3407059 C86.6569322,11.6595308 87.0933284,10.9626431 87.506761,10.2512928 C87.6878779,9.93963058 87.7006552,9.63502121 87.5228444,9.32657297 C86.7622785,8.00734299 86.2756664,6.58464224 85.9206701,5.11176844 C85.8618764,4.86759885 85.8952941,4.82617483 86.1483395,4.81483679 C86.4533879,4.8010883 86.758347,4.78760764 87.063306,4.77278784 C87.2152941,4.76546722 87.2993745,4.82921021 87.3262695,4.98517521 C87.5233805,6.12603194 87.7326433,6.66204445 88.3908116,7.71871401" id="Fill-43" fill="#515050"></path>
                <path d="M102.595577,17.5495351 C102.453686,17.5495351 102.311794,17.5477496 102.170082,17.5499815 C101.999866,17.5527491 101.923827,17.4686512 101.927223,17.3018838 C101.932673,17.0324491 101.939643,16.7630144 101.938749,16.493669 C101.938034,16.2706578 102.044631,16.1533493 102.263098,16.1241561 C102.811273,16.0508606 103.359092,15.9750653 103.906999,15.8995379 C105.269888,15.7116122 106.621251,15.4580686 107.969754,15.1880983 C108.025153,15.1770281 108.081445,15.1667613 108.137647,15.1645294 C108.253626,15.1599764 108.320908,15.204525 108.273016,15.3312075 C108.142919,15.6752769 108.012018,16.0189891 107.876649,16.3609158 C107.82831,16.4831345 107.722427,16.5425922 107.598943,16.5694643 C106.235696,16.8664852 104.895324,17.2705479 103.506969,17.4499032 C103.204512,17.4889168 102.899643,17.5085575 102.595934,17.537215 C102.595845,17.5413217 102.595666,17.5454284 102.595577,17.5495351" id="Fill-45" fill="#515050"></path>
            </g>
        </g>
    </g>
</svg>