<?xml version="1.0" encoding="UTF-8"?>
<svg width="120px" height="37px" viewBox="0 0 120 37" version="1.1" xmlns="http://www.w3.org/2000/svg" xmlns:xlink="http://www.w3.org/1999/xlink">
    <!-- Generator: Sketch 44.1 (41455) - http://www.bohemiancoding.com/sketch -->
    <title>Page 1</title>
    <desc>Created with Sketch.</desc>
    <defs>
        <polygon id="path-1" points="11.773191 0.0455957177 11.773191 10.0927805 0.0674921584 10.0927805 0.0674921584 0.0455957177"></polygon>
        <polygon id="path-3" points="8.95670141 10.1353266 0.0318815139 10.1353266 0.0318815139 0.0136163724 8.95670141 0.0136163724 8.95670141 10.1353266"></polygon>
    </defs>
    <g id="Page-1" stroke="none" stroke-width="1" fill="none" fill-rule="evenodd">
        <g id="-新版logo" transform="translate(-165.000000, -1387.000000)">
            <g id="Page-1" transform="translate(165.000000, 1387.608163)">
                <path d="M83.3213428,9.66055038 C83.3214279,7.02766509 83.3212578,4.3947798 83.321513,1.76180934 C83.321598,1.30870062 83.3291693,1.30069456 83.785914,1.30069456 C88.7265657,1.30035388 93.6672174,1.30043905 98.6078691,1.30069456 C99.0196964,1.30069456 99.0210575,1.30180178 99.0211426,1.7061928 C99.021568,5.02751376 99.021568,8.34883472 99.0213978,11.6700705 C99.0213978,12.9191856 99.0195263,14.1682156 99.0209725,15.4172455 C99.0213978,15.7965963 98.9753746,16.1680262 98.8400271,16.5233588 C98.491067,17.4396264 97.7928917,17.8632661 96.8441831,17.9107914 C95.7820753,17.963938 94.7186063,17.96743 93.6553075,17.9657265 C93.5680249,17.9656414 93.482699,17.9575501 93.4348042,17.8698242 C93.3859736,17.7803949 93.455051,17.72563 93.5004788,17.6647329 C93.7083916,17.3863947 93.9200475,17.1107819 94.1225158,16.828611 C94.2307258,16.6777735 94.3641167,16.6060597 94.5518677,16.6033342 C95.1117181,16.5951578 95.6713983,16.5765054 96.2310785,16.5617709 C96.946353,16.5429481 97.2701322,16.2227059 97.2707277,15.508719 C97.2741305,11.5203402 97.2737902,7.53187629 97.2745558,3.54349754 C97.2745558,3.5009973 97.2725992,3.4584119 97.2700471,3.41591166 C97.2529479,3.13595521 97.2153466,3.09933176 96.9405682,3.09941693 C93.7720245,3.10035381 90.6034808,3.10163137 87.4349371,3.10231274 C86.7685782,3.10248308 86.1023044,3.0995021 85.4360306,3.09992795 C85.2035323,3.10009829 85.1515541,3.15460761 85.1518093,3.38993457 C85.1554674,8.073733 85.1597209,12.7574463 85.1631237,17.4412447 C85.1636342,18.0753414 85.1871137,18.0109522 84.5826863,18.0137629 C84.2778779,18.0151256 83.9730695,18.0160625 83.6682612,18.0144442 C83.3749374,18.0129112 83.3217682,17.9587425 83.3217682,17.6657549 C83.3214279,15.0683007 83.3214279,12.4708465 83.3212578,9.87347741 C83.3212578,9.80253012 83.3212578,9.73149767 83.3213428,9.66055038" id="Fill-5" fill="#FEFEFE"></path>
                <path d="M73.3985845,6.89397247 C73.4999037,6.96108707 73.5789344,6.94413808 73.6543921,6.94413808 C75.6817122,6.94490461 77.7091174,6.9446491 79.7364375,6.9452453 C80.1050489,6.94533047 80.1245301,6.96432356 80.1246152,7.32612916 C80.1251256,9.95909963 80.1249555,12.5920701 80.1249555,15.2251257 C80.1249555,15.772263 80.0407355,16.3001517 79.7413716,16.7712315 C79.3936876,17.3182836 78.8761174,17.5963663 78.2459987,17.6671432 C77.3191533,17.771222 76.3904363,17.6726793 75.4625701,17.6716573 C75.2932793,17.6714869 75.2538065,17.5870827 75.33624,17.4316459 C75.4458111,17.2251919 75.5637191,17.0232519 75.6783094,16.8195233 C75.8303307,16.549617 76.0606172,16.4335292 76.3683179,16.4625724 C76.7075799,16.4945967 77.0476075,16.4998773 77.3878904,16.4782439 C77.9920626,16.4400022 78.35591,16.1030664 78.4321334,15.5061894 C78.4491475,15.3728971 78.4594411,15.237731 78.4595261,15.1035018 C78.4622484,12.9388856 78.462929,10.7742695 78.4636946,8.60973846 C78.4638648,8.26156019 78.4337497,8.23677548 78.0847897,8.24554807 C77.8511855,8.25142486 77.617156,8.25048798 77.3834667,8.24444085 C77.0462464,8.23566826 77.0098362,8.25909023 77.0005634,8.59057503 C76.9837194,9.19358437 76.9642383,9.79608269 76.8955011,10.3961111 C76.6062607,12.9210849 75.7871148,15.2211227 74.0486098,17.1317595 C73.7570724,17.4521721 73.4455435,17.7521437 73.1195525,18.0371252 C73.057621,18.0912939 72.9965403,18.165137 72.8972628,18.1169303 C72.8028343,18.0710232 72.8158501,17.981168 72.8053013,17.8963379 C72.705088,17.0878965 72.9690624,16.3988647 73.4475852,15.7571878 C74.3213465,14.5854929 74.7696691,13.2314474 75.0589946,11.8171009 C75.2785621,10.7438635 75.3740114,9.65665808 75.4006386,8.56272417 C75.4077845,8.27050312 75.3768188,8.24299295 75.0913215,8.24410017 C74.737002,8.24554807 74.3826824,8.24486671 74.0282779,8.24392983 C73.7617513,8.24316329 73.7175145,8.27816849 73.7141968,8.54764894 C73.7020317,9.53622655 73.601393,10.5150095 73.4095586,11.4850199 C72.9171693,13.974222 71.7417473,16.0746194 69.8481583,17.7669634 C69.787588,17.8211321 69.7328024,17.9052808 69.6315683,17.8601403 C69.5280372,17.8138925 69.5303341,17.7167978 69.5318654,17.6229396 C69.5320355,17.608716 69.5333116,17.5943222 69.5315251,17.5803542 C69.4408397,16.8587019 69.6509644,16.2684682 70.0995423,15.6674177 C71.1262607,14.2916536 71.6457024,12.6860135 71.9117186,10.998439 C72.0400052,10.1848023 72.108402,9.36511839 72.1242252,8.5413463 C72.1296697,8.25960126 72.1078916,8.24214124 71.822054,8.24665529 C71.5952555,8.25023247 71.3683719,8.25236174 71.1415734,8.25006213 C70.8891686,8.24742183 70.8256208,8.18235133 70.8245149,7.93450427 C70.8236642,7.74295512 70.8380411,7.55038391 70.8226433,7.36019749 C70.8024816,7.11073218 70.8987816,6.94643769 71.1108629,6.81765942 C72.0015532,6.27682477 72.8589809,5.68599485 73.6967573,5.06620686 C74.6492941,4.36141839 75.5508735,3.59419972 76.4494754,2.82314837 C76.4813769,2.79580854 76.5275703,2.77511203 76.512768,2.7244354 C76.4975403,2.67214052 76.446668,2.68133897 76.405664,2.6800614 C76.3560677,2.6786135 76.3063864,2.67955038 76.2567902,2.67955038 C74.6617994,2.67946521 73.0668937,2.67929487 71.471903,2.6792097 C71.4152459,2.6792097 71.3585037,2.67938004 71.3017616,2.67903935 C70.8878075,2.67665457 70.8650085,2.6348357 71.0604159,2.26212823 C71.1425092,2.10549911 71.2132029,1.94290803 71.2912128,1.78406447 C71.4343868,1.49235444 71.6709684,1.35429255 71.9938118,1.3661313 C74.2825542,1.44993938 76.5719772,1.37558526 78.8609748,1.39134186 C79.1989608,1.39372664 79.1787139,1.40088099 79.2127422,1.7346654 C79.2773109,2.36816589 79.0346892,2.80918035 78.5405985,3.21306034 C76.9522433,4.51123385 75.3226287,5.74663647 73.5548593,6.79185266 C73.50756,6.81987386 73.4627278,6.85189809 73.3985845,6.89397247" id="Fill-7" fill="#FEFEFE"></path>
                <path d="M52.2927962,9.1776404 C51.1596543,9.1776404 50.0264273,9.18053621 48.8933705,9.17474459 C48.707491,9.17380771 48.6307572,9.22014063 48.6755044,9.41926999 C48.711064,9.57734702 48.714637,9.74240805 48.7374359,9.90372157 C48.8755908,10.8790125 49.1819304,11.7863372 49.7870384,12.5804698 C50.3937627,13.3768169 51.1718194,13.9726719 51.9957292,14.518702 C52.1526847,14.6226955 52.3023241,14.5956964 52.4557066,14.5152951 C53.1271697,14.1631138 53.723005,13.7140082 54.2168404,13.1351021 C55.1577225,12.0323105 55.5933696,10.713696 55.8473057,9.31621331 C55.8808236,9.13198884 55.757471,9.17917347 55.6710392,9.17900313 C54.5449582,9.1770442 53.4188772,9.1776404 52.2927962,9.1776404 M53.962479,15.354909 C55.1388368,15.7230173 56.3373981,15.9698423 57.5353638,16.2181152 C58.5753533,16.4336825 59.6221484,16.6117747 60.6721762,16.7705331 C60.7866813,16.7879079 60.9044192,16.8081786 60.9840454,16.8904536 C61.3765617,17.2963777 61.7664407,17.7052827 62.1532573,18.1924598 C61.7249262,18.1230455 61.3511255,18.0658108 60.9786009,18.0015068 C58.9767169,17.6559688 56.9712599,17.329935 54.9833276,16.9078284 C54.1315996,16.7270108 53.2877832,16.515191 52.4555364,16.2593379 C52.2779088,16.2047434 52.1127865,16.2061913 51.9366051,16.2612116 C49.5795509,16.9970874 47.166265,17.4779618 44.7283936,17.8463256 C44.5323907,17.875965 44.3368982,17.9091816 44.1412355,17.9410355 C44.0602482,17.954237 43.980537,17.9515967 43.9323869,17.8750281 C43.8798132,17.7914756 43.9487205,17.7350073 43.9854711,17.6666152 C44.4046144,16.886706 45.1428581,16.6811037 45.9364827,16.5674007 C47.4581426,16.3493634 48.9075773,15.8662746 50.3566718,15.3578048 C50.3040131,15.2501489 50.198015,15.2140365 50.1143054,15.1548428 C49.0495604,14.4026142 48.161252,13.494523 47.595872,12.3014502 C47.1695827,11.4018761 46.9422738,10.447963 46.831852,9.4627071 C46.8013116,9.18973465 46.7814051,9.17082673 46.5020328,9.1700602 C45.5521333,9.1674199 44.6022337,9.1674199 43.6523341,9.165972 C43.5602026,9.16580166 43.468071,9.16086175 43.3760245,9.16026555 C43.235913,9.15932867 43.1656446,9.08565592 43.1639432,8.94989365 C43.160115,8.64472663 43.157648,8.33955961 43.1602001,8.03447777 C43.1616463,7.86890571 43.2619447,7.79088925 43.41873,7.78654554 C43.6241757,7.78083909 43.8297917,7.78254251 44.0353225,7.78160563 C44.8505551,7.77811363 45.6657877,7.77658055 46.4809353,7.77061859 C46.772898,7.76848932 46.7947612,7.74515252 46.795782,7.45293147 C46.7975685,6.94199177 46.7940806,6.4309669 46.7935702,5.92002721 C46.7932299,5.61400848 46.8337235,5.57304132 47.1306203,5.57321166 C47.5772416,5.57329683 48.0238628,5.57363752 48.470399,5.57321166 C48.8023449,5.57295615 48.828972,5.59569676 48.8206351,5.91951618 C48.8071088,6.44442389 48.7872874,6.96924643 48.7731656,7.49415414 C48.76636,7.74966658 48.7937527,7.77888016 49.0459874,7.77896533 C51.243534,7.7796467 53.4410806,7.77922085 55.6386272,7.77802846 C55.8883098,7.77785811 55.9188502,7.74574872 55.9189352,7.49432448 C55.9190203,6.94786856 55.9148518,6.40132746 55.9163831,5.85487153 C55.9170637,5.60668379 55.9533038,5.57423371 56.2040923,5.57372269 C56.6719812,5.57278581 57.1398701,5.57823674 57.6076739,5.57116756 C57.8081856,5.56810141 57.89164,5.64756578 57.8833881,5.84925026 C57.8612697,6.38812598 57.8467226,6.92734239 57.8301338,7.46638846 C57.8220521,7.73101417 57.8642472,7.77794328 58.1306887,7.77896533 C59.0522597,7.78254251 59.9738307,7.78237217 60.8954017,7.78535314 C61.1933193,7.78629002 61.2162034,7.81090439 61.2202868,8.11598623 C61.2235194,8.35003562 61.2209673,8.58417018 61.2263268,8.8181344 C61.2324519,9.0851449 61.1682235,9.16690888 60.8971882,9.16835678 C60.0678338,9.17304117 59.2383944,9.17338186 58.4091251,9.16724956 C57.7362158,9.16222448 57.7757737,9.13820631 57.6918089,9.77213266 C57.4050355,11.9388781 56.2581122,13.583782 54.5493819,14.8777821 C54.3577175,15.0229984 54.1651175,15.1671074 53.9733681,15.3121533 C53.9691996,15.3153046 53.9698802,15.3248437 53.962479,15.354909" id="Fill-9" fill="#FEFEFE"></path>
                <path d="M64.804537,5.74671312 C64.804537,6.25032813 64.8089607,6.75402831 64.80207,7.25747297 C64.799688,7.42789977 64.8506453,7.50429798 65.0330369,7.49297027 C65.2447779,7.47976879 65.4578801,7.48998929 65.6704718,7.49050031 C65.9283211,7.49118168 65.9563094,7.46060536 65.9592869,7.19410589 C65.9698356,6.27272805 65.9200693,5.35083919 65.9934002,4.42988721 C66.0153485,4.15546685 65.9022044,4.03179883 65.6258947,4.02013043 C65.428871,4.01178369 65.2298055,4.05138812 65.0326967,4.04295621 C64.8500498,4.03520567 64.7995178,4.10768603 64.8019849,4.2784535 C64.809301,4.76775982 64.804537,5.25732164 64.804537,5.74671312 L64.804537,5.74671312 Z M68.6934595,5.74671312 L68.6824854,5.74671312 C68.6824854,5.25757715 68.6731276,4.76818567 68.6872494,4.27947555 C68.6926088,4.09320699 68.6132378,4.04815163 68.4559421,4.04891817 C68.2010702,4.0502809 67.9459432,4.05411359 67.6914116,4.04406343 C67.5197389,4.03724977 67.464528,4.12190955 67.4648683,4.27479116 C67.4672503,5.23160005 67.4806915,6.18832378 67.4465781,7.1450475 C67.436795,7.41921234 67.5634653,7.52967889 67.8407958,7.52661274 C68.0385001,7.5243983 68.2365447,7.48794519 68.4333984,7.49518471 C68.6308475,7.5025094 68.6981384,7.42534464 68.6956714,7.23532856 C68.6891209,6.73920859 68.6934595,6.24291827 68.6934595,5.74671312 L68.6934595,5.74671312 Z M65.3346126,8.69822242 C65.2427363,8.69822242 65.1499241,8.7061433 65.0590686,8.69660417 C64.8588121,8.67548181 64.7944136,8.77053244 64.8010491,8.95807856 C64.8098114,9.20584045 64.8077697,9.45419854 64.8046221,9.70221594 C64.794839,10.4599807 64.8377146,11.218086 64.7712744,11.9756804 C64.743116,12.2965189 64.85626,12.4000014 65.1753602,12.3997459 C65.3168328,12.3996607 65.4582204,12.3867147 65.599778,12.3831376 C65.9597973,12.3741095 65.958266,12.3749612 65.9587764,12.0056605 C65.9601376,11.1125594 65.9502694,10.2192028 65.9698356,9.32652749 C65.9837872,8.68996085 65.9617539,8.6498454 65.3346126,8.69822242 L65.3346126,8.69822242 Z M67.464528,10.5273508 C67.464528,11.0518326 67.4636773,11.5763996 67.4649534,12.1008815 C67.4655489,12.3613338 67.4883478,12.3826265 67.7388811,12.3841596 C67.9370958,12.3854372 68.1353106,12.3870554 68.3335253,12.3896106 C68.5986907,12.3931026 68.6207241,12.3714692 68.6431827,12.1091431 C68.7338681,11.0476592 68.666322,9.98387582 68.6933744,8.92145511 C68.6975429,8.75818267 68.6286356,8.68970534 68.4661506,8.69370837 C68.2185948,8.69975549 67.9703585,8.7046954 67.7230579,8.69404905 C67.529522,8.68561714 67.4585731,8.75971574 67.4617207,8.95382002 C67.4702278,9.47821671 67.4646131,10.0027837 67.464528,10.5273508 L67.464528,10.5273508 Z M63.2837279,8.17408125 C63.2837279,6.51325042 63.2833876,4.85250477 63.2840682,3.19167395 C63.2841533,2.85311998 63.3106103,2.82382122 63.6438322,2.82339536 C64.3101911,2.82245848 64.97655,2.8268022 65.6429089,2.82799459 C65.9273003,2.82850561 65.9590316,2.79571485 65.9583511,2.51013712 C65.9569049,1.83592498 65.9541826,1.16171283 65.9538423,0.487415519 C65.9536722,0.170750443 66.0122008,0.116155953 66.3267073,0.118370394 C66.5889803,0.120158981 66.8512533,0.119733127 67.1134412,0.118200052 C67.4065949,0.116496636 67.4781393,0.180545086 67.4783095,0.477706047 C67.4785647,1.10226361 67.4726948,1.72682117 67.4691218,2.35129356 C67.4688666,2.40810249 67.4652086,2.46491142 67.465719,2.52163518 C67.468101,2.78115064 67.5161659,2.83012386 67.7794598,2.82918698 C68.4316119,2.82671702 69.0837639,2.82143643 69.735916,2.8186258 C70.0869178,2.81709272 70.1457867,2.87390165 70.1457016,3.2227613 C70.1444256,6.33847992 70.1430644,9.45428371 70.1383005,12.5700023 C70.1379602,12.810695 70.0984874,13.0514729 70.1000187,13.2920805 C70.1014649,13.511225 69.9931698,13.5779989 69.7981878,13.5769768 C69.3445057,13.5746772 68.8908236,13.5768065 68.4370564,13.5768065 C68.2244647,13.5768065 68.0117879,13.5753586 67.7991111,13.5758696 C67.4959191,13.5767213 67.4641027,13.6087455 67.4641877,13.9217483 C67.4642728,14.3050169 67.4667399,14.6882856 67.4684413,15.0715542 C67.4722695,15.9090388 67.4774588,16.7465234 67.4795855,17.584008 C67.4805213,17.9728128 67.4270118,18.0206787 67.0357716,18.0155685 C66.8019122,18.0125023 66.5679678,18.0139503 66.3340233,18.0156537 C66.0080324,18.0179533 65.953417,17.9667656 65.953417,17.6328109 C65.9533319,16.5611066 65.9553736,15.4894022 65.9563944,14.4176979 C65.9565646,14.2260636 65.9518857,14.0343441 65.9563944,13.8427949 C65.9609032,13.6549081 65.8817874,13.577573 65.6885068,13.5798726 C65.015087,13.5877084 64.3416673,13.5841312 63.6681625,13.5844719 C63.3505084,13.584557 63.2808355,13.5174424 63.2806654,13.1989888 C63.2798147,11.5240196 63.28024,9.84905042 63.28024,8.17408125 L63.2837279,8.17408125 Z" id="Fill-11" fill="#FEFEFE"></path>
                <g id="Group-15" transform="translate(107.954733, 0.342898)">
                    <mask id="mask-2" fill="white">
                        <use xlink:href="#path-1"></use>
                    </mask>
                    <g id="Clip-14"></g>
                    <path d="M6.26332262,3.02892956 L6.26332262,3.02313795 C5.68237473,3.02313795 5.09947022,3.05209603 4.52107445,3.01351365 C4.09197778,2.98498143 3.77883249,3.09365938 3.52515163,3.45001406 C3.40860476,3.61362718 3.39329203,3.71651352 3.50932848,3.8750164 C4.1273672,4.719485 4.82494703,5.48891811 5.6130421,6.17803514 C5.77152884,6.31660805 5.88280133,6.32427343 6.05022049,6.1921735 C7.08918909,5.37240444 7.89744592,4.36031969 8.56295409,3.22465209 C8.64955608,3.07679556 8.64725917,3.02347863 8.45244724,3.02569307 C7.72279575,3.0337843 6.99305918,3.02892956 6.26332262,3.02892956 M4.5488075,1.53179704 L8.26137842,1.53179704 C8.93488324,1.53179704 9.60838806,1.53648144 10.2817227,1.52804953 C10.4262579,1.52626094 10.4968666,1.5754045 10.5520775,1.70384208 C10.7796416,2.23317867 10.6968678,2.7542537 10.4796823,3.25096987 C10.13404,4.04144017 9.63195265,4.7393298 9.10562016,5.41771531 C8.60344775,6.06501348 8.031092,6.64400465 7.38242783,7.14583107 C7.34414601,7.17547052 7.30986251,7.21030538 7.26451982,7.25101703 C8.08545219,7.78784865 8.96159545,8.17435379 9.88078448,8.46708587 C10.2783199,8.59373487 10.677812,8.71493293 11.0791756,8.82897665 C11.2734771,8.8842525 11.3954685,8.99710383 11.4660772,9.18558684 C11.5504673,9.41077846 11.6565505,9.62779369 11.741366,9.85281497 C11.8172491,10.0544143 11.7592309,10.1245099 11.5489361,10.0798804 C9.71072813,9.68971287 7.89744592,9.22135858 6.2299749,8.31650388 C6.01236402,8.19845713 5.81610589,8.17861233 5.58854174,8.29384844 C3.93544767,9.13031098 2.16597688,9.62838988 0.378641229,10.0718743 C0.152438208,10.1280019 0.0773207696,10.0648051 0.0753641432,9.8334812 C0.073067234,9.55667606 0.0860830529,9.27910439 0.0684734156,9.0033213 C0.057159011,8.82667704 0.144526632,8.76424683 0.287275285,8.72430172 C0.79123418,8.58325886 1.29731984,8.44911483 1.79779084,8.29640356 C2.72412581,8.01372164 3.64569683,7.71613483 4.50550651,7.26319645 C4.49912621,7.1880758 4.43940657,7.16729412 4.39627572,7.13450336 C3.58929495,6.52152903 2.87504126,5.81648505 2.28031191,4.99390535 C2.16002193,4.82756676 2.0067245,4.76258143 1.80502185,4.77544222 C1.39489595,4.80158966 0.984174553,4.81939036 0.573708371,4.84017204 C0.491700205,4.84434541 0.395315089,4.87943578 0.354396077,4.76896924 C0.31058466,4.65075215 0.40977711,4.60475992 0.481236507,4.55306123 C0.960269683,4.20633086 1.39498102,3.81224552 1.77558738,3.35879612 C2.50608958,2.48860594 2.95977168,1.48461241 3.21685537,0.384461043 C3.28746406,0.082189833 3.34616286,0.0428409181 3.65471433,0.0457367257 C4.02324065,0.0491435582 4.39176697,0.0481215084 4.76029329,0.0474401419 C5.06773884,0.0467587754 5.12873454,0.124690068 5.0408565,0.421595516 C4.93766572,0.770199647 4.76250513,1.08720541 4.60070064,1.40991761 C4.58538791,1.44049393 4.57373322,1.47285884 4.5488075,1.53179704" id="Fill-13" fill="#FEFEFE" mask="url(#mask-2)"></path>
                </g>
                <path d="M104.965254,29.4347769 C105.843354,29.4347769 106.721454,29.4323069 107.599554,29.4374172 C107.730818,29.4381837 107.782881,29.413399 107.78169,29.2661387 C107.778798,28.9308212 107.752937,28.6014657 107.646258,28.2818196 C107.211206,26.9789617 105.848629,26.1809112 104.4852,26.4304617 C103.080683,26.687422 102.121341,27.874618 102.170171,29.2824915 C102.175275,29.4307739 102.239504,29.4366507 102.352222,29.43631 C103.223261,29.4334993 104.094215,29.4347769 104.965254,29.4347769 M105.435015,30.912235 C104.414507,30.912235 103.393913,30.9156418 102.373405,30.9086578 C102.219172,30.9076357 102.170171,30.9395748 102.170001,31.1048913 C102.167534,32.7572902 103.380642,33.9587949 105.078058,33.9670565 C106.169515,33.972337 107.260973,33.9650124 108.352345,33.9697819 C108.820149,33.9717408 109.135761,34.2614919 109.145884,34.6780624 C109.155582,35.0757249 108.861493,35.4225404 108.46115,35.4256066 C107.1856,35.4355716 105.907157,35.4793494 104.63501,35.4121496 C102.68,35.3090078 101.086285,33.8427071 100.729414,31.9143547 C100.694705,31.7269789 100.673777,31.5337264 100.675479,31.3433696 C100.68339,30.4428586 100.597724,29.5369819 100.710783,28.6426884 C100.919376,26.9937814 101.842819,25.8481489 103.362182,25.2291274 C105.235694,24.4658266 107.289556,25.0755644 108.496114,26.7011345 C109.027466,27.4170804 109.280551,28.2329316 109.285996,29.1248403 C109.287952,29.4512149 109.289824,29.7776746 109.285996,30.1040491 C109.280041,30.6108155 108.980422,30.9103612 108.475442,30.9114684 C107.461995,30.913768 106.448547,30.9121498 105.435015,30.912235" id="Fill-16" fill="#FEFEFE"></path>
                <path d="M79.8012614,25.8270009 C80.397522,25.4285719 81.0245782,25.307459 81.6769005,25.2842074 C82.7823093,25.2448585 83.887633,25.2245026 84.9876824,25.3761918 C85.2968294,25.4188624 85.599511,25.4925352 85.8904528,25.6064937 C86.6754853,25.91379 87.0752326,26.5150959 87.1834425,27.3302658 C87.2113457,27.5406377 87.2284449,27.7542461 87.2284449,27.9663214 C87.2283599,30.194475 87.2243615,32.4227137 87.2199379,34.6509525 C87.2190021,35.1335303 86.9747641,35.4353757 86.5505164,35.4880964 C86.1554481,35.5371548 85.7991719,35.2784059 85.729499,34.8867053 C85.7135057,34.7965946 85.7093372,34.7034177 85.7093372,34.6116036 C85.7089119,32.66017 85.7105282,30.7086512 85.7098477,28.7572175 C85.7096775,28.4100613 85.7130804,28.0633309 85.6208637,27.7222218 C85.5006588,27.2774599 85.2357486,26.97587 84.7993358,26.8227329 C84.4959737,26.7163546 84.1828284,26.657246 83.8646639,26.6375716 C82.9301622,26.5796554 81.9954903,26.5316191 81.0838725,26.8263952 C80.2104515,27.1089068 79.8298452,27.5718954 79.8201471,28.4898664 C79.7987093,30.4978534 79.8056851,32.5061811 79.8008361,34.5144237 C79.8005808,34.6065785 79.8023673,34.699074 79.7964974,34.7909733 C79.7709762,35.1949385 79.4619994,35.4909071 79.0614865,35.4980614 C78.6684598,35.5049602 78.3400869,35.2089065 78.3019752,34.8115847 C78.2966157,34.7552016 78.2976366,34.6981371 78.2976366,34.6414134 C78.2974664,30.8875099 78.2976366,27.1335212 78.2967859,23.3796177 C78.2967859,23.2364455 78.3056332,23.0965099 78.3664588,22.9641545 C78.5053793,22.6618833 78.8481292,22.4794474 79.1710576,22.5366822 C79.5237607,22.5991124 79.7861188,22.864675 79.7922439,23.2165156 C79.8058552,23.9968506 79.7994749,24.7775262 79.8012614,25.5580315 C79.8014315,25.6336632 79.8012614,25.7092097 79.8012614,25.8270009" id="Fill-18" fill="#FEFEFE"></path>
                <path d="M49.4603753,22.5227397 C50.2529792,22.5607259 50.8083208,23.0082133 51.1892674,23.706103 C51.4632802,24.2082701 51.5717453,24.7704826 51.7332946,25.3121689 C52.6435512,28.3648612 53.5477678,31.4194271 54.4529202,34.4736524 C54.5752519,34.8864754 54.4506233,35.2257959 54.118252,35.4044842 C53.8077439,35.5715042 53.4219482,35.5010679 53.1884291,35.2373791 C53.0862592,35.1220578 53.0399807,34.9808446 52.9977006,34.8383539 C52.1437608,31.9610283 51.2905866,29.0834473 50.4372423,26.2058663 C50.2943235,25.724055 50.1539568,25.241392 50.0077203,24.7606028 C49.93524,24.52238 49.8454054,24.2902895 49.6567185,24.1149228 C49.4909157,23.960934 49.3566741,23.9622968 49.1946144,24.1210551 C49.0167316,24.2953146 48.9301296,24.5199101 48.8610522,24.7524264 C47.869553,28.091037 46.8767778,31.429307 45.8896173,34.7691952 C45.7919561,35.0996579 45.6563534,35.3811474 45.2909747,35.4714285 C44.7393762,35.607787 44.2068336,35.1183103 44.4032618,34.4802106 C44.7697464,33.2895226 45.1151335,32.0922766 45.4699635,30.8980114 C46.1172665,28.7197679 46.7657606,26.5418651 47.4120427,24.3632809 C47.5426263,23.9229478 47.7320788,23.5153203 48.0438629,23.1727633 C48.414516,22.7655617 48.8707502,22.5390925 49.4603753,22.5227397" id="Fill-20" fill="#FEFEFE"></path>
                <path d="M113.860716,12.0505796 L113.860716,12.0496427 C113.010434,12.0496427 112.160237,12.0493872 111.309956,12.0498131 C111.013739,12.0499834 110.997406,12.0659104 110.997236,12.363923 C110.996555,13.5839949 110.996385,14.804152 110.996725,16.0242238 C110.996725,16.3159339 111.020885,16.3400372 111.311997,16.3401224 C113.012476,16.3408889 114.712869,16.3413148 116.413348,16.3411444 C116.701142,16.3411444 116.744443,16.2978776 116.743082,16.00736 C116.737382,14.7872881 116.730832,13.5672163 116.72343,12.3471444 C116.721729,12.0744274 116.696293,12.0510055 116.411391,12.0508351 C115.561194,12.0501538 114.710913,12.0505796 113.860716,12.0505796 L113.860716,12.0505796 Z M113.846594,10.76433 C115.271103,10.76433 116.695612,10.763819 118.120036,10.7647559 C118.44288,10.7650114 118.47342,10.7920957 118.472824,11.1169372 C118.469081,13.096392 118.500983,15.0761875 118.41336,17.0547055 C118.409021,17.1532481 118.395921,17.2519611 118.378481,17.3490558 C118.356958,17.4681246 118.277927,17.5339616 118.159594,17.5468224 C118.047046,17.5590018 117.933646,17.5733957 117.820928,17.5718626 C115.265914,17.5368574 112.712091,17.6544783 110.157248,17.6293529 C109.930534,17.6271385 109.70365,17.6326746 109.476937,17.6292678 C109.239505,17.6257758 109.175532,17.5626642 109.174511,17.3228232 C109.172044,16.7623141 109.174766,16.2017198 109.174596,15.6412107 C109.174341,14.17244 109.173745,12.7036694 109.173235,11.2349839 C109.173064,10.7784684 109.191695,10.7601567 109.658138,10.7601567 L113.846594,10.7601567 L113.846594,10.76433 Z" id="Fill-22" fill="#FEFEFE"></path>
                <path d="M98.3646945,31.6544219 C98.3646945,32.6694025 98.3684376,33.6842979 98.3632483,34.6992784 C98.3602708,35.2881494 97.873241,35.6542987 97.3522679,35.4706705 C97.0310409,35.3574785 96.8549446,35.0856132 96.8534984,34.6853956 C96.8510313,33.9756672 96.8535834,33.2658537 96.8525626,32.5561253 C96.8508612,31.3211485 96.8532431,30.0861718 96.8431197,28.8512802 C96.8391214,28.3621442 96.7343143,27.8948971 96.4459246,27.4840331 C96.2145322,27.1545925 95.9034286,26.9375772 95.5087005,26.8759987 C94.5225609,26.7222654 93.5281693,26.731038 92.5423699,26.8453372 C91.7038279,26.9426023 91.2883426,27.5429714 91.0575457,28.296733 C90.9589488,28.6189342 90.9458479,28.9533148 90.9455076,29.2871844 C90.9440614,31.0828406 90.9454225,32.878582 90.9444017,34.6742382 C90.9441465,35.1050322 90.7694112,35.3693172 90.4213019,35.4779952 C89.9514563,35.6246593 89.4838226,35.3084201 89.4448602,34.8168142 C89.4404366,34.7603459 89.4417977,34.7033666 89.4417977,34.6466429 C89.4416276,32.8296088 89.4406918,31.0126599 89.442223,29.1957109 C89.4427335,28.5391292 89.5141929,27.8943861 89.7711064,27.2809008 C90.1871022,26.2872981 90.9050139,25.6543086 91.9843911,25.5210163 C93.2892908,25.3598731 94.6015065,25.3435203 95.9053002,25.5407759 C97.0673661,25.7166536 97.7423171,26.4656458 98.1207117,27.5291737 C98.3158639,28.0779292 98.3601007,28.6507029 98.3635035,29.2270538 C98.3682674,30.0361765 98.3646945,30.8452992 98.3646945,31.6544219" id="Fill-24" fill="#FEFEFE"></path>
                <g id="Group-28" transform="translate(56.061599, 25.383116)">
                    <mask id="mask-4" fill="white">
                        <use xlink:href="#path-3"></use>
                    </mask>
                    <g id="Clip-27"></g>
                    <path d="M8.95537678,6.27298356 C8.95537678,7.28796412 8.95920496,8.30285951 8.9538455,9.31784007 C8.95078296,9.90585935 8.4615413,10.2719235 7.94124883,10.087188 C7.62070238,9.97331464 7.44545672,9.70153458 7.44418066,9.30063557 C7.44179868,8.52694392 7.44426573,7.75333744 7.44324488,6.97973096 C7.44162854,5.8086323 7.44418066,4.63753364 7.43371696,3.46652016 C7.42946343,2.97738419 7.32448617,2.51022229 7.03558603,2.09961381 C6.80385341,1.77034345 6.49249461,1.55392442 6.09768144,1.49260144 C5.11154175,1.33954949 4.11800091,1.35326199 3.13118066,1.46125858 C2.36843666,1.54472597 1.9500589,2.0733812 1.69748396,2.7529591 C1.55949927,3.1241335 1.53618989,3.51430098 1.53601975,3.90574603 C1.53491383,5.69433307 1.53516904,7.48292011 1.53610482,9.27150715 C1.53618989,9.45820157 1.52376957,9.63935988 1.41402835,9.80075857 C1.24022889,10.0563562 0.909644103,10.1859862 0.612917462,10.1115469 C0.297900617,10.0325083 0.0783331111,9.79019739 0.0393707252,9.47438402 C0.0315442198,9.41135762 0.0325650683,9.34688332 0.0325650683,9.28309038 C0.0323098562,7.45191794 0.0308636541,5.62074549 0.0331605633,3.78957305 C0.0339261997,3.14023078 0.10810786,2.50281243 0.362384216,1.89622591 C0.77889042,0.902623225 1.49739765,0.270315121 2.57668976,0.137533826 C3.88167448,-0.0230131532 5.19372006,-0.0391104366 6.49759885,0.157804479 C7.6511577,0.331893618 8.32491773,1.07517929 8.70611959,2.12729432 C8.9068014,2.68107494 8.95154859,3.2618547 8.95435593,3.84561544 C8.95835425,4.65473815 8.95537678,5.46386086 8.95537678,6.27298356" id="Fill-26" fill="#FEFEFE" mask="url(#mask-4)"></path>
                </g>
                <path d="M104.837589,7.71222549 C104.020229,7.71222549 103.212823,7.71222549 102.405502,7.71222549 C102.327492,7.71222549 102.249483,7.71086275 102.171643,7.71341788 C101.973428,7.71989086 101.874916,7.62739536 101.851692,7.42766981 C101.78287,6.83598818 101.930467,6.29992309 102.267007,5.81802664 C102.942809,4.85048622 103.521715,3.83107678 103.959829,2.73305468 C104.222528,2.07451397 104.434098,1.39987597 104.618617,0.715954357 C104.696967,0.42543672 104.751667,0.386002634 105.047713,0.386684001 C105.402118,0.387365367 105.756523,0.386087805 106.110842,0.3907722 C106.400848,0.394604886 106.445,0.450391768 106.361546,0.719616702 C105.970646,1.98099642 105.475024,3.19868351 104.836483,4.35606966 C104.504027,4.95856798 104.13482,5.5377295 103.737539,6.09926066 C103.689474,6.1671418 103.644387,6.23706703 103.582456,6.32888117 C103.917889,6.39045966 104.225845,6.3521328 104.531164,6.33620586 C104.820745,6.32113062 105.108539,6.27547907 105.397524,6.24728753 C105.576088,6.22982751 105.668389,6.1227678 105.733383,5.96596834 C105.955418,5.42973291 106.183748,4.89613778 106.409951,4.36160577 C106.527093,4.08480063 106.592342,4.04425932 106.890941,4.04706996 C107.238199,4.05039162 107.585543,4.0492844 107.932802,4.05166918 C108.251476,4.05379845 108.282697,4.10217548 108.162322,4.39933644 C107.300386,6.52724399 106.172178,8.50039617 104.740098,10.2967338 C104.519339,10.5737092 104.296794,10.8492368 104.075525,11.1257864 C104.071612,11.1306412 104.072633,11.1394989 104.069741,11.1554259 C104.133288,11.2124903 104.214191,11.182425 104.28582,11.1836174 C105.335252,11.2012478 106.382983,11.1481864 107.430799,11.10015 C107.761129,11.0849896 107.797794,11.1212724 107.789798,11.4533534 C107.784864,11.6588705 107.785799,11.8648136 107.790819,12.0704159 C107.79805,12.3668955 107.750495,12.4380131 107.452152,12.4661195 C107.050363,12.5040205 106.647128,12.5388554 106.243808,12.547628 C105.046267,12.5737754 103.848472,12.5874879 102.650761,12.604011 C102.314647,12.6086954 102.242507,12.5412401 102.211541,12.2038786 C102.158797,11.6275277 102.340848,11.1252754 102.714649,10.6944814 C103.474075,9.81943653 104.149112,8.88426102 104.740098,7.8878477 C104.77872,7.82269203 104.813684,7.75540709 104.837589,7.71222549" id="Fill-29" fill="#FEFEFE"></path>
                <path d="M52.2236677,3.3633272 C50.2392232,3.3633272 48.2547787,3.3633272 46.2703342,3.3633272 C45.9183116,3.36341238 45.8889622,3.39611797 45.8923651,3.75656084 C45.8963634,4.17517538 45.89228,4.59387509 45.8999364,5.01240445 C45.9034243,5.20403878 45.8208206,5.28111836 45.6326442,5.27881875 C45.2003999,5.27353816 44.7679855,5.27541192 44.3357412,5.27728568 C44.1704488,5.27805221 44.0926091,5.21374825 44.0935449,5.03608194 C44.0986491,4.0995437 44.1005207,3.16283511 44.0927792,2.22629687 C44.0908226,1.98832963 44.2307639,1.98824445 44.3983532,1.98824445 C46.4891361,1.9892665 48.579919,1.98867031 50.6707019,1.9884148 C51.0917168,1.98832963 51.0917168,1.98824445 50.8997973,1.61306703 C50.7257426,1.27272447 50.5492209,0.933659468 50.3783138,0.591698661 C50.2526644,0.340189255 50.2813332,0.290619843 50.5542401,0.29555975 C51.0430564,0.304502685 51.5317025,0.324177142 52.0205188,0.331161149 C52.1701582,0.333290419 52.2524216,0.409262783 52.320308,0.527735381 C52.5420874,0.914836719 52.7776482,1.29461337 52.9869221,1.68835803 C53.1056808,1.91184624 53.264678,1.99684671 53.51368,1.995995 C55.5760492,1.98884065 57.6385036,1.99011821 59.7008728,1.98892582 C59.7930044,1.98884065 59.885136,1.9884148 59.9772676,1.9892665 C60.2915188,1.99224748 60.3048749,2.00493793 60.3049599,2.31197871 C60.3053853,3.10670755 60.3052151,3.90135122 60.3052151,4.69608006 C60.3052151,4.80961275 60.3046197,4.92314544 60.3052151,5.03667814 C60.3059808,5.19449965 60.2231219,5.27558226 60.0706752,5.27660431 C59.6242241,5.27967046 59.1776879,5.27890392 58.7312368,5.27703016 C58.5339579,5.27617846 58.482405,5.14910361 58.4836811,4.97884715 C58.4869988,4.54609426 58.4887853,4.1132562 58.4915076,3.68041813 C58.4932941,3.39168908 58.4669221,3.36426408 58.1770012,3.36426408 C56.1925567,3.36409374 54.2081122,3.36417891 52.2236677,3.36417891 L52.2236677,3.3633272 Z" id="Fill-31" fill="#FEFEFE"></path>
                <path d="M73.2994686,35.4320966 C72.6665425,35.4035644 71.8673882,35.5119868 71.0829512,35.3472665 C69.3364495,34.980521 68.0631111,34.0411721 67.4794409,32.2955963 C67.3618732,31.9438409 67.3226556,31.576414 67.3230809,31.2052396 C67.3238466,30.552235 67.3242719,29.8993155 67.3230809,29.2463109 C67.3201035,27.5900793 68.11594,26.4031389 69.4987644,25.576471 C70.2825209,25.1078612 71.1472646,24.911287 72.0573511,24.9104353 C73.056932,24.9094984 74.0565128,24.9068581 75.0560937,24.9116277 C75.575025,24.9141828 75.9170944,25.2984735 75.8384039,25.7741525 C75.7904241,26.0637332 75.5580109,26.3068959 75.2662183,26.3594463 C75.1554563,26.3793762 75.040781,26.3836348 74.9278071,26.3843162 C73.8574474,26.3903633 72.7847057,26.3514402 71.7173235,26.4101229 C70.5818847,26.4725531 69.6731594,26.9886882 69.1034408,28.0132931 C68.9538014,28.2823477 68.8638817,28.5747391 68.8471227,28.8833981 C68.8036516,29.6846851 68.8044172,30.4878458 68.8374247,31.288196 C68.8848941,32.4393646 69.5450429,33.1779659 70.5440282,33.6536449 C71.0396502,33.8897384 71.5709168,33.9663921 72.1145186,33.9674993 C73.142428,33.9695434 74.1704225,33.9661366 75.1983319,33.9691176 C75.630321,33.9703951 75.9361502,34.1964385 76.0024203,34.5500677 C76.0888521,35.0111825 75.7647327,35.4213651 75.287486,35.4295415 C74.6779544,35.4400175 74.0681675,35.4320966 73.2994686,35.4320966" id="Fill-33" fill="#FEFEFE"></path>
                <g id="Group">
                    <g id="Group-7">
                        <path d="M24.5324225,15.850288 C24.5085473,15.7753377 24.4970804,15.7347112 24.4827039,15.6951919 C23.4168786,12.7685525 22.3521658,9.84148725 21.2837733,6.91569954 C20.9920513,6.11679733 20.5532273,5.41243472 19.899099,4.85294766 C18.7878339,3.90244141 17.2848106,3.7186428 16.0361135,4.39549523 C15.0538941,4.92789797 14.4548755,5.77790267 14.08066,6.80310373 C13.2408359,9.10373769 12.4027233,11.4049678 11.5640116,13.7060276 C11.3072894,14.4102199 11.0507383,15.1145825 10.7885393,15.8342759 C10.835006,15.8342759 10.8629887,15.8376827 10.8899446,15.8337649 C11.9336917,15.6820756 12.9809474,15.56207 14.0335087,15.4919744 C14.1500606,15.4842238 14.1899381,15.4240933 14.223312,15.3303202 C14.3538981,14.9634895 14.4881638,14.5979364 14.6218306,14.2322129 C15.4068872,12.0842902 16.1919439,9.93628237 16.9777708,7.78861519 C17.053675,7.58122426 17.1470363,7.38235042 17.301412,7.2189928 C17.5251026,6.98238829 17.7026689,6.97404155 17.9438167,7.19020507 C18.1900989,7.41096781 18.319059,7.70182613 18.4290217,8.00367149 C19.3189923,10.4450076 20.2102464,12.8859179 21.0959382,15.3288723 C21.1436885,15.4604612 21.2151429,15.4910375 21.3440175,15.5015987 C21.8764595,15.545121 22.408388,15.5967345 22.9394608,15.655332 C23.4617195,15.7129075 23.9827801,15.782492 24.5324225,15.850288 M35.3332416,17.6217557 C35.3282783,18.7883403 35.2110418,19.943512 34.9906885,21.0892298 C34.9608232,21.2443258 34.9123027,21.2601676 34.7688805,21.2111092 C32.07826,20.2909238 29.3277376,19.6016364 26.522619,19.1340486 C22.9971377,18.5464552 19.4475245,18.3056773 15.873266,18.422191 C13.5692693,18.4973116 11.2794778,18.7139862 9.00534641,19.0846496 C6.14879776,19.5501932 3.34855687,20.2438243 0.613352279,21.1897313 C0.422949932,21.2555684 0.359368384,21.2461144 0.320603322,21.0248406 C-0.713302814,15.1306798 0.745136375,9.93738959 4.81914758,5.5332921 C7.4591082,2.67938855 10.7578182,0.933046239 14.5988967,0.266073615 C23.2343491,-1.23344369 31.6065756,3.73124808 34.4069877,11.9811484 C35.0280844,13.8105322 35.3256255,15.6925517 35.3332416,17.6217557" id="Fill-1" fill="#C9181E"></path>
                        <path d="M17.4198037,21.328202 C19.5161122,21.3257321 21.4067005,21.4465895 23.2917265,21.667267 C23.4239385,21.6827681 23.4492684,21.7540561 23.4840115,21.8491919 C24.2382615,23.9179057 24.9941374,25.9859382 25.7489865,28.0543965 C26.2514775,29.4311827 26.7502889,30.8092464 27.2586845,32.1839033 C27.3111415,32.3257979 27.2877797,32.3880577 27.161558,32.4676073 C24.9959345,33.8328954 22.6504343,34.7153502 20.1075147,35.0516045 C15.8287247,35.6173942 11.8549208,34.7617683 8.18909796,32.4884741 C8.02471014,32.3865247 8.01846323,32.2984581 8.0780228,32.1359521 C9.33339467,28.7126817 10.5850869,25.2882189 11.8299331,21.861201 C11.885813,21.7072121 11.9646267,21.6578982 12.1130978,21.6417158 C13.2114412,21.5218805 14.3117528,21.426404 15.415573,21.3765791 C16.1491997,21.3435328 16.8831686,21.3179815 17.4198037,21.328202" id="Fill-3" fill="#C9181E"></path>
                        <path d="M5.48088344,30.3668352 C5.02785422,29.9442176 4.62462912,29.5159787 4.24117162,29.0692578 C3.02533498,27.6527821 2.05672187,26.085043 1.33490443,24.3655294 C1.27748422,24.2288303 1.27080944,24.1687849 1.43434153,24.1126573 C3.69597911,23.3363254 5.99680962,22.7043579 8.34256653,22.2355778 C8.36892335,22.230212 8.39733395,22.2348964 8.44876398,22.2348964 C7.46046883,24.9429024 6.47670911,27.6383882 5.48088344,30.3668352" id="Fill-35" fill="#C9191E"></path>
                        <path d="M26.8756635,22.2429706 C27.6258059,22.3810325 28.3250318,22.5391095 29.021776,22.7071515 C30.6536739,23.1007259 32.2611832,23.5775972 33.8529468,24.1096593 C34.0442904,24.1736226 34.0410386,24.2372452 33.9726649,24.39924 C33.0444428,26.597158 31.7250615,28.5292579 30.0176017,30.2000537 C29.976954,30.2398284 29.9361352,30.279518 29.8941183,30.3179301 C29.8843629,30.3267878 29.8693018,30.329854 29.8337886,30.3461216 C28.8520826,27.6569384 27.8711469,24.9699697 26.8756635,22.2429706" id="Fill-37" fill="#C9191E"></path>
                    </g>
                </g>
                <path d="M112.070564,27.3737625 C112.070564,26.0255937 112.068353,24.6773398 112.071585,23.329171 C112.073031,22.7579304 112.559125,22.3949324 113.074739,22.5713211 C113.372997,22.6732706 113.564406,22.9294644 113.570191,23.2671667 C113.578358,23.749489 113.583292,24.2324075 113.56866,24.7144743 C113.562449,24.9209283 113.604389,24.9926421 113.830933,24.9882984 C114.659862,24.9724566 115.489301,24.9795258 116.318485,24.9833585 C116.702835,24.9850619 116.97923,25.1692012 117.083952,25.4765827 C117.246862,25.9545613 116.901985,26.4392684 116.37795,26.4447193 C115.520437,26.4537474 114.662754,26.4532364 113.805241,26.4433566 C113.621744,26.4412273 113.567554,26.4822796 113.56866,26.6745101 C113.577422,28.1574191 113.570957,29.6404985 113.574274,31.1234926 C113.577677,32.6661915 114.639275,33.818723 116.175311,33.9549963 C116.309213,33.966835 116.446687,33.9656426 116.575909,33.9973262 C116.929718,34.0842004 117.167746,34.432038 117.125806,34.7789387 C117.081485,35.1450028 116.781185,35.429303 116.403896,35.4304954 C115.191043,35.4345836 114.144333,35.0097516 113.288607,34.1512298 C112.463931,33.3238806 112.066481,32.312392 112.069714,31.1415489 C112.073287,29.8856201 112.070564,28.6296913 112.070564,27.3737625" id="Fill-39" fill="#FEFEFE"></path>
                <path d="M93.9387376,7.51172488 C94.3492888,6.71375955 94.7257267,5.93172116 94.8950174,5.06732259 C94.9503134,4.78549238 95.0318962,4.72433974 95.3135653,4.72698003 C95.6181185,4.72979067 95.9227567,4.72723554 96.2273099,4.73200511 C96.446452,4.73541194 96.4879665,4.79307258 96.4417731,5.0092361 C96.113145,6.54835783 95.625945,8.02879688 94.8113929,9.38582341 C94.7225791,9.53367994 94.7833196,9.63980277 94.85597,9.75537956 C95.3650331,10.5645023 95.8710337,11.3756691 96.3861369,12.1809591 C96.512552,12.3785554 96.5869038,12.5776847 96.5797578,12.8159927 C96.5675076,13.227027 96.5748237,13.6386575 96.5699747,14.0500326 C96.5689538,14.1321372 96.5767803,14.2320426 96.4689107,14.2602341 C96.3719301,14.285615 96.3375615,14.1973781 96.288816,14.1396322 C95.4663523,13.1645116 94.6552031,12.1805332 93.9362705,11.0938389 C93.8819103,11.1648713 93.8349513,11.2213396 93.7931816,11.2815553 C93.1024074,12.2785648 92.3575283,13.2340962 91.586022,14.1692717 C91.5393182,14.2258251 91.4975484,14.2883405 91.4135837,14.2569976 C91.3393169,14.2292319 91.3098825,14.1662055 91.3099675,14.0877632 C91.3102227,13.733112 91.3082661,13.3783755 91.3106481,13.0237243 C91.3114137,12.9029521 91.3913802,12.8138634 91.4534818,12.7206014 C92.0311119,11.8539032 92.5816045,10.9705967 93.0880305,10.0601207 C93.1605958,9.92963904 93.1988776,9.81278469 93.1144024,9.66475782 C92.3261372,8.28286141 91.9126935,6.76895023 91.5697735,5.23093572 C91.5527593,5.15487819 91.5377018,5.0783948 91.5194967,5.00267795 C91.4528013,4.72451008 91.4792582,4.68686458 91.7561634,4.68490565 C92.0820693,4.6824357 92.4081453,4.68899385 92.7338811,4.68013608 C92.908191,4.67545169 92.9834786,4.74716551 93.0206545,4.91665543 C93.2657432,6.03409647 93.5471571,6.82201165 93.9387376,7.51172488" id="Fill-41" fill="#FEFEFE"></path>
                <path d="M88.2052354,7.62886881 C88.7398197,6.88864929 89.0846113,6.09102464 89.2685342,5.22143066 C89.3713847,4.73484981 89.3720652,4.73672357 89.869899,4.72011526 C90.1035883,4.71236472 90.3368522,4.69175338 90.5704563,4.68553591 C90.7811765,4.67991464 90.8326443,4.7407266 90.7916402,4.93900425 C90.4761129,6.46483933 90.0393599,7.94766316 89.232209,9.29668364 C89.1180441,9.48755143 89.1123443,9.67279794 89.2185126,9.85957753 C89.7504598,10.7949234 90.1118401,11.8197838 90.717969,12.7161214 C90.8279654,12.8788828 90.8740737,13.0642145 90.8724574,13.2603629 C90.8702455,13.5298433 90.8668427,13.7993238 90.8613982,14.068719 C90.8597818,14.1476724 90.851615,14.2296919 90.757697,14.2580537 C90.6708398,14.2842864 90.6306013,14.21632 90.5848333,14.1633438 C89.7871252,13.2406884 88.9983496,12.310538 88.3462826,11.2754571 C88.2377324,11.1031566 88.1866049,11.1376507 88.0874124,11.2759681 C87.3934056,12.2441899 86.6614572,13.1835388 85.9146214,14.1113044 C85.8560077,14.1841255 85.8091337,14.3037053 85.6833992,14.2506439 C85.5746788,14.2047368 85.6102384,14.0935037 85.6103234,14.0051816 C85.6105787,13.6707158 85.6558363,13.3403383 85.7083249,13.0111531 C85.7523915,12.7347738 85.8566882,12.4858195 86.0154302,12.2505777 C86.4749822,11.5693816 86.9105442,10.8725992 87.3230521,10.1612525 C87.5037423,9.84961255 87.5165879,9.54504173 87.3391304,9.23663822 C86.5801296,7.91751269 86.0945459,6.49481946 85.7403115,5.02213096 C85.6816127,4.77794624 85.7149604,4.73655323 85.9674503,4.72514034 C86.2718333,4.71142784 86.5762163,4.69797085 86.8805142,4.68315113 C87.0321953,4.67582644 87.116075,4.73961938 87.1429574,4.89548196 C87.3396409,6.03634498 87.5484044,6.5723249 88.2052354,7.62886881" id="Fill-43" fill="#FEFEFE"></path>
                <path d="M102.38016,17.4589858 C102.238602,17.4589858 102.097044,17.4571972 101.955487,17.4594116 C101.785686,17.4622223 101.709802,17.3781587 101.713205,17.211309 C101.71865,16.9419989 101.725626,16.6725185 101.72469,16.4032084 C101.723924,16.180146 101.830348,16.062951 102.048384,16.0337374 C102.595474,15.9604053 103.142138,15.8846033 103.688802,15.8090568 C105.048828,15.62117 106.397369,15.3677017 107.743017,15.0977102 C107.798313,15.086638 107.854545,15.0764175 107.910607,15.074203 C108.026303,15.0696038 108.093509,15.1141482 108.045699,15.2407972 C107.915881,15.5848021 107.785212,15.9285515 107.65012,16.2705123 C107.601885,16.3926472 107.496227,16.4520964 107.373045,16.4790104 C106.012594,16.776001 104.675112,17.1799662 103.289566,17.3593359 C102.98782,17.3983441 102.683607,17.4180186 102.3805,17.446636 C102.380415,17.4507242 102.380245,17.4548976 102.38016,17.4589858" id="Fill-45" fill="#FEFEFE"></path>
            </g>
        </g>
    </g>
</svg>