<?xml version="1.0" encoding="UTF-8"?>
<svg width="39px" height="39px" viewBox="0 0 39 39" version="1.1" xmlns="http://www.w3.org/2000/svg" xmlns:xlink="http://www.w3.org/1999/xlink">
    <!-- Generator: Sketch 44.1 (41455) - http://www.bohemiancoding.com/sketch -->
    <title>Artboard 2</title>
    <desc>Created with Sketch.</desc>
    <defs>
        <rect id="path-1" x="0" y="0" width="19" height="19"></rect>
        <rect id="path-2" x="0" y="0" width="19" height="19"></rect>
        <rect id="path-3" x="0" y="0" width="19" height="19"></rect>
        <rect id="path-4" x="0" y="0" width="19" height="19"></rect>
    </defs>
    <g id="Page-1" stroke="none" stroke-width="1" fill="none" fill-rule="evenodd">
        <g id="Artboard-2">
            <g id="Group">
                <g id="Rectangle">
                    <use fill="#FFFFFF" fill-rule="evenodd" xlink:href="#path-1"></use>
                    <rect stroke="#E2003B" stroke-width="1" x="0.5" y="0.5" width="18" height="18"></rect>
                </g>
                <g id="Group-3" transform="translate(7.000000, 5.000000)" fill-rule="nonzero" fill="#E2003B">
                    <polygon id="Shape" points="0.00826873385 4.4735858 4.34956072 0.000106508876 4.93416021 0.60252071 0.592971576 5.07621302"></polygon>
                    <polygon id="Shape" points="0.597105943 3.86712426 4.98956072 8.39332544 4.40485788 8.99584615 0.0124031008 4.46953846"></polygon>
                </g>
            </g>
            <g id="Group" transform="translate(20.000000, 0.000000)">
                <g id="Group-2">
                    <g id="Rectangle">
                        <use fill="#FFFFFF" fill-rule="evenodd" xlink:href="#path-2"></use>
                        <rect stroke="#E2003B" stroke-width="1" x="0.5" y="0.5" width="18" height="18"></rect>
                    </g>
                    <path d="M12,9.52447553 L7.6424264,14 L7.05560238,13.3974359 L11.413176,8.92157842 L12,9.52447553 Z M11.4089612,10.1312021 L7,5.60273061 L7.58682401,5 L11.9959474,9.52847153 L11.4089612,10.1312021 Z" id="Shape" fill="#E2003B" fill-rule="nonzero"></path>
                </g>
            </g>
            <g id="Group" transform="translate(0.000000, 20.000000)">
                <g id="Rectangle">
                    <use fill="#E2003B" fill-rule="evenodd" xlink:href="#path-3"></use>
                    <rect stroke="#E2003B" stroke-width="1" x="0.5" y="0.5" width="18" height="18"></rect>
                </g>
                <g id="Group-4" transform="translate(7.000000, 5.000000)" fill-rule="nonzero" fill="#FFFFFF">
                    <polygon id="Shape" points="0.00826873385 4.4735858 4.34956072 0.000106508876 4.93416021 0.60252071 0.592971576 5.07621302"></polygon>
                    <polygon id="Shape" points="0.597105943 3.86712426 4.98956072 8.39332544 4.40485788 8.99584615 0.0124031008 4.46953846"></polygon>
                </g>
            </g>
            <g id="Group-2" transform="translate(20.000000, 20.000000)">
                <g id="Rectangle">
                    <use fill="#E2003B" fill-rule="evenodd" xlink:href="#path-4"></use>
                    <rect stroke="#E2003B" stroke-width="1" x="0.5" y="0.5" width="18" height="18"></rect>
                </g>
                <path d="M12,9.52447553 L7.6424264,14 L7.05560238,13.3974359 L11.413176,8.92157842 L12,9.52447553 Z M11.4089612,10.1312021 L7,5.60273061 L7.58682401,5 L11.9959474,9.52847153 L11.4089612,10.1312021 Z" id="Shape" fill="#FFFFFF" fill-rule="nonzero"></path>
            </g>
        </g>
    </g>
</svg>