<?xml version="1.0" encoding="UTF-8"?>
<svg width="39px" height="79px" viewBox="0 0 39 79" version="1.1" xmlns="http://www.w3.org/2000/svg" xmlns:xlink="http://www.w3.org/1999/xlink">
    <!-- Generator: Sketch 44.1 (41455) - http://www.bohemiancoding.com/sketch -->
    <title>Group 3</title>
    <desc>Created with Sketch.</desc>
    <defs>
        <rect id="path-1" x="0" y="0" width="19" height="19" rx="2"></rect>
        <rect id="path-2" x="0" y="0" width="19" height="19" rx="2"></rect>
        <rect id="path-3" x="0" y="0" width="19" height="19" rx="2"></rect>
        <rect id="path-4" x="0" y="0" width="19" height="19" rx="2"></rect>
        <rect id="path-5" x="0" y="0" width="19" height="19" rx="2"></rect>
        <rect id="path-6" x="0" y="0" width="19" height="19" rx="2"></rect>
        <rect id="path-7" x="0" y="0" width="19" height="19" rx="2"></rect>
        <rect id="path-8" x="0" y="0" width="19" height="19" rx="2"></rect>
    </defs>
    <g id="Page-1" stroke="none" stroke-width="1" fill="none" fill-rule="evenodd">
        <g id="Artboard-2">
            <g id="Group-3">
                <g id="Group">
                    <g id="Rectangle">
                        <use fill="#FFFFFF" fill-rule="evenodd" xlink:href="#path-1"></use>
                        <rect stroke="#E2003B" stroke-width="1" x="0.5" y="0.5" width="18" height="18" rx="2"></rect>
                    </g>
                    <polygon id="Shape" fill="#E2003B" fill-rule="nonzero" points="7.00826873 9.4735858 11.3495607 5.00010651 11.9341602 5.60252071 7.59297158 10.076213"></polygon>
                    <polygon id="Shape" fill="#E2003B" fill-rule="nonzero" points="7.59710594 8.86712426 11.9895607 13.3933254 11.4048579 13.9958462 7.0124031 9.46953846"></polygon>
                </g>
                <g id="Group" transform="translate(20.000000, 0.000000)">
                    <g id="Rectangle">
                        <use fill="#FFFFFF" fill-rule="evenodd" xlink:href="#path-2"></use>
                        <rect stroke="#E2003B" stroke-width="1" x="0.5" y="0.5" width="18" height="18" rx="2"></rect>
                    </g>
                    <path d="M12,9.52447553 L7.6424264,14 L7.05560238,13.3974359 L11.413176,8.92157842 L12,9.52447553 Z M11.4089612,10.1312021 L7,5.60273061 L7.58682401,5 L11.9959474,9.52847153 L11.4089612,10.1312021 Z" id="Shape" fill="#E2003B" fill-rule="nonzero"></path>
                </g>
                <g id="Group" transform="translate(0.000000, 20.000000)">
                    <g id="Rectangle">
                        <use fill="#E2003B" fill-rule="evenodd" xlink:href="#path-3"></use>
                        <rect stroke="#E2003B" stroke-width="1" x="0.5" y="0.5" width="18" height="18" rx="2"></rect>
                    </g>
                    <polygon id="Shape" fill="#FFFFFF" fill-rule="nonzero" points="7.00826873 9.4735858 11.3495607 5.00010651 11.9341602 5.60252071 7.59297158 10.076213"></polygon>
                    <polygon id="Shape" fill="#FFFFFF" fill-rule="nonzero" points="7.59710594 8.86712426 11.9895607 13.3933254 11.4048579 13.9958462 7.0124031 9.46953846"></polygon>
                </g>
                <g id="Group-2" transform="translate(20.000000, 20.000000)">
                    <g id="Rectangle">
                        <use fill="#E2003B" fill-rule="evenodd" xlink:href="#path-4"></use>
                        <rect stroke="#E2003B" stroke-width="1" x="0.5" y="0.5" width="18" height="18" rx="2"></rect>
                    </g>
                    <path d="M12,9.52447553 L7.6424264,14 L7.05560238,13.3974359 L11.413176,8.92157842 L12,9.52447553 Z M11.4089612,10.1312021 L7,5.60273061 L7.58682401,5 L11.9959474,9.52847153 L11.4089612,10.1312021 Z" id="Shape" fill="#FFFFFF" fill-rule="nonzero"></path>
                </g>
                <g id="Group" transform="translate(0.000000, 40.000000)">
                    <g id="Rectangle">
                        <use fill="#FFFFFF" fill-rule="evenodd" xlink:href="#path-5"></use>
                        <rect stroke="#D5D5D5" stroke-width="1" x="0.5" y="0.5" width="18" height="18" rx="2"></rect>
                    </g>
                    <polygon id="Shape" fill="#DFDFDF" fill-rule="nonzero" points="7.00826873 9.4735858 11.3495607 5.00010651 11.9341602 5.60252071 7.59297158 10.076213"></polygon>
                    <polygon id="Shape" fill="#DFDFDF" fill-rule="nonzero" points="7.59710594 8.86712426 11.9895607 13.3933254 11.4048579 13.9958462 7.0124031 9.46953846"></polygon>
                </g>
                <g id="Group" transform="translate(0.000000, 60.000000)">
                    <g id="Rectangle">
                        <use fill="#FFFFFF" fill-rule="evenodd" xlink:href="#path-6"></use>
                        <rect stroke="#D5D5D5" stroke-width="1" x="0.5" y="0.5" width="18" height="18" rx="2"></rect>
                    </g>
                    <polygon id="Shape" fill="#E2003B" fill-rule="nonzero" points="7.00826873 9.4735858 11.3495607 5.00010651 11.9341602 5.60252071 7.59297158 10.076213"></polygon>
                    <polygon id="Shape" fill="#E2003B" fill-rule="nonzero" points="7.59710594 8.86712426 11.9895607 13.3933254 11.4048579 13.9958462 7.0124031 9.46953846"></polygon>
                </g>
                <g id="Group" transform="translate(20.000000, 40.000000)">
                    <g id="Rectangle">
                        <use fill="#FFFFFF" fill-rule="evenodd" xlink:href="#path-7"></use>
                        <rect stroke="#D5D5D5" stroke-width="1" x="0.5" y="0.5" width="18" height="18" rx="2"></rect>
                    </g>
                    <path d="M12,9.52447553 L7.6424264,14 L7.05560238,13.3974359 L11.413176,8.92157842 L12,9.52447553 Z M11.4089612,10.1312021 L7,5.60273061 L7.58682401,5 L11.9959474,9.52847153 L11.4089612,10.1312021 Z" id="Shape" fill="#DFDFDF" fill-rule="nonzero"></path>
                </g>
                <g id="Group-Copy" transform="translate(20.000000, 60.000000)">
                    <g id="Rectangle">
                        <use fill="#FFFFFF" fill-rule="evenodd" xlink:href="#path-8"></use>
                        <rect stroke="#D5D5D5" stroke-width="1" x="0.5" y="0.5" width="18" height="18" rx="2"></rect>
                    </g>
                    <path d="M12,9.52447553 L7.6424264,14 L7.05560238,13.3974359 L11.413176,8.92157842 L12,9.52447553 Z M11.4089612,10.1312021 L7,5.60273061 L7.58682401,5 L11.9959474,9.52847153 L11.4089612,10.1312021 Z" id="Shape" fill="#E2003B" fill-rule="nonzero"></path>
                </g>
            </g>
        </g>
    </g>
</svg>